CoelacanthItalicHairline.sfdir
StartChar: quotesingle
Encoding: 39 39 437
Width: 200
VWidth: 1159
Flags: W
HStem: 445.7 254<153.561 161.34>
VStem: 154.998 96<636.29 699.7>
LayerCount: 2
Fore
SplineSet
154.998046875 699.700195312 m 13
 250.998046875 699.700195312 l 21
 232.896484375 630.734375 185.409179688 537.034179688 160.139648438 445.700195312 c 13
 120.139648438 445.700195312 l 21
 139.922851562 536.911132812 139.159179688 630.889648438 154.998046875 699.700195312 c 13
EndSplineSet
Position2: "Extra space for context kern-1" dx=35 dy=0 dh=70 dv=0
Position2: "cpsp-1" dx=0 dy=0 dh=7 dv=14
EndChar
StartChar: question
Encoding: 63 63 423
Width: 378
VWidth: 1159
Flags: W
HStem: -18 140<102.901 131.663> 559.439 86.3608<192.363 298.611> 680.8 20G<172.899 189.614>
VStem: 49 136 133.068 18.2549<185 209.189> 155.944 29.0159<654.046 694.965>
LayerCount: 2
Back
SplineSet
140.3515625 556.799804688 m 5xd0
 154.921488543 600.648002241 158.227999906 629.99783082 158.227999906 650.045386953 c 4
 158.227999906 666.707012586 155.944074648 676.943227062 155.944074648 683.736973779 c 4
 155.944074648 693.682684763 160.838873547 696.25066421 184.959960938 700.799804688 c 5
 194.268554688 645.799804688 201.268554688 645.799804688 231.268554688 645.799804688 c 7
 327.401367188 645.799804688 405.272460938 565.836914062 379.544921875 444.799804688 c 4
 343.768554688 276.485351562 227.291015625 267.418945312 211.647460938 261.799804688 c 4
 181.361328125 247.799804688 162.662109375 225.799804688 151.323242188 185 c 13
 151.323242188 185 137.868164062 183.799804688 133.068359375 183.799804688 c 5
 135.652264461 207.974566207 138.0931756 230.676071852 141.533645352 250.99999693 c 4
 148.867403549 294.322787962 160.742940255 326.842366279 188.2265625 339.799804688 c 4
 218.153320312 353.909179688 326.346679688 321.544921875 350.631835938 435.799804688 c 4
 352.383396512 444.040016174 353.242428101 451.923090397 353.242428101 459.432092197 c 4
 353.242428101 522.723136022 292.214414544 559.439025681 190.216552679 559.439025681 c 4
 174.538578731 559.439025681 157.892634338 558.571561009 140.3515625 556.799804688 c 5xd0
EndSplineSet
Fore
SplineSet
140.3515625 556.799804688 m 1xec
 154.921488543 600.648002241 158.227999906 629.99783082 158.227999906 650.045386953 c 0
 158.227999906 666.707012586 155.944074648 676.943227062 155.944074648 683.736973779 c 0
 155.944074648 693.682684763 160.838873547 696.25066421 184.959960938 700.799804688 c 1
 194.268554688 645.799804688 201.268554688 645.799804688 231.268554688 645.799804688 c 3
 327.401367188 645.799804688 405.272460938 565.836914062 379.544921875 444.799804688 c 0
 343.768554688 276.485351562 227.291015625 267.418945312 211.647460938 261.799804688 c 0
 181.361328125 247.799804688 162.662109375 225.799804688 151.323242188 185 c 9
 151.323242188 185 137.868164062 183.799804688 133.068359375 183.799804688 c 1
 135.652264461 207.974566207 138.0931756 230.676071852 141.533645352 250.99999693 c 0
 148.867403549 294.322787962 160.742940255 326.842366279 188.2265625 339.799804688 c 0
 218.153320312 353.909179688 326.346679688 321.544921875 350.631835938 435.799804688 c 0
 368.098371031 517.971066821 297.310537082 559.439025681 190.216552679 559.439025681 c 0
 174.538578731 559.439025681 157.892634338 558.571561009 140.3515625 556.799804688 c 1xec
EndSplineSet
Refer: 405 46 S 1 0 0 1 51 0 2
Position2: "cpsp-1" dx=0 dy=0 dh=50 dv=100
Substitution2: "smcp-1" question.smcp
Substitution2: "pcap-1" question.pcap
EndChar
StartChar: D
Encoding: 68 68 1260
Width: 756
VWidth: 1159
Flags: W
HStem: -10 40<-11.7676 56.0425> -7 44<125.21 426.666> 655 34<135.881 187.205 286.394 457.329>
VStem: 655.567 89.291<243.649 470.932>
AnchorPoint: "Bottom" 281.409 -15 basechar 0
AnchorPoint: "Top" 442.713 699 basechar 0
LayerCount: 2
Fore
SplineSet
281.048828125 37 m 3x70
 508.8203125 37 660.629882812 176.061523438 655.567382812 369.3828125 c 0
 650.763671875 552.821289062 502.93359375 655 354.866210938 655 c 3
 343.424804688 655 323.05859375 656.241210938 309.944335938 652 c 0
 284.171875 643.665039062 277.627929688 629.97265625 273.043945312 610 c 0
 256.907782987 539.688627285 242.713935241 472.800397186 228.822940861 407 c 0
 206.329943675 300.452685375 184.631019418 196.757637775 156.765625 86 c 0
 152.237304688 68 148.65234375 50.8212890625 174.813476562 46 c 0
 201.944335938 41 239.048828125 37 281.048828125 37 c 3x70
136.896484375 692 m 1
 175.94921875 690 198.106445312 684 239.106445312 684 c 3
 301.159179688 684 328.607421875 689 369.975585938 689 c 3
 559.736328125 689 739.388671875 578.5390625 744.858398438 369.661132812 c 0
 752.000976562 96.8857421875 488.409179688 -7 267.201171875 -7 c 3x70
 197.201171875 -7 162.017578125 0 92.017578125 0 c 3
 22.017578125 0 11.1484375 -5 -16.720703125 -10 c 1
 -11.767578125 30 l 1xb0
 26.126953125 34 58.30078125 35.9306640625 67.2373046875 68 c 0
 78.5451744154 108.58038337 90.5883780259 155.585322924 102.555672451 204.999994967 c 0
 140.058429147 359.854246646 176.81571826 538.373321629 187.861328125 617 c 0
 192.91796875 653 176.997070312 650 126.997070312 650 c 1
 136.896484375 692 l 1
EndSplineSet
Position2: "cpsp-1" dx=0 dy=0 dh=50 dv=100
Substitution2: "c2pc-1" d.pcap
Substitution2: "c2sc-1" d.smcp
EndChar
StartChar: G
Encoding: 71 71 1275
Width: 714
VWidth: 1159
Flags: W
HStem: -9 39<293.96 491.849> 668 38<393.287 583.168> 677 20G<690.236 721>
VStem: 57.4609 94.4199<178.581 407.693> 671.478 27.8174<532 570.168>
AnchorPoint: "Top" 499.922 699 basechar 0
AnchorPoint: "Bottom" 355.618 -15 basechar 0
LayerCount: 2
Fore
SplineSet
57.4609375 264.528320312 m 4xd8
 50.515625 549.762695312 298.916015625 706 523.73828125 706 c 3xd8
 578.818359375 706 615.323242188 690 656.5234375 676 c 0
 681.759765625 667 683.498046875 677 696.973632812 697 c 9xb8
 721 696 l 9
 699.294921875 532 l 9
 671.477539062 525 l 1
 652.622070312 621 587.944335938 668 493.733398438 668 c 3
 276.961914062 668 147.661132812 456.978515625 151.880859375 281.783203125 c 0
 156.166015625 136.08984375 251.145507812 30 388.440429688 30 c 11
 436.203125 30 464.490234375 37.1474609375 511.733398438 57 c 24
 527.549804688 64 531.130859375 80 535.711914062 96 c 0
 545.38671875 135.68359375 562.950195312 201.474609375 576.390625 261 c 0
 584.579101562 292 581.029296875 313 536.924804688 317 c 0
 505.872070312 319 487.872070312 319 456.845703125 320 c 9
 465.0078125 352 l 1
 557.26953125 342 663.244140625 343 710.086914062 349 c 9
 705.71484375 325 l 1
 677.951171875 316 668.08203125 311 662.631835938 290 c 0
 642.423828125 214.338867188 626.280273438 144.895507812 611.842773438 91 c 0
 605.4453125 68 610.602539062 62 627.995117188 47 c 9
 622.544921875 26 l 1
 549.719726562 16 395.544921875 -9 347.4609375 -9 c 3
 177.625 -9 62.2265625 101.052734375 57.4609375 264.528320312 c 4xd8
EndSplineSet
Position2: "cpsp-1" dx=0 dy=0 dh=50 dv=100
Substitution2: "c2pc-1" g.pcap
Substitution2: "c2sc-1" g.smcp
EndChar
StartChar: O
Encoding: 79 79 1303
Width: 795
VWidth: 1159
Flags: HW
HStem: -10 53<293.128 476.599> 655 50<361.724 543.256>
VStem: 57 96.0459<202.593 413.03> 682.902 100.362<290.286 501.723>
AnchorPoint: "Middle" 426.998 358 basechar 0
AnchorPoint: "Ogonek" 405.998 10 basechar 0
AnchorPoint: "Top" 494.826 699 basechar 0
AnchorPoint: "Bottom" 359.826 -15 basechar 0
LayerCount: 2
Back
SplineSet
494.828125 681 m 0
 286.789247592 681 81 514.994012926 81 287.963867188 c 0
 81 130.237594679 191.235265761 14 358.828125 14 c 0
 552.393198526 14 759.264648438 197.815177774 759.264648438 411.1640625 c 0
 759.264648438 567.958890438 654.386585104 681 494.828125 681 c 0
494.828125 705 m 0
 667.700781618 705 783.264648438 579.876890452 783.264648438 411.1640625 c 0
 783.264648438 183.05505931 565.481908214 -10 358.828125 -10 c 0
 178.494168278 -10 57 117.66220094 57 287.963867188 c 0
 57 530.430200603 275.379900163 705 494.828125 705 c 0
EndSplineSet
Fore
SplineSet
496 681 m 3
 292.656777879 681 81 520.215417232 81 288 c 3
 81 126.99689444 191.844902067 14 359 14 c 3
 553 14 759 197.501082876 759 411 c 3
 759 561.424584559 663 681 496 681 c 3
494.828125 705 m 3
 667.723632812 705 783.264648438 579.896484375 783.264648438 411.1640625 c 3
 783.264648438 183.0703125 565.46484375 -10 358.828125 -10 c 3
 178.474609375 -10 57 117.641601562 57 287.963867188 c 3
 57 530.426757812 275.38671875 705 494.828125 705 c 3
EndSplineSet
Position2: "cpsp-1" dx=0 dy=0 dh=50 dv=100
Substitution2: "c2pc-1" o.pcap
Substitution2: "c2sc-1" o.smcp
EndChar
StartChar: P
Encoding: 80 80 1310
Width: 633
VWidth: 1159
Flags: W
HStem: -11 37<21.2239 76.5765> -7 47<202.966 270.227> 247 36<250.167 399.462> 645 42<166.717 231.524> 654 28<327.897 420.936>
AnchorPoint: "Top" 400.322 699 basechar 0
AnchorPoint: "Bottom" 155.755 -15 basechar 0
LayerCount: 2
Fore
SplineSet
308.594726562 283 m 3x28
 404.829101562 283 502.5 338.01171875 530.234375 452 c 0
 550.858398438 536.767578125 515.985351562 611.611328125 479.720703125 632 c 0
 451.26171875 648 410.708007812 654 351.413085938 654 c 3
 337.413085938 654 325.696289062 642.208007812 322.790039062 627 c 0
 308.778320312 553.663085938 276.759765625 423.8359375 249.42578125 295 c 1
 266.98046875 286 283.420898438 283 308.594726562 283 c 3x28
168.953125 687 m 1xb0
 191.979492188 685 224.022460938 682 260.022460938 682 c 3
 322.953125 682 360.938476562 693 423.868164062 693 c 3
 579.456054688 693 650.852539062 570.385742188 623.150390625 458 c 0
 595.505859375 345.846679688 479.0703125 247 293.096679688 247 c 3
 271.096679688 247 257.02734375 252 239.970703125 256 c 1
 224.76171875 186.220703125 204.864257812 108.416992188 201.470703125 77 c 0
 197.043945312 36 218.91796875 45 284.987304688 40 c 1
 267.643554688 -7 l 1x68
 220.614257812 1.1591796875 186.364257812 6.6318359375 149.41796875 6.6318359375 c 0
 113.9140625 6.6318359375 75.919921875 1.578125 21.7001953125 -11 c 1
 19.1826171875 26 l 1
 94.8056640625 53.0341796875 105.518554688 42.7763671875 116.400390625 82 c 0
 128.017578125 125.443359375 139.98828125 175.185546875 151.963867188 228 c 4
 180.157226562 352.342773438 208.372070312 493.713867188 232.02734375 610 c 0
 236.70703125 633 220.552734375 644 155.5390625 645 c 1
 168.953125 687 l 1xb0
EndSplineSet
Position2: "cpsp-1" dx=0 dy=0 dh=50 dv=100
Substitution2: "c2pc-1" p.pcap
Substitution2: "c2sc-1" p.smcp
EndChar
StartChar: Q
Encoding: 81 81 1315
Width: 733
VWidth: 1361
Flags: W
HStem: -162 49<493.002 700.591> 684 32<374.317 522.141>
AnchorPoint: "Top" 463.654 699 basechar 0
AnchorPoint: "Bottom" 244.587 -15 basechar 0
LayerCount: 2
Fore
SplineSet
449.177734375 684 m 3
 321.177734375 684 203.508789062 566.940429688 166.375 392 c 0
 128.590820312 214 184.45703125 46 335.45703125 46 c 3
 464.45703125 46 581.288085938 170.951171875 618.946289062 347 c 0
 664.5078125 560 579.177734375 684 449.177734375 684 c 3
362.028320312 1 m 5
 418.745117188 -84.2236328125 535.192382812 -113 642.009765625 -113 c 3
 665.3125 -113 693.399414062 -109.142578125 703.764648438 -106 c 1
 708.84765625 -137 l 1
 690.965820312 -144.876953125 628.379882812 -162 579.720703125 -162 c 3
 429.998046875 -162 318.609375 -99.3642578125 267.133789062 -2 c 1
 112.190429688 25 26.67578125 172.837890625 67.3525390625 364 c 0
 113.739257812 582 289.060546875 716 466.060546875 716 c 3
 644.060546875 716 760.729492188 567.131835938 718.247070312 367 c 0
 680.463867188 189 527.911132812 33 362.028320312 1 c 5
EndSplineSet
Position2: "cpsp-1" dx=0 dy=0 dh=50 dv=100
Substitution2: "salt-1" Q.alt
Substitution2: "c2pc-1" q.pcap
Substitution2: "c2sc-1" q.smcp
EndChar
StartChar: V
Encoding: 86 86 1344
Width: 708
VWidth: 1159
Flags: W
HStem: 651 42<126.467 180.807 277.501 359.001 579.772 635.688 725.043 793.885> 651 31.8438<582.936 636.953 733.442 793.885>
VStem: 184.765 42.7793<-27 14.614> 185.254 85.0049<111 591.14> 185.391 92.2598<137.86 646.685>
AnchorPoint: "Top" 470 699 basechar 0
AnchorPoint: "Bottom" 210.648 -15 basechar 0
LayerCount: 2
Fore
SplineSet
368.227539062 692 m 1x88
 359.000976562 656 l 1
 333.216796875 657 314.305664062 656.294921875 302.688476562 654 c 0
 272.3203125 648 277.848632812 631.770507812 277.650390625 618 c 2x88
 270.258789062 111 l 1
 626.623046875 608 l 2
 640.521484375 623.654296875 642.797851562 651 619.044921875 651 c 0
 613.46484375 651 574.916992188 653 570.267578125 653 c 1
 581.44921875 693 l 1x90
 613.02734375 685.913085938 653.110351562 682.84375 691.544921875 682.84375 c 0x50
 734.458984375 682.84375 775.319335938 686.669921875 800 693 c 1
 793.884765625 651 l 1
 757.358398438 650 730.204101562 641.541992188 678.834960938 594 c 0
 647.390625 558.201171875 391.18359375 221.500976562 279.0234375 60 c 0
 258.216796875 35.64453125 239.328125 0 227.543945312 -27 c 1
 184.764648438 -27 l 1xa0
 184.115234375 0 185.248046875 21.015625 185.25390625 57 c 0x90
 185.272460938 169.40625 185.331054688 403.74609375 185.390625 610 c 0
 185.403320312 652.190429688 156.327148438 649 114.41015625 656 c 1
 128.80078125 694 l 1
 168.814453125 686.555664062 198.647460938 684.072265625 227.333984375 684.072265625 c 0
 268.015625 684.072265625 306.391601562 689.067382812 368.227539062 692 c 1x88
EndSplineSet
Position2: "cpsp-1" dx=0 dy=0 dh=50 dv=100
Substitution2: "c2pc-1" v.pcap
Substitution2: "c2sc-1" v.smcp
EndChar
StartChar: X
Encoding: 88 88 1346
Width: 729
VWidth: 1159
Flags: W
HStem: -8 21G<407.522 426.607> 0 33<-2.15234 46.2408 165.967 220.398 634.379 666.783> 654 39<315.129 374.693> 660 26<136.643 168.748 534.92 566.072 723.761 767.979>
AnchorPoint: "Top" 442.581 699 basechar 0
AnchorPoint: "Bottom" 314.524 -15 basechar 0
LayerCount: 2
Fore
SplineSet
137.03515625 686 m 1x50
 182.272460938 683.46875 214.837890625 681.827148438 244.997070312 681.827148438 c 0
 286.313476562 681.827148438 323.11328125 684.907226562 381.791015625 693 c 1
 374.978515625 659 l 1
 369.047851562 657 352.26953125 657.044921875 337.15234375 654 c 0
 312.328125 649 310.018554688 631.026367188 316.446289062 617 c 2
 413.920898438 403 l 1
 480.805664062 476.005859375 537.42578125 547.182617188 567.563476562 585 c 0
 583.864257812 605 601.704101562 635.3671875 572.467773438 645 c 0
 566.387695312 647.286132812 527.98828125 658.713867188 522.908203125 661 c 1
 535.96484375 688 l 1
 568.110351562 683.733398438 601.447265625 681.833984375 635.291992188 681.833984375 c 0
 680.78125 681.833984375 727.190429688 685.266601562 772.860351562 691 c 1
 767.978515625 659 l 1
 751.047851562 657 705.046875 648.15234375 653.829101562 606 c 0
 634.314453125 589.63671875 617.883789062 571.227539062 430.690429688 381 c 1
 467.625976562 314.563476562 576.325195312 112.913085938 590.8203125 91 c 0
 617.25390625 50 634.358398438 47 678.708007812 37 c 1
 664 0 l 1x60
 639.37890625 4.7333984375 604.88671875 6.9775390625 567.818359375 6.9775390625 c 0
 510.912109375 6.9775390625 447.934570312 1.6884765625 405.280273438 -8 c 1x80
 409.091796875 26 l 1
 420.84765625 33 445.272460938 36.1787109375 456.602539062 40 c 0
 492.18359375 52 484.172851562 80.244140625 476.4375 102 c 0
 457.84765625 152.47265625 429.981445312 227.645507812 382.821289062 320 c 1
 298.28515625 230.28125 227.817382812 145.796875 180.890625 89 c 0
 167.484375 72 153.319335938 43.1220703125 181.672851562 38 c 0
 192.7421875 36 215.8125 34 225.84765625 33 c 1
 218.930664062 2 l 1
 176.825195312 5 140.004882812 7 103.629882812 7 c 0
 67.2548828125 7 31.3251953125 5 -9 0 c 1
 -2.15234375 33 l 1
 7.7080078125 37 60.375 45.646484375 105.959960938 87 c 0
 123.696289062 102.416992188 138.423828125 116.805664062 362.913085938 346 c 1
 222.271484375 590.099609375 215.243164062 603.336914062 204.446289062 617 c 0
 178.29296875 650 150.118164062 655 131.943359375 660 c 1
 137.03515625 686 l 1x50
EndSplineSet
Position2: "cpsp-1" dx=0 dy=0 dh=50 dv=100
Substitution2: "c2pc-1" x.pcap
Substitution2: "c2sc-1" x.smcp
EndChar
StartChar: a
Encoding: 97 97 0
Width: 450
VWidth: 1159
Flags: HMW
HStem: -16 53<300.905 369.244> -10 65<87.33 176.699> 406 20G<388.405 411.405> 406 20G<388.405 411.405>
VStem: 25.5116 71.2207<76.4066 192.266> 266.405 69<37.2478 82>
AnchorPoint: "Top" 310 465 basechar 0
AnchorPoint: "Ogonek" 352.401 23 basechar 0
AnchorPoint: "Bottom" 184.062 -15 basechar 0
LayerCount: 2
Back
SplineSet
296.875935272 182.136619828 m 1
 311.236766122 256.374994365 323.871163139 308.170778394 357.61236225 387.875885945 c 1
 350.224034427 385.735679249 340.122637378 383.41153995 329.51231845 382.167898294 c 0
 280.292443474 376.398808107 239.995429773 359.960726531 202.520393454 336.589722275 c 0
 180.452274641 322.827117902 139.443762751 295.457090132 114.430517405 262.492620165 c 0
 83.3642372888 221.550973302 45.2197265625 154.910159636 45.2197265625 98.2998046875 c 0
 45.2197265625 48.9502566661 78.2899311991 14 113.841796875 14 c 0
 148.606314483 14 245.2736412 100.487144499 282.262762972 163.609604398 c 0
 284.560071727 167.529994307 286.606038164 171.310253874 288.370641398 174.899662493 c 2
 299.139648438 169.60546875 l 1
 296.875935272 182.136619828 l 1
286.493979251 126.493092753 m 1
 240.591023942 63.3926822202 162.40685889 -10 113.841796875 -10 c 0
 61.6941568524 -10 21.2197265625 39.1617077791 21.2197265625 98.2998046875 c 0
 21.2197265625 164.571970936 62.9491395132 234.350243115 95.3115234375 277 c 0
 123.778538901 314.516126489 167.027043927 342.739263388 189.8203125 356.954101562 c 0
 229.603503154 381.76456766 273.647442895 399.7842412 326.718390953 406.004717905 c 0
 345.807919175 408.242212616 359.443286209 413.442648477 370.377330588 418.017270383 c 2
 374.151768543 420.313020592 l 1
 407.116119799 440.363135921 l 1
 391.338508892 405.153441624 l 2
 345.24005585 302.27902998 333.688521716 248.524172012 315.322017127 150.6548735 c 0
 314.175494344 144.545415931 313.00353789 138.267102201 311.796329938 131.798500512 c 0
 305.211353473 96.5141157387 303.319459547 61.6349169949 303.863755073 50.0392160842 c 0
 305.05710193 24.6160910373 315.408664701 13 331 13 c 0
 343.192189634 13 378.860007386 55.2724963345 398.265720527 84.8292053575 c 1
 408.296875 78.2431640625 l 1
 418.328029473 71.6571227675 l 1
 401.051743864 45.3437302606 365.389689384 -11 331 -11 c 0
 296.856444104 -11 281.337256354 18.0847030906 279.890151177 48.9139089158 c 0
 279.259185605 62.3560330806 280.962113305 92.8022012756 286.493979251 126.493092753 c 1
EndSplineSet
Fore
SplineSet
348.995117188 380.954101562 m 1x4c
 345.928962703 381.977050781 340.735496585 383 338 383 c 3
 309.982148548 383 224 366 142 292 c 0
 97.8541315079 252.161045507 45 162 45 99 c 3
 45 54.0187590662 76 14 113 14 c 3
 129.155494421 14 184 40 259.52734375 130 c 0
 280.055170741 154.461398183 297.83632945 184.301122887 304 216 c 0
 325 324 355.64965311 370.083305549 348.995117188 380.954101562 c 1x4c
314.856445312 150 m 0
 306.156583704 105.114393823 302.496062449 59.6319007541 303.436523438 47 c 0
 305 26 314.993271872 13 329.571289062 13 c 3
 347.245512513 13 391.356954737 68.3333333333 408.213867188 96 c 1
 425 78 l 1
 401.897242474 44 367.004719404 -11 328.885742188 -11 c 3x9c
 296.083984375 -11 280 22 280 47 c 3
 280 70.093220339 282.00801807 97.2330508475 286.77734375 127 c 1
 229.363475958 49.5649666622 156.174763907 -10 113.841796875 -10 c 3
 61.69140625 -10 21.2197265625 39.1640625 21.2197265625 98.2998046875 c 3
 21.2197265625 164.5078125 62.987232634 234.400445299 95.3115234375 277 c 0
 123.75 314.478515625 167.070471483 342.766346633 189.8203125 356.954101562 c 0
 229.639648438 381.787109375 273.646630698 399.796268248 326.678710938 406 c 0
 346.26637958 408.291379885 357.105746301 412.8515625 372.111328125 419 c 1
 399.892578125 424 l 1x5c
 347.584042617 310.826171875 335.804384511 258.077690362 314.856445312 150 c 0
EndSplineSet
Substitution2: "case-1" A
Substitution2: "pcap-1" a.pcap
Substitution2: "smcp-1" a.smcp
EndChar
StartChar: e
Encoding: 101 101 215
Width: 365
VWidth: 1159
Flags: HMW
HStem: -15 51<144.518 239.037> 367 54<195.549 266.884>
VStem: 46.5302 71.9619<61.4685 197.627> 284 60<289.245 349.853>
AnchorPoint: "Top" 235.697 465 basechar 0
AnchorPoint: "Ogonek" 242.865 26 basechar 0
AnchorPoint: "Bottom" 161.655 -15 basechar 0
LayerCount: 2
Back
SplineSet
69.7111442316 185.767201189 m 1
 67.2964844494 170.645143868 65.7546722944 153.937997943 65.7626860714 138.690077565 c 0
 65.7648222746 134.625495252 65.8542684045 130.525848003 66.034774359 126.391595213 c 0
 69.0974888701 56.2441252912 96.6945084652 14 157.436523438 14 c 0
 211.412657312 14 246.522987999 40.5263580804 278.670485252 73.4592539961 c 1
 287.257542821 65.0769844766 l 1
 295.844600391 56.6947149571 l 1
 262.212136906 22.2405734532 220.48790643 -10 157.436523438 -10 c 0
 79.6797799227 -10 45.3623858171 49.6533236565 42.0576171875 125.344726562 c 0
 41.8620222917 129.824571818 41.7650061913 134.269247862 41.7626893861 138.677464001 c 0
 41.7512484057 160.446369792 44.0615906432 181.288538639 48.2060602399 201.043602405 c 0
 75.1044328182 329.257612209 178.838958007 415 233.880859375 415 c 0
 285.640462592 415 332.19609891 356.490956008 333.994453212 297.364817951 c 0
 334.138241137 292.63737094 336.34332653 282.91185804 337.513743373 280.784565696 c 2
 339.284719624 277.565725976 l 1
 338.950131028 273.907128362 l 1
 338.696224778 271.130761174 l 1
 337.965191331 263.137191595 l 1
 330.297933888 260.761327999 l 2
 276.704531261 244.154266706 190.221024537 218.676297531 116.556129074 197.045136656 c 2
 70.3809627749 183.486134849 l 1
 69.7111442316 185.767201189 l 1
74.9363528908 209.837112599 m 1
 109.794203524 220.072866958 l 2
 178.733243471 240.316314726 257.711854657 263.573860501 312.373587329 280.349257737 c 0
 311.512305418 283.810380354 310.146021915 292.016652903 310.005546788 296.635182049 c 0
 308.492216709 346.390318212 267.488039988 391 233.880859375 391 c 0
 198.759972525 391 104.711998584 322.613252868 74.9363528908 209.837112599 c 1
EndSplineSet
Fore
SplineSet
233.880859375 415 m 3
 283.934570312 415 329.490415956 361.016287858 331.639648438 306 c 0
 331.913085938 299.000517004 334.034179688 289.500517004 339.381835938 287 c 1
 337.560546875 263 l 1
 275.015323409 243.590617488 164.340268586 210.625400955 69.1962890625 182.9375 c 1
 67.5449218742 167.768554688 65.1967507436 146.66742207 66 130 c 0
 70 47 101.855796271 14 158 14 c 3
 215.264532476 14 253.285406255 43.8536585366 288.419921875 82 c 1
 304.162109375 65 l 1
 269.77734375 28 225.436523438 -10 157.436523438 -10 c 3
 79.564453125 -10 45.3648596685 49.5966633265 42.0576171875 125.344726562 c 0
 34.625 295.579101562 169.541015625 415 233.880859375 415 c 3
234 391 m 3
 194.987181594 391 101 315 75 210 c 1
 120.28215799 223.046153846 272.984532105 268.781402777 290.1796875 274 c 0
 309.949546709 280 309.663940863 279.777777778 309 298 c 1
 308 350 264.608017933 391 234 391 c 3
EndSplineSet
Substitution2: "case-1" E
Substitution2: "pcap-1" e.pcap
Substitution2: "smcp-1" e.smcp
EndChar
StartChar: f
Encoding: 102 102 249
Width: 296
VWidth: 1159
UnlinkRmOvrlpSave: 1
Flags: HMW
HStem: -326 36<-124.972 -84.346> 341 42<193.132 331> 697 57<348.061 437.684>
AnchorPoint: "Top" 338 748 basechar 0
AnchorPoint: "Bottom" 115 -204 basechar 0
LayerCount: 2
Fore
SplineSet
58 362 m 5
 142.977539062 361.604492188 239.767578125 373.0859375 335 383 c 5
 331 341 l 5
 235.002929688 336.231445312 131.700195312 336.358398438 53 320 c 5
 58 362 l 5
431 754 m 7
 462 754 533 728 554 706 c 5
 549 679 540 672 488 646 c 5
 452 664 414 697 377 697 c 7
 295 697 272.857421875 620.143554688 224 498 c 4
 180 388 127.333007812 -30 80 -172 c 4
 58.79296875 -235.62109375 27.2421875 -278.947265625 -8 -323 c 5
 -18 -322 -17 -321 -59 -321 c 7
 -80 -321 -112 -325 -124 -326 c 5
 -129 -290 l 5
 -69.8916015625 -275.814453125 -34.4208984375 -236.987304688 -6 -187 c 4
 50.287109375 -88 119.485351562 293.408203125 151 493 c 4
 172 626 225.583007812 654.627929688 296 701 c 4
 337 728 374 754 431 754 c 7
EndSplineSet
Substitution2: "smcp-1" f.smcp
Substitution2: "pcap-1" f.pcap
Substitution2: "case-1" F
Substitution2: "salt-1" f.alt
EndChar
StartChar: l
Encoding: 108 108 318
Width: 262
VWidth: 1159
Flags: HMW
HStem: -10 21G<74.2915 119.118> 749 20G<238.618 268.618>
VStem: 43.6184 82<53.6655 157.415>
AnchorPoint: "Bottom" 82.294 -15 basechar 0
AnchorPoint: "TopRight" 291.755 581 basechar 0
AnchorPoint: "Top" 219.92 749 basechar 0
LayerCount: 2
Fore
SplineSet
176.58984375 413 m 0
 154.73828125 318 122.809570312 163.696289062 121.692382812 90 c 0
 121.434570312 73 122.264648438 54 139.307617188 53 c 1
 154.3515625 52 191.12890625 80 212.211914062 101 c 1
 234.0859375 81 l 1
 209.701171875 44 140.05859375 -10 99.05859375 -10 c 3
 50.404296875 -10 46.0888671875 11.4677734375 42.0068359375 37 c 0
 39.5986328125 52.0634765625 42.2763671875 69.880859375 46.4306640625 96 c 0
 58.2001953125 170 96.4833984375 309.90234375 115.114257812 401 c 0
 153.447265625 588.435546875 157.067382812 624.796875 157.067382812 663 c 3
 157.067382812 673.250976562 154.315429688 688.598632812 145.66015625 694 c 1
 144.079101562 700.612304688 142.2890625 707.0078125 140.4921875 713 c 1
 158.873046875 732.125 204.131835938 748.517578125 248.046875 764 c 1
 257.986328125 757.142578125 261.8046875 748.571289062 267 740 c 1
 256.727539062 712.8984375 239.4375 657.459960938 232.115234375 630 c 0
 216.6484375 572 202.5859375 526.018554688 176.58984375 413 c 0
EndSplineSet
Substitution2: "case-1" L
Substitution2: "pcap-1" l.pcap
Substitution2: "smcp-1" l.smcp
EndChar
StartChar: n
Encoding: 110 110 345
Width: 486
VWidth: 1159
Flags: HMW
HStem: -11 73<336.961 393.216> 346 65<314.172 409.961>
VStem: 51.4609 17<275.412 284.988> 67.4609 65<0 38.5218>
AnchorPoint: "Bottom" 225.51 -15 basechar 0
AnchorPoint: "Top" 297 465 basechar 0
LayerCount: 2
Fore
SplineSet
115.720703125 268 m 1xd0
 121.112304688 291 105.594726562 327 90.5947265625 327 c 3
 80.5947265625 327 56.6923828125 297 49.8603515625 266 c 1
 31.7412109375 282 l 1xe0
 45.2666015625 346 111.979492188 393 152.581054688 413 c 1
 162.720703125 411 174.60546875 400.541015625 179.259765625 389 c 0
 182.1015625 381.952148438 185.84375 366.96875 187.206054688 347.49609375 c 0
 188.438476562 329.869140625 183.618164062 289.928710938 174.490234375 257 c 1
 207.912109375 311.799804688 285.91796875 411 349.720703125 411 c 3
 412.720703125 411 419.813476562 345.034179688 406.951171875 279 c 0
 393.706054688 211 381.083007812 171.076171875 375.860351562 123 c 0
 372.818359375 95 369.125 62 386.125 62 c 3
 395.125 62 412.877929688 79.1943359375 426.608398438 98 c 0
 437.559570312 113 449.370117188 130 454.880859375 137 c 1
 473 121 l 1
 459.16796875 90 440.401367188 59.0712890625 414.29296875 31 c 0
 395.69140625 11 366.08984375 -9 343.08984375 -9 c 3
 313.5859375 -9 300.10546875 34.0029296875 300.10546875 63.6630859375 c 3
 300.10546875 101 345.751953125 252.973632812 345.751953125 288.1328125 c 3
 345.751953125 317.951171875 335.077148438 346 307.266601562 346 c 3
 247.2890625 346 163.405273438 201 150.321289062 145 c 0
 139.797851562 99.9599609375 136.220703125 79.5859375 128.943359375 36 c 0
 126.942382812 24.0166015625 126.946289062 6 121.4609375 0 c 1
 116.4609375 0 86.4609375 0 84.4609375 0 c 1
 82.4609375 0 58.4609375 0 56.4609375 0 c 1
 51.4775390625 6 56.4912109375 29.3095703125 58.7333984375 39 c 0
 69.8408203125 87 89 152.668945312 102.475585938 200 c 0
 107.884765625 219 112.258789062 246 115.720703125 268 c 1xd0
EndSplineSet
Validated: 545
Substitution2: "case-1" N
Substitution2: "pcap-1" n.pcap
Substitution2: "smcp-1" n.smcp
EndChar
StartChar: o
Encoding: 111 111 358
Width: 422
VWidth: 1159
Flags: HW
HStem: -10 41<144.646 235.435> 373 46<187.796 283.165>
VStem: 33.5293 75.7197<70.0077 254.691> 314.522 74.3486<156.751 339.116>
AnchorPoint: "Top" 262 465 basechar 0
AnchorPoint: "Horn" 369.611 341.8 basechar 0
AnchorPoint: "Ogonek" 247.839 19 basechar 0
AnchorPoint: "Bottom" 165 -15 basechar 0
AnchorPoint: "Middle" 212.41 206 basechar 0
LayerCount: 2
Back
SplineSet
264.71875 395 m 0
 196.338937158 395 57.529296875 305.939727402 57.529296875 147.842773438 c 0
 57.529296875 57.1156444449 101.19040928 14 163.9375 14 c 0
 256.736605034 14 364.87109375 124.744659177 364.87109375 265.012695312 c 0
 364.87109375 345.740087294 325.195674703 395 264.71875 395 c 0
264.71875 419 m 0
 342.406726932 419 388.87109375 353.157991132 388.87109375 265.012695312 c 0
 388.87109375 114.374793739 274.098200552 -10 163.9375 -10 c 0
 85.923232899 -10 33.529296875 48.3394029186 33.529296875 147.842773438 c 0
 33.529296875 320.062636181 182.182822584 419 264.71875 419 c 0
EndSplineSet
Fore
SplineSet
264.71875 419 m 3
 342.473054455 419 388.87109375 353.183856197 388.87109375 265.012695312 c 0
 388.87109375 114.403732028 274.067531643 -10 163.9375 -10 c 3
 85.8265398985 -10 33.529296875 48.286333341 33.529296875 147.842773438 c 0
 33.529296875 320.034321532 182.23799869 419 264.71875 419 c 3
266 395 m 3
 191.993243552 395 58 303 58 149 c 3
 58 55.9784971095 101.703111414 14 164 14 c 3
 253.012298933 14 365 122 365 265 c 3
 365 349.162450987 320.58726911 395 266 395 c 3
EndSplineSet
Substitution2: "case-1" O
Substitution2: "pcap-1" o.pcap
Substitution2: "smcp-1" o.smcp
EndChar
StartChar: r
Encoding: 114 114 438
Width: 359
VWidth: 1159
Flags: HMW
HStem: 406 20G<322.492 342.992> 413 20G<154.492 180.492 322.492 342.992>
VStem: 44.4925 19<295.105 306.953> 55.4925 68<0 66.3041>
AnchorPoint: "Bottom" 108.99 -15 basechar 0
AnchorPoint: "Top" 231.956 465 basechar 0
LayerCount: 2
Fore
SplineSet
119.409179688 288 m 1x80
 119.256835938 321 110.349609375 347 95.349609375 347 c 3
 85.349609375 347 61.431640625 316 53.5146484375 285 c 1
 33.9560546875 301 l 1
 53.1513671875 361.606445312 115.85546875 407.060546875 155.590820312 426 c 1
 182.670898438 421.4921875 193.432617188 397.630859375 194.5625 365.287109375 c 0
 195.413085938 340.921875 193.608398438 312.112304688 186.654296875 281 c 1
 230.9765625 348.028320312 311.572265625 416.23828125 334.6953125 423 c 1
 357.48828125 417.911132812 382.069335938 392.463867188 378.685546875 366 c 1
 375.295898438 345 345.770507812 305 314.165039062 295 c 1
 309.327148438 312.727539062 295.928710938 334 285.803710938 334 c 3
 255.096679688 334 184.758789062 264 164.111328125 182 c 0
 162.482421875 175.532226562 161.241210938 169.01171875 160.669921875 166 c 0
 153.802734375 129.825195312 149.493164062 103.138671875 146.498046875 85 c 0
 144.84765625 75 143.935546875 66.8056640625 141.4765625 57 c 0
 139.720703125 50 136.598632812 38.841796875 134.349609375 32 c 0
 130.733398438 21 128.083007812 11 123.466796875 0 c 1
 119.447265625 0.5556640625 91.5380859375 -2.037109375 85.537109375 -2 c 1
 79.537109375 -2 59.5712890625 -3 55.431640625 1 c 1
 55.1875 8 60.4189453125 30 61.279296875 34 c 0
 62.1396484375 38 64.69140625 55.3125 66.40625 59 c 0
 67.3369140625 61 70.7021484375 80.29296875 72.498046875 85 c 0
 77.0791015625 97 95.2021484375 169.440429688 107.203125 208 c 0
 115.294921875 234 119.177734375 266 119.409179688 288 c 1x80
EndSplineSet
Substitution2: "case-1" R
Substitution2: "pcap-1" r.pcap
Substitution2: "smcp-1" r.smcp
EndChar
StartChar: u
Encoding: 117 117 519
Width: 492
VWidth: 1159
Flags: HMW
HStem: -18 56<314.047 406.116> -10 70<105.548 195.547> 341 75<146.547 205.547> 387 20G<458.047 465.547>
AnchorPoint: "Ogonek" 401.534 23 basechar 0
AnchorPoint: "Bottom" 226.859 -15 basechar 0
AnchorPoint: "Top" 303.864 465 basechar 0
LayerCount: 2
Fore
SplineSet
383.638671875 399 m 1x60
 388.250976562 402.200195312 417.178710938 407 427.939453125 407 c 1
 431.939453125 407 458.026367188 406 458.551757812 400 c 1
 449.288085938 323 400.693359375 287.9140625 377.986328125 155 c 0
 373.356445312 127.903320312 369.67578125 89.9677734375 370.334960938 71 c 1
 369.735351562 55 374.434570312 47 383.434570312 47 c 3
 394.434570312 47 422.189453125 61.2373046875 457.53515625 103 c 1
 475.935546875 87 l 1
 453.05078125 51.3876953125 426.346679688 26.3134765625 401.671875 10 c 0
 386.546875 0 365.333984375 -9 344.333984375 -9 c 3x90
 314.630859375 -9 303.609375 12.1279296875 301.219726562 39.443359375 c 0
 298.361328125 72.1220703125 304.912109375 112.102539062 310.123046875 142 c 1
 266.477539062 98.34375 184.890625 -8 119.247070312 -8 c 3
 93.2470703125 -8 72.5849609375 11 65.9599609375 41 c 1
 61.7216796875 66.5869140625 71.771484375 121.439453125 81.111328125 165 c 0
 92.474609375 218 112.095703125 266.184570312 118.375976562 322 c 0
 119.500976562 332 120.80078125 340 116.712890625 341 c 1
 105.712890625 341 65.1748046875 290 52.400390625 276 c 1
 37 292 l 1
 59.23828125 335 122.151367188 416 169.151367188 416 c 3
 199.151367188 416 207.901367188 396 204.263671875 369 c 1
 201.375976562 322 178.334960938 312.876953125 153.57421875 194 c 0
 138.786132812 123 135.297851562 60 177.297851562 60 c 3
 204.857421875 60 280.44140625 141.111328125 323.524414062 206 c 1
 330.2265625 234.892578125 343.3515625 290.954101562 345.475585938 298 c 0
 350.900390625 316 359.759765625 343.328125 366.05078125 360 c 0
 372.017578125 375.810546875 379.21875 389.513671875 383.638671875 399 c 1x60
EndSplineSet
Substitution2: "case-1" U
Substitution2: "pcap-1" u.pcap
Substitution2: "smcp-1" u.smcp
EndChar
StartChar: v
Encoding: 118 118 1212
Width: 383
VWidth: 1159
Flags: HMW
HStem: 327 68<70.4914 177.923> 428 20G<411.923 442.923>
VStem: 404.923 59.0557<298.23 368.797>
AnchorPoint: "Bottom" 104 -15 basechar 0
AnchorPoint: "Top" 248 465 basechar 0
LayerCount: 2
Fore
SplineSet
165 72 m 1
 312.591796875 200.392578125 326 265 326 344 c 3
 326 359.376953125 319.6953125 379 297 379 c 3
 293.584960938 379 291.836914062 378.565429688 288 377 c 1
 280 400 l 1
 296.408203125 412.42578125 312.19140625 417.265625 321.748046875 417.265625 c 3
 370.790039062 417.265625 392 388.327148438 392 345 c 3xa0
 392 255 260.983398438 116.966796875 187 57 c 0
 164.112304688 38.4482421875 131.560546875 11.865234375 115 -11 c 1
 95 -5 l 1
 92.0830078125 102.701171875 89.0068359375 197.666992188 89.0068359375 306.432617188 c 3
 89.0068359375 317.366210938 88.2626953125 344 82 344 c 3
 67.2890625 344 43.7529296875 320.581054688 31 304 c 1
 14 324 l 1
 32.70703125 346.8046875 99.46875 414 127 414 c 3
 153.592773438 414 158.626953125 391.987304688 158.626953125 363.965820312 c 3
 158.626953125 265.901367188 161.649414062 148.5546875 165 72 c 1
EndSplineSet
Validated: 513
Substitution2: "case-1" V
Substitution2: "pcap-1" v.pcap
Substitution2: "smcp-1" v.smcp
EndChar
StartChar: w
Encoding: 119 119 1214
Width: 564
VWidth: 1159
Flags: HMW
HStem: 353 46<531.376 582.898> 395 20G<403.218 410.551>
VStem: 368.97 70<269.962 371.091>
AnchorPoint: "Top" 365.317 465 basechar 0
AnchorPoint: "Bottom" 198.022 -15 basechar 0
LayerCount: 2
Fore
SplineSet
560.688476562 333 m 0xa0
 567.98828125 228.598632812 445.306640625 113.772460938 372.98828125 57 c 0
 345.53515625 35.4482421875 303.763671875 11.865234375 283.743164062 -11 c 1
 263.323242188 -5 l 1
 265.30859375 60.931640625 285.286132812 143.9140625 292.087890625 261 c 1
 248.166992188 163.747070312 183.267578125 44.1220703125 84.8125 -12 c 1
 65.11328125 -2 l 1
 90.1728515625 99.8525390625 114.317382812 193.609375 114.317382812 296 c 3
 114.317382812 304.866210938 114.712890625 344 99.9189453125 344 c 3
 85.2080078125 344 63.3095703125 320.581054688 51.7158203125 304 c 1
 33.3173828125 324 l 1
 52.2509765625 346.8046875 107.645507812 414 151.024414062 414 c 3
 185.979492188 414 191.317382812 356.90625 191.317382812 325 c 3
 191.317382812 291.758789062 174.3984375 151.01953125 151.317382812 88 c 1
 187.572265625 120.51953125 255.569335938 232.3046875 332.561523438 401 c 1
 366.513671875 403 l 1
 363.727539062 273.716796875 344.942382812 150.97265625 337.288085938 67 c 1
 401.244140625 120.83203125 497.770507812 248.495117188 491.985351562 331.223632812 c 0
 490.916992188 346.501953125 485.16796875 366 469.380859375 366 c 3
 461.791015625 366 458.044921875 364.043945312 450.009765625 357 c 1
 432.611328125 377 l 1
 455.247070312 405.978515625 478.180664062 417.265625 492.543945312 417.265625 c 3
 538.698242188 417.265625 557.15625 383.521484375 560.688476562 333 c 0xa0
EndSplineSet
Substitution2: "case-1" W
Substitution2: "pcap-1" w.pcap
Substitution2: "smcp-1" w.smcp
EndChar
StartChar: x
Encoding: 120 120 1216
Width: 469
VWidth: 1159
UnlinkRmOvrlpSave: 1
Flags: W
HStem: -10 73.4414<56.5158 117.856> -9.83984 61.8398<278.387 376.977> 326.156 82.8438<353.048 437.71> 344.576 67.4238<118.733 214.75>
VStem: 56.8613 18.5586<273.965 282.375>
AnchorPoint: "Bottom" 198.32 -15 basechar 0
AnchorPoint: "Top" 288.72 465 basechar 0
LayerCount: 2
Fore
SplineSet
263.719726562 222 m 1x58
 312.838867188 85.8017578125 326.247070312 52 363.823242188 52 c 3
 378.823242188 52 395.915039062 78 417.762695312 111 c 1
 438.390625 93 l 1
 408.059570312 40.587890625 374.139648438 -9.83984375 319.1953125 -9.83984375 c 3
 237.578125 -9.83984375 239.561523438 104.380859375 221.719726562 170 c 1
 221.453125 171.09765625 214.151367188 194.073242188 213.719726562 196 c 1
 200.190429688 253.692382812 186.59375 344.576171875 143.08203125 344.576171875 c 3
 112.958007812 344.576171875 92.029296875 298.083007812 75.419921875 264 c 1
 56.861328125 280 l 1
 79.0732421875 364.333007812 117.407226562 412 187.250976562 412 c 3
 242.25 412 250.668945312 303.979492188 258.719726562 249 c 1
 258.971679688 247.196289062 263.395507812 222.98828125 263.719726562 222 c 1x58
229.719726562 168 m 1
 126.5546875 20.73046875 124.478515625 -10 57.98828125 -10 c 3
 19.53515625 -10 8.8544921875 21.9296875 7.7587890625 53.3466796875 c 0
 7.306640625 66.314453125 10.7236328125 82.162109375 19.9375 106 c 1
 41.111328125 101 l 1
 65.806640625 73.951171875 79.9140625 63.44140625 90.8212890625 63.44140625 c 3
 114.342773438 63.44140625 182.388671875 162.10546875 214.719726562 204 c 1
 215.795898438 205.157226562 254.184570312 244.139648438 254.719726562 245 c 1
 315.560546875 370.10546875 365.93359375 409 399.356445312 409 c 3
 432.478515625 409 465.073242188 364.252929688 465.969726562 338.643554688 c 0
 466.30859375 328.96484375 463.768554688 319.696289062 458.778320312 311 c 1
 434.673828125 314 l 1
 425.930664062 322.447265625 415.681640625 326.15625 404.330078125 326.15625 c 3xa8
 335.80859375 326.15625 298.4765625 250.008789062 263.719726562 211 c 1
 263.291015625 210.58984375 230.96484375 169.577148438 229.719726562 168 c 1
EndSplineSet
Substitution2: "smcp-1" x.smcp
Substitution2: "pcap-1" x.pcap
Substitution2: "case-1" X
EndChar
StartChar: cent
Encoding: 162 162 183
Width: 408
VWidth: 1159
UnlinkRmOvrlpSave: 1
Flags: HW
HStem: -16 63<163.649 276.297> 363 51<242.729 349.237>
LayerCount: 2
Fore
SplineSet
62.197265625 175 m 0
 76.6708984375 243.094726562 104.056640625 286.671875 160.206054688 335 c 0
 219.807617188 386.298828125 269.072265625 414 337.998046875 414 c 3
 389.096679688 414 407.860351562 389.043945312 452.283203125 373 c 1
 418.916992188 345.400390625 400.345703125 328.599609375 366.979492188 301 c 1
 359.491210938 327.014648438 349.30078125 363 299.158203125 363 c 3
 265.921875 363 242.12890625 362.40625 215.694335938 342 c 0
 155.75390625 295.728515625 140.546875 251.918945312 126.53515625 186 c 0
 113.602539062 125.155273438 145.719726562 47 229.990234375 47 c 3
 290.778320312 47 343.81640625 96.7568359375 378.20703125 128 c 1
 385.181640625 122 389.83203125 118 396.806640625 112 c 1
 351.276367188 62.5458984375 284.529296875 -16 195.598632812 -16 c 3
 73.212890625 -16 46.931640625 103.1796875 62.197265625 175 c 0
EndSplineSet
Refer: 487 58113 N 0.147514 0.694 -1 0 163.841 -156 2
Position2: "'lnum-2' vertical adjustment" dx=0 dy=125 dh=0 dv=0
EndChar
StartChar: section
Encoding: 167 167 447
Width: 428
Flags: W
HStem: -149.775 33<8.79932 109.313> 602.225 40<331.944 442.625>
LayerCount: 2
Fore
SplineSet
210.7578125 482.224609375 m 5
 188.467773438 443.224609375 175.921875 417.1328125 166.80078125 374.224609375 c 28
 131.830078125 209.700195312 246.700195312 91.982421875 225.416015625 -22.775390625 c 5
 249.720703125 13.0048828125 268.283203125 37.759765625 277.096679688 79.224609375 c 28
 312.798828125 247.188476562 204.795898438 352.024414062 210.7578125 482.224609375 c 5
93.43359375 297.224609375 m 4
 129.145507812 465.236328125 256.752929688 642.224609375 424.765625 642.224609375 c 31
 460.484375 642.224609375 480.939453125 624.224609375 492.5625 594.224609375 c 5
 489.346679688 563.4765625 444.366210938 554.505859375 412.274414062 555.224609375 c 5
 396.975585938 575.368164062 389.779296875 602.224609375 360.263671875 602.224609375 c 31
 325.094726562 602.224609375 293.919921875 562.970703125 285.258789062 522.224609375 c 4
 269.114257812 446.271484375 386.091796875 333.252929688 351.651367188 171.224609375 c 4
 321.653320312 30.09765625 188.3046875 -149.775390625 28.4208984375 -149.775390625 c 31
 -10.822265625 -149.775390625 -35.2412109375 -138.775390625 -52.013671875 -104.775390625 c 5
 -60.34375 -79.3203125 -11.94140625 -51.181640625 24.8271484375 -53.775390625 c 5
 40.724609375 -77.775390625 40.2646484375 -116.775390625 71.4345703125 -116.775390625 c 31
 109.112304688 -116.775390625 137.005859375 -76.4521484375 145.014648438 -38.775390625 c 4
 162.915039062 45.4384765625 51.328125 99.1337890625 93.43359375 297.224609375 c 4
EndSplineSet
Position2: "'case' vertical ajustments for all-caps-1" dx=0 dy=60 dh=0 dv=0
Position2: "cpsp-1" dx=0 dy=0 dh=50 dv=111
EndChar
StartChar: registered
Encoding: 174 174 441
Width: 322
VWidth: 1159
Flags: W
HStem: 436.027 19.6641<194.861 283.378> 487.43 10.6172<306.395 316.186> 491.865 12.6348<175.828 190.355 220.883 235.167> 557.075 15.1846<216.812 238.537> 625 13.7969<174.248 189.49 211.014 252.693> 666.746 19.6641<198.426 284.315>
VStem: 113.307 19.9531<514.336 603.031> 193.163 23.6484<515.168 558.24 573.061 622.526> 264.873 26.8711<575.709 619.086> 348.543 19.957<519.406 606.227>
LayerCount: 2
Fore
SplineSet
216.811523438 573.060546875 m 5x9fc0
 224.482664559 572.852603679 228.340735534 572.259765625 235.921875 572.259765625 c 5
 254.941987917 572.259765625 264.873046875 582.531938127 264.873046875 596.451171875 c 5
 265.000047903 610.982084393 252.499946699 624.555002679 230.134765625 625 c 5
 225.347018765 624.424010677 220.642267516 623.733023486 218.609375 613.19921875 c 4
 216.472641586 602.132782368 216.325293132 585.513755327 216.811523438 573.060546875 c 5x9fc0
174.248046875 634.85546875 m 5
 183.803019273 634.649437651 190.573999714 634.44140625 201.29296875 634.44140625 c 5
 216.728841774 634.44140625 223.623785056 638.796875 241.181640625 638.796875 c 5
 268.528911055 638.796875 291.744140625 622.056861172 291.744140625 600.96484375 c 5
 291.744140625 581.91679781 278.013032414 568.821766227 262.00390625 562.09375 c 5
 284.589021244 528.93781471 296.880083825 502.073867141 317.2421875 498.046875 c 5
 314.142578125 487.4296875 l 5xdfc0
 280.429684182 489.499698174 255.241763421 518.990850246 234.673828125 557.123046875 c 5
 233.843148379 557.090056006 233.06478203 557.075195312 232.327148438 557.075195312 c 4
 226.514880757 557.075195312 223.231835969 557.995242069 216.811523438 558.240234375 c 5
 217.689797012 541.253070504 218.235967139 528.623948675 219.896484375 514.5078125 c 4
 220.762472664 506.823038479 225.130413595 505.878066267 236.072265625 504.412109375 c 5
 234.240234375 491.21484375 l 5
 224.22980352 493.185523758 213.77036051 494.216796875 203.325195312 494.216796875 c 4
 194.332268227 494.216796875 185.349924587 493.45248218 176.673828125 491.865234375 c 5
 174.990234375 504.5 l 5xbfc0
 186.299693946 505.109006984 190.083580046 506.588023946 191.185546875 514.037109375 c 5
 192.475165505 538.799240566 193.163085938 554.258347311 193.163085938 570.018554688 c 4
 193.163085938 581.975554364 192.767424054 594.105865976 191.938476562 610.603515625 c 5
 190.111432185 620.522873357 187.277363347 622.810955875 174.248046875 623.16796875 c 5
 174.248046875 634.85546875 l 5
240.900390625 666.74609375 m 4
 185.02217 666.74609375 133.259765625 621.18186888 133.259765625 559.1015625 c 4
 133.259765625 497.068068647 182.777161136 455.69140625 240.900390625 455.69140625 c 4
 296.781171616 455.69140625 348.54296875 501.256207833 348.54296875 563.3359375 c 4
 348.54296875 621.148024853 298.93616317 666.74609375 240.900390625 666.74609375 c 4
240.90234375 686.41015625 m 4
 309.535158852 686.41015625 368.5 632.481087623 368.5 563.625 c 4
 368.5 489.990198373 307.167165232 436.02734375 240.90234375 436.02734375 c 4
 172.360180917 436.02734375 113.306640625 485.127015719 113.306640625 558.811523438 c 4
 113.306640625 632.446888625 174.639086331 686.41015625 240.90234375 686.41015625 c 4
EndSplineSet
EndChar
StartChar: Thorn
Encoding: 222 222 1326
Width: 587
VWidth: 1159
Flags: W
HStem: -10.6104 46.7715<186.539 269.415> -9 35<0.157812 56.7864> 178 45<204.897 410.643> 519 42<274.292 445.033> 658.244 37.7988<319.223 409.222> 667 31<132.055 188.761>
LayerCount: 2
Fore
SplineSet
409.221679688 658.244140625 m 1x38
 378.874023438 658.76953125 347.487304688 654.46484375 317.83203125 647 c 0
 299.340820312 642.344726562 292.79296875 628 287.966796875 610 c 0
 282.583225199 591.190234157 277.537799237 572.867041144 272.749023438 554.89453125 c 1
 310.05078125 557.525390625 346.74609375 561 395.827148438 561 c 3
 528.827148438 561 621.185546875 478 599.291992188 375 c 0
 574.478515625 258.262695312 422.611328125 178 297.41796875 178 c 3
 257.137695312 178 235.051757812 181.861328125 195.611328125 182.9453125 c 1
 188.791992188 145.3203125 182.6484375 106.4140625 181.524414062 75 c 0
 181.892578125 58.8486328125 184.911132812 38.1826171875 281.26953125 36.1611328125 c 1
 267.328125 -10.6103515625 l 1xb8
 221.5859375 0.765625 186.328125 6.1748046875 146.412109375 6.1748046875 c 0
 107.14453125 6.1748046875 63.369140625 0.939453125 0.669921875 -9 c 1
 -1.890625 26 l 1
 53.2353515625 36 80.998046875 49 86.9501953125 77 c 1
 95.1826171875 108.202148438 112.881835938 187.70703125 131.930664062 277.326171875 c 0
 161.775005068 414.109637396 194.792583193 574.047402864 202.368164062 626 c 0
 207.107421875 653 193.107421875 653 123.083007812 667 c 1
 134.671875 698 l 1x74
 180.897460938 692.877929688 232.620117188 690.064453125 285.412109375 690.064453125 c 0
 328.791015625 690.064453125 372.891601562 691.963867188 415.255859375 696.04296875 c 1
 409.221679688 658.244140625 l 1x38
204.897460938 226.958007812 m 1
 244.0546875 225.396484375 264.350585938 223 304.983398438 223 c 3
 450.983398438 223 498.688476562 311 509.954101562 364 c 0
 522.70703125 424 481.899414062 519 365.899414062 519 c 3
 344.418945312 519 294.138671875 516.599609375 263.34765625 510.466796875 c 1
 242.396484375 417.948242188 221.567382812 313.534179688 204.897460938 226.958007812 c 1
EndSplineSet
Position2: "cpsp-1" dx=0 dy=0 dh=50 dv=111
Substitution2: "c2pc-1" thorn.pcap
Substitution2: "c2sc-1" thorn.smcp
EndChar
StartChar: eth
Encoding: 240 240 239
Width: 460
UnlinkRmOvrlpSave: 1
Flags: HW
HStem: -10 43<149.783 257.063> 372 47<196.956 316.71>
LayerCount: 2
Back
SplineSet
272.830078125 419 m 7
 350.583984375 419 396.982421875 353.18359375 396.982421875 265.012695312 c 4
 396.982421875 114.403320312 282.178710938 -10 172.048828125 -10 c 7
 93.9375 -10 41.640625 48.2861328125 41.640625 147.842773438 c 4
 41.640625 320.034179688 190.349609375 419 272.830078125 419 c 7
246.641601562 373 m 7
 190.947265625 373 117.360351562 291.327148438 117.360351562 169.911132812 c 4
 117.360351562 87.3173828125 148.770507812 31 193.54296875 31 c 7
 250.7109375 31 322.633789062 120.900390625 322.633789062 246.533203125 c 4
 322.633789062 328.408203125 288.54296875 373 246.641601562 373 c 7
EndSplineSet
Fore
SplineSet
350.862304688 309 m 1
 329.791992188 356.879882812 282.016601562 372 243.963867188 372 c 3
 207.16015625 372 131.963867188 311 119.963867188 218 c 0
 107.362304688 120.338867188 132.439453125 33 194.53515625 33 c 3
 273.8203125 33 323.245117188 122.61328125 340.119140625 202 c 0
 376.301757812 372.223632812 285.54296875 618 144.97265625 700 c 1
 150.467773438 706.58203125 163.044921875 727.453125 163.044921875 727.453125 c 1
 334.977539062 675.166015625 452.744140625 441.06640625 416.133789062 235 c 0
 394.181640625 111.44140625 308.85546875 -10 166.120117188 -10 c 3
 80.9736328125 -10 26.8857421875 72.4794921875 45.5302734375 196 c 0
 66.9638671875 338 197.072265625 419 278.963867188 419 c 3
 295.661132812 419 327.932617188 406.197265625 343.504882812 392 c 1
 350.862304688 309 l 1
EndSplineSet
Refer: 487 58113 N 0.322128 0.177084 -0.361801 0.872389 140.081 489.958 2
Substitution2: "pcap-1" eth.pcap
Substitution2: "case-1" Eth
Substitution2: "smcp-1" eth.smcp
EndChar
StartChar: eogonek
Encoding: 281 281 232
Width: 365
VWidth: 1159
UnlinkRmOvrlpSave: 1
Flags: HW
HStem: -295.658 60.1279<85.3345 179.143> -15 51<144.518 239.037> 367 54<195.549 266.884>
VStem: 31.2109 76.1602<-229.294 -145.57> 46.5302 71.9619<61.4685 197.627> 284 60<289.245 349.853>
AnchorPoint: "Top" 209 465 basechar 0
LayerCount: 2
Fore
SplineSet
252.680664062 19.884765625 m 1xf4
 143.04296875 -59.7666015625 107.37109375 -132.534179688 107.37109375 -185.48828125 c 3
 107.37109375 -217.349609375 125.030273438 -235.530273438 151.92578125 -235.530273438 c 3
 171.678710938 -235.530273438 197.666992188 -224.841796875 227.017578125 -201.2578125 c 9
 227.017578125 -201.2578125 235.930664062 -211.584960938 236.905273438 -219.658203125 c 1
 198.680664062 -272.446289062 148.25 -295.658203125 106.75 -295.658203125 c 3
 63.9189453125 -295.658203125 31.2109375 -267.856445312 31.2109375 -220.041992188 c 3
 31.2109375 -150.641601562 103.0546875 -44.607421875 250.4921875 41.103515625 c 1
 252.680664062 19.884765625 l 1xf4
EndSplineSet
Refer: 215 101 N 1 0 0 1 0 0 3
Substitution2: "smcp-1" eogonek.smcp
Substitution2: "case-1" Eogonek
Substitution2: "pcap-1" eogonek.pcap
EndChar
StartChar: Iogonek
Encoding: 302 302 1362
Width: 391
Flags: W
HStem: -346.889 73.7197<84.2554 174.433> -2 40<6.25391 107.115 213.24 294.584> 7.12908 30.8709<6.25391 104.04> 652 31.4896<340.787 428.446> 656 43<150.421 227.543 341.048 428.446>
VStem: 30.4854 80.5527<-262.12 -131.045>
LayerCount: 2
Fore
SplineSet
214.963867188 3.734375 m 5x84
 147.557408219 -46.17578125 111.038085938 -131.358398438 111.038085938 -195.689453125 c 7
 111.038085938 -237.126953125 131.382696792 -273.168945312 153.763671875 -273.168945312 c 7
 176.472998327 -273.168945312 203.738146172 -264.435546875 231.71484375 -245.168945312 c 13
 231.71484375 -245.168945312 239.675383161 -255.497070312 241.602539062 -263.569335938 c 5
 210.590305623 -311.305664062 150.485633011 -346.888671875 102.823242188 -346.888671875 c 7
 65.6875597895 -346.888671875 30.4853515625 -298.078125 30.4853515625 -236.513671875 c 7
 30.4853515625 -152.803710938 66.1013258292 -47.5556640625 215.219726562 36.453125 c 5
 214.963867188 3.734375 l 5x84
EndSplineSet
Refer: 1280 73 N 1 0 0 1 0 0 3
EndChar
StartChar: iogonek
Encoding: 303 303 1363
Width: 281
Flags: HW
HStem: -326 60.1279<35.2128 131.946>
VStem: -18.21 75.3379<-257.722 -140.016>
LayerCount: 2
Fore
SplineSet
163.765625 12.9248046875 m 5
 71.0998407734 -74.3896484375 57.1279296875 -115.919921875 57.1279296875 -196 c 7
 57.1279296875 -239.865234375 75.9071483334 -265.872070312 99.6708984375 -265.872070312 c 7
 121.546086031 -265.872070312 147.811019334 -255.18359375 174.762695312 -231.599609375 c 5
 174.762695312 -231.599609375 182.722534958 -241.926757812 184.650390625 -250 c 5
 153.821028108 -302.788085938 101.87682463 -326 54.49609375 -326 c 7
 15.9295525406 -326 -18.2099609375 -288.154296875 -18.2099609375 -224.834960938 c 7
 -18.2099609375 -167.208984375 26.2986563075 -55.7324218748 153.576171875 34.1435546875 c 5
 163.765625 12.9248046875 l 5
EndSplineSet
Refer: 300 105 N 1 0 0 1 0 0 3
EndChar
StartChar: dotlessi
Encoding: 305 305 213
Width: 315
VWidth: 1159
Flags: HMW
HStem: 354 75<153 224>
VStem: 72 202
AnchorPoint: "Top" 218 465 basechar 0
LayerCount: 2
Back
SplineSet
255.725714523 104.705714108 m 1
 262.925714523 114.305714108 l 1
 273.683185044 106.237611217 l 1
 267.365412208 96.7881282198 l 2
 239.491065168 55.0965107436 180.34806411 -11 148 -11 c 0
 118.669596292 -11 111 23.7296420127 111 56 c 0
 111 102.49559357 130.496541025 152.751089452 145.768248679 203.013075051 c 0
 151.400778522 221.550761879 183.070330847 309.486362495 191.854089408 347.367811175 c 0
 194.577358154 359.112369557 198.020507812 377.915767605 198.020507812 386.711914062 c 0
 198.020507812 387.622894831 197.915012014 388.741823434 197.913971484 388.751489127 c 0
 197.013574104 388.899150693 195.74172255 389 194 389 c 0
 176.988533857 389 122.486449305 338.466919528 98.7925387509 300.985518405 c 1
 78.5060475413 313.809647007 l 1
 102.795883705 352.233742952 156.831523958 413 194 413 c 0
 208.047084758 413 222.020507812 404.892767943 222.020507812 386.711914062 c 0
 222.020507812 373.446281353 218.196788037 354.725025187 215.233801217 341.94664195 c 0
 205.870717178 301.566753884 173.500830178 212.018352955 169.089173196 197.344346824 c 0
 153.122787788 144.237126949 135 94.8643869291 135 56 c 0
 135 20.6818841671 144.693825871 13.1124129599 147.940482788 12.9980006432 c 0
 157.984709192 13.3528718522 214.24807835 63.1375623148 243.634459024 104.640740251 c 0
 244.212323101 105.456873272 255.725714523 104.705714108 255.725714523 104.705714108 c 1
EndSplineSet
Fore
SplineSet
169 197 m 0
 140 113 129.388888889 56.6830749512 138 27 c 1
 143.333333333 13.5 146 13.6666666667 152 16 c 1
 172.636363636 23.4994948815 228.090909091 77.8752525593 254 121 c 1
 274 106 l 1
 249.872340426 66.025390625 181.063829787 -11 148 -11 c 3
 122.141703288 -11 111 20.158203125 111 56 c 3
 111 102.108695652 129.808478498 152.600442935 145 200 c 0
 153.18839394 225.548872494 191.2718236 329.422684286 197 377 c 0
 197.806053669 383.694952673 197 388.368421053 193 389 c 1
 175.333864184 389 118.596153846 333 87 288 c 1
 72 305 l 1
 92.6970742715 342.451171875 155.585904508 413 193 413 c 3
 223 413 221.970596034 392.588344482 220 365 c 0
 219.5 358 216.573140565 346.862545262 215 341 c 0
 204.856896034 303.200195312 174.438552896 212.753049768 169 197 c 0
EndSplineSet
Substitution2: "case-1" I
Substitution2: "pcap-1" i.pcap
Substitution2: "smcp-1" i.smcp
EndChar
StartChar: uogonek
Encoding: 371 371 1207
Width: 492
VWidth: 1159
UnlinkRmOvrlpSave: 1
Flags: W
HStem: -298.658 60.1279<244.882 338.69> -18 56<314.047 406.116> -10 70<105.548 195.547> 341 75<146.547 205.547> 387 20G<458.047 465.547>
VStem: 190.759 76.1592<-232.294 -148.57>
LayerCount: 2
Fore
SplineSet
412.227539062 16.884765625 m 1x84
 302.58984375 -62.7666015625 266.91796875 -135.534179688 266.91796875 -188.48828125 c 3
 266.91796875 -220.349609375 284.577148438 -238.530273438 311.47265625 -238.530273438 c 3
 331.225585938 -238.530273438 357.213867188 -227.841796875 386.564453125 -204.2578125 c 9
 386.564453125 -204.2578125 395.477539062 -214.584960938 396.452148438 -222.658203125 c 1
 358.227539062 -275.446289062 307.796875 -298.658203125 266.296875 -298.658203125 c 3
 223.466796875 -298.658203125 190.758789062 -270.856445312 190.758789062 -223.041992188 c 3
 190.758789062 -153.641601562 262.6015625 -47.607421875 410.0390625 38.103515625 c 1
 412.227539062 16.884765625 l 1x84
EndSplineSet
Refer: 519 117 N 1 0 0 1 0 0 3
Substitution2: "smcp-1" uogonek.smcp
Substitution2: "case-1" Uogonek
Substitution2: "pcap-1" uogonek.pcap
EndChar
StartChar: uni021C
Encoding: 540 540 595
Width: 485
UnlinkRmOvrlpSave: 1
Flags: W
HStem: -175 35<-33.3418 39.0189> 261 33<107.412 149.186> 644 54<224.545 359.129>
LayerCount: 2
Fore
SplineSet
300.44921875 353 m 1
 362.038085938 337.3984375 445.365234375 244.3984375 425.512695312 151 c 0
 392.87109375 -2.5634765625 103.712890625 -161.83984375 -35.78125 -175 c 1
 -33.341796875 -140 l 1
 101.471679688 -128.6640625 303.3125 13.625 329.111328125 135 c 0
 346.7734375 218.091796875 279.763671875 292.672851562 211.946289062 313 c 1
 300.44921875 353 l 1
101.908203125 294 m 1
 231.776367188 330.731445312 364.83984375 406.58984375 392.133789062 535 c 0
 403.750976562 589.651367188 356.120117188 644 307.302734375 644 c 3
 242.334960938 644 155.530273438 595.852539062 109.8828125 515 c 1
 84.583984375 523 l 1
 103.573242188 570 117.100585938 596 139.08984375 643 c 1
 199.368164062 673.446289062 270.352539062 698 349.78125 698 c 3
 435.553710938 698 497.262695312 615.584960938 484.385742188 555 c 0
 453.762695312 410.931640625 246.314453125 285.915039062 108.893554688 261 c 1
 101.908203125 294 l 1
EndSplineSet
EndChar
StartChar: uni021D
Encoding: 541 541 596
Width: 342
UnlinkRmOvrlpSave: 1
Flags: W
HStem: -175 27.8545<-25.8799 26.0151> 122.159 22.4922<70.9533 101.697> 374 48<171.72 264.448>
LayerCount: 2
Fore
SplineSet
210.442382812 184.862304688 m 1
 255.474609375 175.697265625 315.358398438 106.369140625 306.817382812 66.1875 c 0
 282.668945312 -47.423828125 72.8291015625 -165.263671875 -28.1806640625 -175 c 1
 -25.8798828125 -147.145507812 l 1
 67.7646484375 -139.0078125 208.602539062 -36.8544921875 227.124023438 50.283203125 c 0
 234.5078125 85.0244140625 186.568359375 140.384765625 137.057617188 152 c 1
 210.442382812 184.862304688 l 1
67.2666015625 144.651367188 m 1
 155.408203125 167.703125 245.27734375 215.313476562 262.408203125 295.90625 c 0
 270.587890625 334.392578125 222.245117188 374 185.245117188 374 c 3
 163.245117188 374 150.849609375 367.434570312 146.71875 348 c 0
 146.008789062 344.661132812 146.98046875 337.622070312 147.530273438 333 c 1
 67.3662109375 304 l 1
 66.333984375 307.299804688 63.9306640625 316.0625 66.04296875 326 c 0
 76.6708984375 376 224.311523438 422 251.448242188 422 c 3
 277.448242188 422 351.00390625 366.014648438 341.762695312 322.538085938 c 0
 320.891601562 224.346679688 171.862304688 139.140625 72.619140625 122.159179688 c 1
 67.2666015625 144.651367188 l 1
EndSplineSet
EndChar
StartChar: uni0220
Encoding: 544 544 598
Width: 644
Flags: W
HStem: -247 34<332.222 394.792 520.613 564.448> -11 37<170.4 223.953> -9 42<-24.2321 45.897> 586.25 35.75<89.1719 143.098> 616.5 81.75<429.09 546.484>
AnchorPoint: "Top" 476.938 699 basechar 0
LayerCount: 2
Fore
SplineSet
575.0859375 -213 m 1x88
 575.0859375 -213 565.834960938 -233 563.859375 -247 c 1
 530.438476562 -239.607421875 495.375 -235.372070312 457.721679688 -235.372070312 c 0
 418.975585938 -235.372070312 377.486328125 -239.856445312 332.221679688 -250 c 1
 332.221679688 -250 331.110351562 -227 331.661132812 -215 c 1
 404.591796875 -200.154296875 416.068359375 -194.717773438 435.793945312 -128.75 c 0
 452.451171875 -73.044921875 483.956054688 52.66796875 495.080078125 105 c 0
 522.059570312 231.9296875 558.856445312 421.485351562 567.56640625 474.25 c 0
 581.272460938 557.28515625 566.294921875 616.5 482.202148438 616.5 c 3
 399.158203125 616.5 321.180664062 591.5 256.1171875 554 c 1
 222.514648438 394.240234375 176.459960938 171.71875 161.907226562 103.25 c 0
 146.594726562 31.212890625 180.036132812 38.583984375 234.887695312 26 c 1
 234.887695312 26 225.998046875 3 222.022460938 -11 c 1xc8
 172.243164062 -2.3984375 128.3125 2.4453125 85.4931640625 2.4453125 c 0
 48.66015625 2.4453125 12.650390625 -1.138671875 -25.552734375 -9 c 1
 -25.552734375 -9 -25.451171875 15 -23.625 33 c 1
 35.716796875 42.5517578125 67.427734375 52.6318359375 81.3671875 112 c 0
 95.345703125 171.532226562 119.319335938 286.786132812 132.383789062 348.25 c 0
 139.823242188 383.25 160.975585938 503.950195312 165.528320312 539 c 0
 172.615234375 593.5625 152.89453125 597 143.657226562 597 c 3
 131.9296875 597 107.34375 588 89.171875 586.25 c 1
 88.5712890625 622 l 1xb0
 136.731445312 631.827148438 188.0625 647.166015625 258.48828125 695 c 1
 268.48046875 692.419921875 272.947265625 686.638671875 274.454101562 678 c 0
 277.751953125 659.0859375 270.008789062 618.4140625 264.500976562 592.5 c 1
 347.865234375 640.010742188 439.616210938 698.25 535.778320312 698.25 c 3
 635.875 698.25 682.69921875 628.25 656.2890625 504 c 0
 634.310546875 400.599609375 607.133789062 287.799804688 583.158203125 175 c 0
 551.013671875 23.7734375 519.115234375 -122.018554688 515.2109375 -167.25 c 0
 511.662109375 -208.36328125 534.526367188 -210.256835938 575.0859375 -213 c 1x88
EndSplineSet
EndChar
StartChar: uni0222
Encoding: 546 546 599
Width: 618
UnlinkRmOvrlpSave: 1
Flags: W
HStem: -7 44.3418<175.065 344.614> 638.404 35.5957<275.662 335.071> 708.332 36.3232<392.885 427.399>
LayerCount: 2
Fore
SplineSet
335.071289062 638.404296875 m 1
 292.419921875 638.404296875 237.296875 603.439453125 231.141601562 574.482421875 c 0
 218.053710938 512.909179688 283.270507812 488.194335938 352.904296875 476 c 0
 484.282226562 452.993164062 578.072265625 350.3515625 553.8125 236.216796875 c 0
 522.737304688 90.01953125 383.426757812 -7 225.829101562 -7 c 3
 86.05859375 -7 -27.6005859375 69.6123046875 3.1142578125 214.11328125 c 0
 27.2890625 327.845703125 157.659179688 415.171875 267.637695312 442.397460938 c 1
 286.740234375 454.685546875 304.739257812 462.6796875 321.080078125 466 c 1
 398.900390625 471.92578125 457.993164062 527.274414062 469.006835938 579.088867188 c 0
 478.18359375 622.260742188 459.354492188 698.984375 377.1640625 708.33203125 c 1
 392.884765625 744.655273438 l 1
 485.16796875 741.612304688 580.493164062 700.469726562 558.92578125 599.005859375 c 0
 545.38671875 535.309570312 476.557617188 476.415039062 391.6171875 451.709960938 c 1
 371.263671875 438.538085938 350.629882812 429.381835938 330.228515625 425 c 1
 235.53125 415.849609375 124.264648438 336.8671875 105.921875 250.57421875 c 0
 83.4931640625 145.053710938 139.044921875 37.341796875 253.854492188 37.341796875 c 3
 396.993164062 37.341796875 439.177734375 158.228515625 450.20703125 210.11328125 c 0
 469.518554688 300.96875 415.765625 380.7109375 305.450195312 403.515625 c 0
 199.466796875 425.424804688 118.884765625 476.221679688 134.265625 548.581054688 c 0
 148.91015625 617.477539062 261.232421875 674 337.580078125 674 c 1
 335.071289062 638.404296875 l 1
EndSplineSet
Substitution2: "c2pc-1" uni0223.pcap
Substitution2: "c2sc-1" uni0223.smcp
EndChar
StartChar: gravecomb
Encoding: 768 768 284
Width: 0
VWidth: 1159
Flags: HW
HStem: 430.175 225.517
VStem: -103.898 25.0635<445.075 460.102>
AnchorPoint: "Top" -111 394 mark 0
AnchorPoint: "TopMark" -62.1523 625 basemark 0
AnchorPoint: "TopMark" -108.852 410 mark 0
LayerCount: 2
Back
SplineSet
-169 631 m 1
 -158.695032045 637.148791381 l 1
 -129.040364851 587.449529162 -98.1746199336 510.491374782 -83.4801640248 456.657981926 c 1
 -95.056640625 453.498046875 l 1
 -106.633117225 450.338111824 l 1
 -120.637690367 501.644107254 -151.376954361 578.045703713 -179.304967955 624.851208619 c 1
 -169 631 l 1
EndSplineSet
Fore
SplineSet
-81 450 m 1
 -101.8984375 432.174804688 l 1
 -125.862800392 518.878173667 -157.191636432 591.75687262 -186 635 c 1
 -177.838850681 640.765721332 -165 646 -165 646 c 1
 -132.4804191 596.700756583 -95.9630711094 507.878956327 -81 450 c 1
EndSplineSet
EndChar
StartChar: acutecomb
Encoding: 769 769 3
Width: 0
VWidth: 1159
Flags: HW
HStem: 427.951 225.517
VStem: -139.253 205.956
AnchorPoint: "Top" -124 394 mark 0
AnchorPoint: "TopMark" -130.34 403 mark 0
AnchorPoint: "TopMark" -60.0654 616 basemark 0
LayerCount: 2
Back
SplineSet
-121 449 m 1
 -130.715788138 456.042972445 l 1
 -90.5936359983 511.391524906 -24.4819459058 589.698923992 24.6213677826 637.590606624 c 1
 33 629 l 1
 41.3786322174 620.409393376 l 1
 -6.17584052683 574.028333824 -72.1690010679 495.916503337 -111.284211862 441.957027555 c 1
 -121 449 l 1
EndSplineSet
Fore
SplineSet
-137 447 m 1
 -95.7943282926 505.469557921 -20.5750620931 595.197703078 32 645 c 1
 32 645 45.0202066944 637.86234727 52 630 c 1
 3.10728891014 584.571400036 -59.4596584078 513.069200235 -119 431 c 1
 -137 447 l 1
EndSplineSet
EndChar
StartChar: uni0302
Encoding: 770 770 642
Width: 0
VWidth: 1159
Flags: HW
HStem: 422.6 184.801
VStem: -217.618 225.5
AnchorPoint: "Top" -115 389 mark 0
AnchorPoint: "TopMark" -72.7295 587 basemark 0
AnchorPoint: "TopMark" -125.878 384 mark 0
LayerCount: 2
Back
SplineSet
-198.542084045 440.798087833 m 1
 -207.87140977 448.345516634 l 1
 -82.7980757253 602.947819426 l 1
 -79.1959435783 607.400390625 l 1
 -73.46875 607.400390625 l 1
 -64.9443359375 607.400390625 l 1
 -56.6475818497 607.400390625 l 1
 -53.7175522362 599.638235328 l 1
 4.50205595124 445.404422121 l 1
 -6.72472775002 441.166577418 l 1
 -17.9515114513 436.928732716 l 1
 -71.4914193672 578.765210385 l 1
 -189.21275832 433.250659032 l 1
 -198.542084045 440.798087833 l 1
EndSplineSet
Fore
SplineSet
7.8818359375 435.799804688 m 1
 -13.7236328125 423.599609375 l 1
 -71 579 l 1
 -200.624023438 422.599609375 l 1
 -217.618164062 435.799804688 l 1
 -79.3427734375 607.400390625 l 1
 -56.443359375 607.400390625 l 1
 7.8818359375 435.799804688 l 1
EndSplineSet
EndChar
StartChar: hookabovecomb
Encoding: 777 777 297
Width: 0
VWidth: 1159
Flags: W
HStem: 632 25<-106.524 -55.0065>
VStem: -168.816 52.2148<592.646 627.834>
AnchorPoint: "Top" -118 444 mark 0
AnchorPoint: "TopMark" -83.6768 639 basemark 0
AnchorPoint: "TopMark" -126.912 445 mark 0
LayerCount: 2
Fore
SplineSet
-168.81640625 596 m 1
 -154.952148438 633 -112.622070312 657 -76.3505859375 657 c 3
 -33.837890625 657 -14.37109375 621.619140625 -20.029296875 595 c 0
 -33.265625 532.725585938 -93.5029296875 543.372070312 -99.533203125 515 c 0
 -102.83984375 499.4453125 -100.912109375 487.206054688 -95.97265625 480 c 9
 -122.5859375 463 l 1
 -130.640625 473.411132812 -143.587890625 495.922851562 -139.321289062 516 c 0
 -131.1015625 554.669921875 -78.3837890625 548.634765625 -73.6298828125 571 c 0
 -68.0078125 597.453125 -71.109375 632 -94.6640625 632 c 3
 -105.512695312 632 -112.6015625 609.034179688 -116.6015625 587.599609375 c 1
 -127.872070312 587.599609375 -157.923828125 587.599609375 -168.81640625 596 c 1
EndSplineSet
Validated: 33
EndChar
StartChar: uni0313
Encoding: 787 787 657
Width: 0
VWidth: 1159
Flags: W
HStem: 445.42 200.07
VStem: -235.496 131.47
AnchorPoint: "TopMark" -178 410 mark 0
AnchorPoint: "TopMark" -167 631 basemark 0
AnchorPoint: "Top" -203 414 mark 0
LayerCount: 2
Fore
SplineSet
-226.483398438 445.419921875 m 1
 -235.49609375 465.669921875 l 1
 -205.7421875 482.6796875 -167.435546875 512.650390625 -174.659179688 537.759765625 c 0
 -179.706054688 555.580078125 -194.672851562 567.73046875 -208.940429688 576.639648438 c 0
 -212.125 578.259765625 -213.545898438 583.9296875 -213.376953125 588.790039062 c 1
 -213.20703125 593.650390625 -209.015625 597.700195312 -204.909179688 599.3203125 c 0
 -187.587890625 608.23046875 -174.17578125 621.190429688 -162.241210938 638.200195312 c 0
 -160.48046875 642.25 -154.697265625 645.490234375 -149.836914062 645.490234375 c 3
 -144.9765625 645.490234375 -141.040039062 642.25 -140.37109375 638.200195312 c 0
 -133.67578125 621.190429688 -121.978515625 608.23046875 -107.708984375 599.3203125 c 0
 -104.526367188 597.700195312 -103.856445312 593.650390625 -104.026367188 588.790039062 c 1
 -104.196289062 583.9296875 -125.014648438 498.0703125 -226.483398438 445.419921875 c 1
EndSplineSet
Validated: 33
EndChar
StartChar: uni0314
Encoding: 788 788 658
Width: 0
VWidth: 1159
Flags: W
HStem: 440.2 201.6
VStem: -219.895 112.8
AnchorPoint: "TopMark" -231 409 mark 0
AnchorPoint: "TopMark" -227 631 basemark 0
AnchorPoint: "Top" -224 414 mark 0
LayerCount: 2
Fore
SplineSet
-143.16796875 440.200195312 m 5
 -228.399414062 492.200195312 -220.741210938 581 -219.89453125 585.799804688 c 4
 -219.048828125 590.599609375 -215.943359375 594.599609375 -211.661132812 596.200195312 c 4
 -193.309570312 605 -176.65234375 617.799804688 -164.889648438 634.599609375 c 4
 -162.583984375 638.599609375 -157.220703125 641.799804688 -152.419921875 641.799804688 c 7
 -147.620117188 641.799804688 -143.384765625 638.599609375 -142.490234375 634.599609375 c 4
 -136.65234375 617.799804688 -126.109375 605 -110.861328125 596.200195312 c 4
 -107.142578125 594.599609375 -106.248046875 590.599609375 -107.094726562 585.799804688 c 4
 -107.94140625 581 -110.529296875 575.400390625 -114.810546875 573.799804688 c 4
 -133.162109375 565 -152.877929688 553 -163.981445312 535.400390625 c 4
 -179.5546875 510.599609375 -151.079101562 477 -126.841796875 460.200195312 c 5
 -143.16796875 440.200195312 l 5
EndSplineSet
EndChar
StartChar: uni0315
Encoding: 789 789 659
Width: 0
VWidth: 1159
Flags: W
HStem: 450.494 206.751
VStem: -59.75 61<571.846 641.311>
AnchorPoint: "TopRight" -110.5 531 mark 0
LayerCount: 2
Fore
SplineSet
-59.75 657.245 m 13
 1.25 639.245 l 5
 -12.9151 577.095 -43.2689 501.134 -106 450.494 c 13
 -126 464.494 l 5
 -87.0294 521.86 -68.2984 587.855 -59.75 657.245 c 13
EndSplineSet
Validated: 1
EndChar
StartChar: Xi
Encoding: 926 926 1347
Width: 644
Flags: W
HStem: -12 21G<0.399414 1.20947 548.969 562.996> 0.760742 74.3242<63.9721 501.534> 323.5 61<210.721 501.187> 489 15G<98.0957 147.853 634.347 669.033> 608.915 74.3242<197.712 637.161> 676 20G<140.145 154.897 695.281 695.715>
VStem: 29.7295 41.0635<83.1133 209> 98.0957 42.1504<492.336 558.652> 131.926 25.7871<240.5 278.637> 178.476 25.4248<400.724 459.5> 505.288 23.4248<239.5 308.696> 546.838 22.7871<422.804 455.5> 574.518 42.1494<148.034 204.664> 627.971 41.0625<488 599.742>
AnchorPoint: "Top" 437.883 699 basechar 0
AnchorPoint: "Bottom" 280.117 -15 basechar 0
LayerCount: 2
Back
SplineSet
99.2158203125 495 m 5xfdf0
 121.833007812 574.702148438 134.9765625 630.799804688 147.552734375 698 c 5
 180.443359375 682 669.010742188 680 705.75 698 c 5
 687.05078125 624.162109375 673.19140625 548.845703125 670.15234375 490 c 5
 629.08984375 485 l 5
 641.84375 545 656.448242188 602 615.383789062 604 c 4
 496.279296875 614 291.934570312 613 194.958984375 602 c 4
 165.6875 598 156.578125 544 141.365234375 491 c 13
 99.2158203125 495 l 5xfdf0
617.361328125 204 m 5
 584.90625 119.194335938 569.120117188 59.50390625 558.26171875 -12 c 5
 524.850585938 4 29.275390625 6 -7.9365234375 -12 c 5
 11.744140625 66.453125 26.603515625 146.475585938 30.4248046875 209 c 5
 71.4873046875 214 l 5
 57.3408203125 147.4453125 40.9013671875 84.21875 90.4296875 82 c 4
 209.534179688 72 413.879882812 73 510.854492188 84 c 4
 547.8046875 88.46875 557.626953125 148.79296875 575.211914062 208 c 13
 617.361328125 204 l 5
570.744140625 457.5 m 5
 556.53125 400.310546875 536.21484375 302.48828125 529.83203125 241.5 c 13
 506.407226562 239.5 l 5
 511.061523438 312.422851562 502.66796875 311.208007812 476.19921875 318.5 c 4
 467.412109375 319.5 399.6875 325.5 350.6875 325.5 c 31
 295.6875 325.5 217.624023438 320.5 207.19921875 318.5 c 4
 177.92578125 311.900390625 169.314453125 281.099609375 158.83203125 241.5 c 13
 133.044921875 242.5 l 5xfbf0
 155.428710938 317.33203125 170.928710938 386.431640625 179.594726562 461.5 c 13
 205.01953125 463.5 l 5
 202.693359375 433.211914062 199.287109375 407.513671875 227.778320312 396.5 c 4
 235.928710938 392.5 257.653320312 386.5 363.653320312 386.5 c 7
 461.653320312 386.5 483.502929688 390.5 489.715820312 391.5 c 4
 522.991210938 397.5 530.140625 393.5 547.95703125 458.5 c 13
 570.744140625 457.5 l 5
EndSplineSet
Fore
SplineSet
98.095703125 493 m 1x3b7c
 120.713867188 572.702148438 133.856445312 628.799804688 146.43359375 696 c 1x377c
 163.361328125 687.765625 300.989257812 683.239257812 435.6015625 683.239257812 c 3x3b7c
 562.541992188 683.239257812 686.799804688 687.264648438 704.630859375 696 c 1x377c
 685.931640625 622.162109375 672.072265625 546.845703125 669.033203125 488 c 1
 627.970703125 483 l 1
 640.723632812 543 655.329101562 600 614.264648438 602 c 0
 558.958984375 606.643554688 485.2734375 608.915039062 412.493164062 608.915039062 c 3
 328.537109375 608.915039062 245.784179688 605.892578125 193.83984375 600 c 0
 164.568359375 596 155.458984375 542 140.24609375 489 c 9
 98.095703125 493 l 1x3b7c
616.666992188 204 m 1
 584.212890625 119.194335938 568.424804688 59.50390625 557.56640625 -12 c 1xb27c
 540.37109375 -3.765625 400.755859375 0.7607421875 264.21484375 0.7607421875 c 3x727c
 135.455078125 0.7607421875 9.4296875 -3.263671875 -8.630859375 -12 c 1xb27c
 11.0498046875 66.453125 25.91015625 146.475585938 29.7294921875 209 c 1
 70.79296875 214 l 1
 56.646484375 147.4453125 40.20703125 84.21875 89.7353515625 82 c 0
 145.041015625 77.3564453125 218.7265625 75.0849609375 291.506835938 75.0849609375 c 3x727c
 375.462890625 75.0849609375 458.215820312 78.107421875 510.16015625 84 c 0
 547.110351562 88.46875 556.932617188 148.79296875 574.517578125 208 c 9
 616.666992188 204 l 1
569.625 455.5 m 1
 555.412109375 398.310546875 535.095703125 300.48828125 528.712890625 239.5 c 9
 505.288085938 237.5 l 1
 509.942382812 310.422851562 501.548828125 309.208007812 475.080078125 316.5 c 0
 466.291992188 317.5 398.567382812 323.5 349.567382812 323.5 c 27
 294.567382812 323.5 216.504882812 318.5 206.080078125 316.5 c 0
 176.805664062 309.900390625 168.1953125 279.099609375 157.712890625 239.5 c 9
 131.92578125 240.5 l 1x32fc
 154.309570312 315.33203125 169.809570312 384.431640625 178.475585938 459.5 c 9
 203.900390625 461.5 l 1
 201.57421875 431.211914062 198.166992188 405.513671875 226.659179688 394.5 c 0
 234.80859375 390.5 256.533203125 384.5 362.533203125 384.5 c 3
 460.533203125 384.5 482.383789062 388.5 488.596679688 389.5 c 0
 521.872070312 395.5 529.021484375 391.5 546.837890625 456.5 c 9
 569.625 455.5 l 1
EndSplineSet
Position2: "cpsp-1" dx=0 dy=0 dh=50 dv=111
Substitution2: "c2pc-1" xi.pcap
Substitution2: "c2sc-1" xi.smcp
EndChar
StartChar: Upsilon
Encoding: 933 933 1341
Width: 689
VWidth: 1159
Flags: W
HStem: -11 43<159.015 252.228 381.443 458.021> 623.534 76.2021<165.626 255.232 610.098 722.622>
VStem: 345.573 45.7939<372.144 510.432>
AnchorPoint: "Top" 449.95 699 basechar 0
AnchorPoint: "Bottom" 297.715 -15 basechar 0
LayerCount: 2
Fore
SplineSet
439.34375 379 m 0
 427.653204306 349.252107584 417.911869938 316.516318219 409.782582469 283.000003762 c 0
 392.513785938 211.802322902 382.523082216 137.082120875 376.567382812 80 c 0
 372.497070312 40.98828125 391.446289062 36 471.525390625 32 c 1
 456.635742188 -11 l 1
 406.745117188 -5.4 360.145507812 -3 312.14453125 -3 c 0
 264.14453125 -3 214.745117187 -5.0625 159.254882812 -14 c 1
 156.915039062 28 l 1
 239.13671875 41.44 279.100977728 53.8154761969 290.16796875 100 c 0
 295.290004446 121.37516684 305.986491566 167.666013557 316.627573845 216.999997865 c 0
 331.068777423 283.952032635 345.426921358 356.508698222 345.573242188 380 c 0
 346.150390625 472.659179688 314.909179688 623.534179688 181.567382812 623.534179688 c 3
 163.80859375 623.534179688 143.671875 610.516601562 120.864257812 582 c 1
 104.89453125 611.370117188 l 1
 126.977539062 658.056640625 184.775390625 699.736328125 222.53515625 699.736328125 c 3
 410.221679688 699.736328125 386.870117188 498.013671875 391.3671875 371.123046875 c 1
 448.3125 498.013671875 514.650390625 699.736328125 677.814453125 699.736328125 c 3
 712.856445312 699.736328125 748.918945312 654.138671875 758.733398438 627.370117188 c 1
 729.252929688 598 l 1
 714.873046875 615.53125 699.608398438 623.534179688 683.7265625 623.534179688 c 3
 569.415039062 623.534179688 476.199773631 472.784247082 439.34375 379 c 0
EndSplineSet
Position2: "cpsp-1" dx=0 dy=0 dh=50 dv=100
Substitution2: "c2pc-1" upsilon.pcap
Substitution2: "c2sc-1" upsilon.smcp
EndChar
StartChar: Psi
Encoding: 936 936 1313
Width: 699
Flags: W
HStem: -10 40<151.002 264.451 366.66 460.338> -0.121257 30.1213<151.655 260.308> 320.818 31.1953<322.529 339.445> 637.704 34<776.136 787.543> 649 34<497.537 579.574> 652 43<327.213 392.107 496.691 579.574>
LayerCount: 2
Back
SplineSet
234 695 m 1
 283 686.6 321.5 683 360.75 683 c 0
 400 683 440 686.375 492 692 c 1
 494 649 l 1
 446 647 414.020863852 657.083748388 411 616 c 0
 406 548 400 461 399 351 c 1
 562 401 495 672 663 672 c 3
 700 672 715 656 724 638 c 1
 564 554 596 353 399 321 c 1
 399 246 398.132173205 160.9226225 403 66 c 0
 405 27 458 32 514 30 c 1
 513 -9 l 1
 461.492812273 -3.39030628718 404.264049355 -0.121256970764 349.006209155 -0.121256970764 c 0
 295.909427281 -0.121256970764 244.632422453 -3.13961017995 202 -10 c 1
 197 30 l 1
 259 30 316.79229808 26.9587564879 319 77 c 0
 322 145 323 233 323 321 c 1
 127 354 159 554 0 637 c 1
 9 655 24 671 61 671 c 3
 229 671 162 403 323 352 c 1
 323 454 322.159524169 552.085709967 317 614 c 0
 314 650 272 647 230 652 c 1
 234 695 l 1
EndSplineSet
Fore
SplineSet
329.3515625 695 m 1xa4
 376.182128906 684.5 413.713867188 683 452.942382812 683 c 0
 492.171875 683 533.096679688 684.5 586.713867188 692 c 1
 579.57421875 649 l 1x28
 531.009765625 647 502.223632812 656.947265625 489.559570312 616 c 0
 469.829101562 548.486328125 446.15234375 461.061523438 421.501953125 351.192382812 c 1
 595.28515625 400.744140625 585.399414062 671.704101562 753.775390625 671.704101562 c 3
 790.60546875 671.704101562 802.546875 655.91796875 807.547851562 637.704101562 c 1
 630.0859375 554.15234375 619.053710938 353.360351562 414.765625 320.90625 c 1
 398.5390625 245.981445312 381.625 161.252929688 364.653320312 66 c 0
 358.419921875 27 412.926757812 32 468.001953125 30 c 1xb0
 458.711914062 -9 l 1
 408.396985458 -3.39030628718 351.863196318 -0.121256970764 296.605395848 -0.121256970764 c 0x60
 243.508652151 -0.121256970764 191.590044396 -3.13961017995 147.499023438 -10 c 1
 151.001953125 30 l 1
 212.514648438 30 269.075195312 27.0634765625 282.9921875 77 c 0
 300.469726562 144.84765625 320.680664062 232.9921875 339.4453125 320.818359375 c 1
 150.973632812 354.014648438 224.4765625 553.758789062 83.0234375 637 c 1
 95.767578125 655.213867188 114.419921875 671 151.25 671 c 3
 319.13671875 671 195.659179688 402.770507812 346.041992188 352.013671875 c 1
 367.424804688 453.989257812 385.987304688 552.208984375 395.134765625 614 c 0
 399.65234375 650 356.690429688 647 316.211914062 652 c 1
 329.3515625 695 l 1xa4
EndSplineSet
Position2: "cpsp-1" dx=0 dy=0 dh=50 dv=100
Substitution2: "c2pc-1" psi.pcap
Substitution2: "c2sc-1" psi.smcp
EndChar
StartChar: alpha
Encoding: 945 945 145
Width: 538
VWidth: 1043
UnlinkRmOvrlpSave: 1
Flags: HMW
AnchorPoint: "Top" 319.387 465 basechar 0
AnchorPoint: "Bottom" 242 -15 basechar 0
LayerCount: 2
Fore
SplineSet
505.002929688 391 m 1
 435.0625 278.125976562 259.056640625 -10 137.056640625 -10 c 3
 45.056640625 -10 25.8212890625 76.2490234375 47.3486328125 187 c 0
 65.62109375 281 153.22265625 423 235.22265625 423 c 3
 303.22265625 423 315.311523438 336 322.87109375 272 c 0
 328.823242188 225.452148438 339.829101562 66 385.829101562 66 c 3
 413.829101562 66 434.666992188 96.03125 456.880859375 128 c 1
 480.770507812 112 l 1
 457.974609375 66.748046875 411.250976562 -9 366.250976562 -9 c 3
 312.250976562 -9 301.73828125 204.436523438 292.31640625 264 c 0
 285.120117188 299 265.283203125 341 220.283203125 341 c 3
 143.283203125 341 96.9833984375 252 83.5712890625 183 c 0
 72.669921875 126.916992188 81.8291015625 66 140.829101562 66 c 3
 226.829101562 66 376.233398438 315.017578125 426.751953125 400 c 1
 434.153320312 407.754882812 442.890625 411 451.890625 411 c 3
 471.890625 411 493.658203125 396.518554688 505.002929688 391 c 1
EndSplineSet
Substitution2: "pcap-1" a.pcap
Substitution2: "smcp-1" a.smcp
EndChar
StartChar: beta
Encoding: 946 946 168
Width: 531
VWidth: 1042
UnlinkRmOvrlpSave: 1
Flags: HMW
LayerCount: 2
Fore
SplineSet
-57.3212890625 -192 m 1
 -8.7509765625 -51.5732421875 29.6640625 89.421875 75.4521484375 244 c 0
 144.149414062 475.918945312 250.509765625 711 393.204101562 711 c 3
 475.087890625 711 513.981445312 637.831054688 498.463867188 558 c 24
 469.791015625 410.487304688 313.899414062 267 206.733398438 261 c 1
 186.31640625 264 172.981445312 288 174.063476562 309 c 1
 210.951171875 329 249.177734375 342 297.478515625 342 c 27
 409.732421875 342 487.76953125 256.040039062 465.991210938 144 c 24
 446.078125 41.556640625 336.412109375 -25 235.140625 -25 c 27
 143.899414062 -25 92.248046875 27 45.162109375 78 c 9
 49.0771484375 93 51.8271484375 102 55.7421875 117 c 1
 99.6630859375 60 142.772460938 9 229.749023438 9 c 27
 309.655273438 9 369.913085938 51 392.072265625 165 c 0
 407.134765625 242.48828125 362.865234375 295.234375 282.682617188 307.041992188 c 1
 264.063476562 309 l 1
 343.061523438 345 399.296875 433.670898438 418.215820312 531 c 24
 429.337890625 588.21875 431.161132812 654 361.125 654 c 3
 241.125 654 65.681640625 199 11.3466796875 -204 c 1
 -14.501953125 -202.762695312 -42.0517578125 -203.112304688 -57.3212890625 -192 c 1
EndSplineSet
Substitution2: "pcap-1" b.pcap
Substitution2: "smcp-1" b.smcp
EndChar
StartChar: gamma
Encoding: 947 947 278
Width: 451
VWidth: 1047
UnlinkRmOvrlpSave: 1
Flags: HMW
LayerCount: 2
Fore
SplineSet
89.0654296875 -154 m 1
 125.568359375 -73.810546875 199.0703125 63.9990234375 217.270507812 157.6328125 c 0
 236.830078125 258.258789062 201.515625 365 142.94921875 365 c 3
 118.818359375 365 99.4248046875 340.419921875 73.78515625 314.931640625 c 1
 53.103515625 321.307617188 22.0654296875 355.311523438 24.337890625 367 c 0
 25.3291015625 372.098632812 47.3466796875 418.5 99.62890625 418.5 c 3
 195.0859375 418.5 289.203125 286.581054688 256.43359375 118 c 0
 242.184570312 44.6953125 193.755859375 -65.763671875 151.22265625 -150 c 0
 131.592773438 -188.877929688 108.047851562 -224.568359375 90.6533203125 -248 c 1
 63.68359375 -264 -3.439453125 -290 -14.31640625 -264 c 1
 3.158203125 -226.60546875 30.7294921875 -188.197265625 58.150390625 -144.150390625 c 0
 222.588867188 120 362.75390625 266.103515625 408.279296875 364.040039062 c 0
 410.162109375 368.08984375 425.650390625 399.434570312 432.86328125 417 c 1
 451.604492188 414 478.033203125 406 484.224609375 392.139648438 c 1
 363.337890625 225.2734375 200.352539062 0.2412109375 89.0654296875 -154 c 1
EndSplineSet
Substitution2: "pcap-1" gamma.pcap
Substitution2: "smcp-1" gamma.smcp
EndChar
StartChar: delta
Encoding: 948 948 202
Width: 487
VWidth: 1039
UnlinkRmOvrlpSave: 1
Flags: HMW
LayerCount: 2
Fore
SplineSet
127.154296875 186 m 0
 112.96484375 113 142.025390625 31 215.025390625 31 c 3
 236.025390625 31 330.0234375 67 357.041992188 206 c 0
 397.66796875 415 52.1904296875 500 80.9580078125 648 c 0
 89.31640625 691 131.5625 754 228.5625 754 c 3
 331.5625 754 489.012695312 674 530.541992188 651 c 1
 524.098632812 623 480.766601562 611 448.599609375 605 c 1
 408.459960938 630 287.426757812 707 197.426757812 707 c 3
 161.426757812 707 132.344726562 686 126.319335938 655 c 0
 102.021484375 530 478.83203125 457 435.874023438 236 c 0
 408.854492188 97 288.250976562 -9 182.250976562 -9 c 3
 55.2509765625 -9 29.494140625 90 41.9345703125 154 c 0
 69.92578125 298 189.475585938 378 291.475585938 378 c 3
 324.475585938 378 345.7265625 369 377.559570312 363 c 1
 365.728515625 333 l 1
 346.478515625 342 322.227539062 351 291.227539062 351 c 3
 197.227539062 351 140.373046875 254 127.154296875 186 c 0
EndSplineSet
Substitution2: "pcap-1" delta.pcap
Substitution2: "smcp-1" delta.smcp
EndChar
StartChar: zeta
Encoding: 950 950 1242
Width: 419
UnlinkRmOvrlpSave: 1
Flags: HMW
LayerCount: 2
Fore
SplineSet
34.26953125 130 m 0
 91.611328125 425 346.173828125 752 635.5625 754 c 1
 635.78515625 750 634.813476562 745 633.841796875 740 c 0
 628.592773438 713 611.150390625 685 585.068359375 664 c 1
 552.736328125 652 515.569335938 646 473.569335938 646 c 3
 396.569335938 646 318.76171875 683 333.729492188 760 c 0
 340.920898438 797 366.55859375 826 433.947265625 828 c 1
 433.55859375 826 433.780273438 822 432.80859375 817 c 0
 429.50390625 800 420.8671875 771 416.33984375 758 c 1
 392.368164062 753 378.368164062 753 375.453125 738 c 0
 371.922851562 719.837890625 416.325195312 690.45703125 471.229492188 680.259765625 c 5
 479.80859375 678.666015625 488.645507812 677.541015625 497.595703125 677 c 1
 332.791992188 642 105.478515625 342 69.517578125 157 c 0
 53.578125 75 109.995117188 72 148.995117188 72 c 3
 184.995117188 72 204.55078125 80 240.55078125 80 c 3
 330.55078125 80 354.025390625 31 341.780273438 -32 c 0
 327.784179688 -104 258.122070312 -164 187.122070312 -164 c 3
 149.122070312 -164 123.42578125 -147 107.758789062 -135 c 1
 115.646484375 -115 147.19921875 -71 160.587890625 -69 c 1
 176.254882812 -81 203.869140625 -119 240.869140625 -119 c 3
 261.869140625 -119 289.951171875 -98 295.782226562 -68 c 0
 304.334960938 -24 264.805664062 -1 222.805664062 -1 c 3
 193.805664062 -1 168.4453125 -8 133.4453125 -8 c 3
 40.4453125 -8 20.080078125 57 34.26953125 130 c 0
EndSplineSet
Substitution2: "pcap-1" z.pcap
Substitution2: "smcp-1" z.smcp
EndChar
StartChar: theta
Encoding: 952 952 483
Width: 488
VWidth: 1039
UnlinkRmOvrlpSave: 1
Flags: HW
HStem: -11 44<153.141 251.211> 657 40<305.79 405.791>
AnchorPoint: "Bottom" 186.084 -15 basechar 0
LayerCount: 2
Fore
SplineSet
198.4140625 33 m 3
 309.4140625 33 391.377929688 300.327148438 417.166992188 433 c 0
 439.71484375 549 439.708007812 657 359.708007812 657 c 3
 259.708007812 657 178.192382812 464 138.150390625 258 c 0
 110.838867188 117.498046875 131.4140625 33 198.4140625 33 c 3
364.483398438 697 m 3
 485.483398438 697 523.157226562 577 489.334960938 403 c 0
 438.89453125 143.506835938 294.862304688 -11 184.862304688 -11 c 3
 72.8623046875 -11 31.412109375 115.298828125 64.5927734375 286 c 0
 101.9140625 478 222.483398438 697 364.483398438 697 c 3
EndSplineSet
Refer: 487 58113 N 0.297955 0.00520082 -0.0185432 1.06234 131.023 350.4 2
Position2: "cpsp-1" dx=0 dy=0 dh=50 dv=102
Substitution2: "pcap-1" theta.pcap
Substitution2: "smcp-1" theta.smcp
EndChar
StartChar: omega
Encoding: 969 969 366
Width: 697
VWidth: 1036
UnlinkRmOvrlpSave: 1
Flags: HMW
AnchorPoint: "Top" 410.872 465 basechar 0
AnchorPoint: "Bottom" 288.569 -15 basechar 0
LayerCount: 2
Fore
SplineSet
488.473632812 414 m 3
 576.564453125 414 662.150390625 324.881835938 642.15234375 222 c 0
 614.383789062 79.1435546875 507.95703125 -5 388.028320312 -5 c 3
 293.85546875 -5 267.435546875 84.552734375 285.599609375 178 c 0
 289.458984375 197.854492188 295.305664062 208.724609375 302.9296875 226 c 1
 334.107421875 242 349.97265625 242 378.040039062 242 c 1
 378.608398438 224.34765625 380.993164062 205.74609375 376.182617188 181 c 0
 354.34765625 68.6669921875 282.51953125 -5 192.028320312 -5 c 3
 84.8271484375 -5 20.58984375 54.4814453125 47.904296875 195 c 0
 69.470703125 305.951171875 180.288085938 414 277.473632812 414 c 3
 318.290039062 414 351.5859375 394 350.227539062 351 c 1
 342.416015625 340.650390625 311.358398438 331.450195312 287.756835938 328 c 1
 288.821289062 343.763671875 290.034179688 379 269.669921875 379 c 3
 211.262695312 379 141.508789062 275.28125 125.126953125 191 c 0
 110.873046875 117.670898438 129.608398438 36 207.998046875 36 c 3
 255.008789062 36 303.045898438 87.6923828125 316.325195312 120 c 1
 317.495117188 116.286132812 318.693359375 111.455078125 320.079101562 106 c 1
 326.749023438 79.7294921875 337.739257812 39 370.581054688 39 c 3
 486.690429688 39 545.310546875 119.921875 570.983398438 252 c 0
 582.362304688 310.5390625 552.446289062 374 509.698242188 374 c 3
 483.672851562 374 469.473632812 341.978515625 463.33984375 331 c 1
 448.34765625 330.72265625 407.9453125 335.520507812 405.227539062 351 c 1
 414.91796875 395.400390625 459.0078125 414 488.473632812 414 c 3
EndSplineSet
Substitution2: "pcap-1" omega.pcap
Substitution2: "smcp-1" omega.smcp
EndChar
StartChar: uni03DA
Encoding: 986 986 704
Width: 713
Flags: HMW
HStem: -155 81.374<176.012 254.388> 1 88<87.4411 267.498> 305 87<262.982 577.835> 313 87<142.413 495.765> 407 20G<598.5 605>
VStem: 3 48<123.998 252.639> 272 46<-78.3503 -4.99056> 579 24<396.958 424.797>
LayerCount: 2
Fore
SplineSet
58.9599609375 185 m 0xdf
 89.4052734375 341.626953125 215.083984375 544.809570312 354.173828125 642 c 0
 406.772460938 678.75390625 447.8125 689 554.927734375 689 c 3xdf
 654.58984375 689 668.623046875 681 788.373046875 681 c 3
 816.47265625 681 830.344726562 686 835.592773438 713 c 1
 844.787109375 714 850.981445312 715 860.176757812 716 c 1
 860.677734375 698 864.002929688 689.384765625 860.428710938 671 c 0
 855.54296875 645.861328125 793.3515625 578 685.3515625 578 c 3xef
 617.322265625 578 528.487304688 594 449.461914062 594 c 3
 246.3046875 594 145.650390625 358.318359375 122.45703125 239 c 0
 101.131835938 129.291992188 151.784179688 107 185.798828125 107 c 3
 215.190429688 107 232.966796875 112 262.770507812 112 c 3
 387.318359375 112 382.219726562 -4.0146484375 378.529296875 -23 c 0
 359.716796875 -119.784179688 266.420898438 -195 217.095703125 -195 c 3
 184.732421875 -195 169.341796875 -166.583007812 167.147460938 -133 c 1
 191.967773438 -105.038085938 219.49609375 -94.6259765625 245.797851562 -94.6259765625 c 3
 259.541015625 -94.6259765625 273.077148438 -97.1376953125 285.3671875 -101 c 1
 325.28515625 -85.76953125 334.450195312 -69.708984375 338.864257812 -47 c 0
 342.028320312 -30.720703125 337.884765625 19 264.693359375 19 c 3
 223.06640625 19 189.26953125 10.6728515625 164.07421875 10.6728515625 c 3
 125.038085938 10.6728515625 92.060546875 26.2529296875 79.462890625 43.5361328125 c 0
 56.0283203125 75.6875 45.8828125 117.723632812 58.9599609375 185 c 0xdf
EndSplineSet
Validated: 33
Position2: "cpsp-1" dx=0 dy=0 dh=50 dv=100
EndChar
StartChar: afii10145
Encoding: 1039 1039 89
Width: 775
VWidth: 0
UnlinkRmOvrlpSave: 1
Flags: HMW
HStem: 0.2854 38.1836<193.013 562.91> 659 37<200.031 263.721 493.498 562.141>
VStem: 87 105<44.4 137.74> 374 39<-240 -69.2166> 575 97<366.389 642.026>
LayerCount: 2
Fore
SplineSet
299 33 m 1
 482 33 l 1
 482 -2.99760216649e-15 l 17
 432.567164179 0 423.445628998 -54 413 -240 c 1
 374 -240 l 1
 361.5 -54 347.958333333 0 299 0 c 1
 299 33 l 1
EndSplineSet
Refer: 22 1055 S -1 0 0 -1 910 682 2
Position2: "cpsp-1" dx=0 dy=0 dh=50 dv=100
EndChar
StartChar: afii10048
Encoding: 1070 1070 37
Width: 1030
UnlinkRmOvrlpSave: 1
Flags: HW
HStem: -15 50<593.132 759.03> -2 40<8.59982 101.507 199.262 274.191> 7.12908 30.8709<8.59982 98.6742> 320 42<188 348> 652 31.4896<316.75 397.496> 656 43<141.397 212.437 316.99 397.496> 660 49<550.554 716.101>
VStem: 325 88.624<250.983 465.529> 887.44 95.5596<210.811 449.249>
LayerCount: 2
Fore
SplineSet
626.69140625 660 m 3x9380
 508.877632637 660 413.624023438 543 413.624023438 381 c 3
 413.624023438 201 533.940737711 35 676.973632812 35 c 3
 804.757112401 35 887.440429688 169 887.440429688 320 c 3
 887.440429688 500 769.683203535 660 626.69140625 660 c 3x9380
658.768554688 709 m 3
 838.22265625 709 983 543 983 340 c 3
 983 144 846.025390625 -15 660.501953125 -15 c 3
 474.978515625 -15 325 143 325 340 c 3
 325 537 476.712890625 709 658.768554688 709 c 3
EndSplineSet
Refer: 340 58114 N 0.16 0 0 0.913043 188 341 2
Refer: 1280 73 N 0.921136 0 0 1 2.83912 0 2
Position2: "cpsp-1" dx=0 dy=0 dh=50 dv=100
EndChar
StartChar: afii10086
Encoding: 1092 1092 68
Width: 766
Flags: W
HStem: -348 32<293.344 340.696> -342 34<436.751 514> -10 41<449.924 594.174> -5 49<200.359 301.298> 355 47<186.677 349.083 479.818 584.322> 649 32<294.25 336.705> 734 20G<420.5 462>
VStem: 64 64<129.107 267.488> 361 66<-179.537 7 65.9375 334.815 386 586.338> 657 66<112.646 268.802>
LayerCount: 2
Fore
SplineSet
524 355 m 3x2fc0
 477.621621622 355 449.972972973 336 425 321 c 1
 427 64 l 1
 456.672268908 46 489.941176471 31 534 31 c 3
 607.276595745 31 657 85 657 170 c 3
 657 262 604.152317881 355 524 355 c 3x2fc0
244 359 m 3
 189.832501688 359 128 299.839710385 128 226 c 3
 128 136 177.974683544 44 269 44 c 3x1fc0
 304.774509804 44 336.18627451 60 358 80 c 1
 359 154 362 231 362 306 c 0
 362 337 336.71643389 338.87962389 312 346 c 0
 290.43902439 352 252.292682927 359 244 359 c 3
427 355 m 1
 466.62745098 376 521.921568627 402 568 402 c 3
 654.907514451 402 723 300 723 208 c 3
 723 75 612.113924051 -10 504 -10 c 3
 477.275862069 -10 451.413793103 -2 429 7 c 1
 429 -75 429.065494455 -246.991208409 434 -284 c 0
 436 -299 454.976148957 -303.31100931 466 -304 c 0
 482 -305 501 -307 515 -308 c 1
 514 -342 l 1x6fc0
 475 -341 444 -339 402 -339 c 3
 372 -339 324 -344 294 -348 c 1
 291 -316 l 1x8fc0
 302 -315 310.181710014 -313.822162605 321 -311 c 0
 344 -305 349.496992263 -293.959523463 352 -266 c 0
 357 -210.148148148 361 -111.333333333 361 53 c 1
 320.487804878 23 268.006097561 -5 210 -5 c 3
 120.429447853 -5 64 79 64 172 c 3
 64 296.686117884 169.29057321 405 273 405 c 3
 296.4375 405 349.875 388 363 386 c 1
 363 504 361 562.992063992 361 626 c 0
 361 642 354 656 337 656 c 3
 331 656 306 650 296 649 c 1
 288 681 l 1
 340 692 399 720 442 754 c 1
 462 738 l 1
 456 724 449.456332062 696.948931314 448 686 c 0
 434.221721119 582.412752976 428.979703173 469.237100731 427 355 c 1
EndSplineSet
Validated: 1
EndChar
StartChar: afii10101
Encoding: 1108 1108 82
Width: 361
UnlinkRmOvrlpSave: 1
Flags: W
HStem: -15 53<144.163 231.423> 184.496 27.5508<83.1406 274.752> 359 63<206.808 298.778>
VStem: 37.8112 74.9532<71.9391 229.688>
LayerCount: 2
Fore
SplineSet
83.140625 212.046875 m 1
 159.1796875 213.502929688 279.396484375 219.407226562 324.140625 232 c 1
 327.140625 182 l 1
 303.921875 184.811523438 266.64453125 187.745117188 225.140625 187.745117188 c 3
 178.165039062 187.745117188 125.73828125 187.533203125 83.140625 184.49609375 c 1
 83.140625 212.046875 l 1
EndSplineSet
Refer: 177 99 N 1 0 0 1 0 0 2
EndChar
StartChar: uni059A
Encoding: 1434 1434 738
Width: 0
Flags: W
HStem: -210 185
VStem: 410 153
LayerCount: 2
Fore
SplineSet
410 -102 m 1
 546 -25 l 1
 563 -59 l 1
 452.190429688 -113.494140625 l 1
 565 -176 l 1
 548 -210 l 1
 410 -125 l 1
 410 -102 l 1
EndSplineSet
Validated: 1
EndChar
StartChar: uni05AA
Encoding: 1450 1450 754
Width: 0
Flags: W
HStem: -171 34<232.879 287.121>
VStem: 172 44<-125.562 -52> 304 44<-125.562 -52>
LayerCount: 2
Fore
SplineSet
260 -137 m 3
 290.4609375 -137 306 -92 304 -49 c 9
 348 -52 l 1
 347.438476562 -117.940429688 304.048828125 -171 260 -171 c 3
 215.951171875 -171 172.561523438 -117.940429688 172 -52 c 9
 216 -49 l 17
 214 -92 229.5390625 -137 260 -137 c 3
EndSplineSet
Validated: 33
EndChar
StartChar: afii57842
Encoding: 1472 1472 141
Width: 172
Flags: W
VStem: 54.3398 130.272
LayerCount: 2
Fore
SplineSet
86.33984375 -149 m 5
 54.33984375 -149 l 5
 152.612304688 786 l 5
 184.612304688 786 l 5
 86.33984375 -149 l 5
EndSplineSet
Validated: 1
EndChar
StartChar: afii57665
Encoding: 1489 1489 96
Width: 448
UnlinkRmOvrlpSave: 1
Flags: W
HStem: -10.4404 21G<397.263 413.542> 0.206055 124.429<85.9199 375.085>
LayerCount: 2
Fore
SplineSet
215.265625 570.719726562 m 1x40
 227.204101562 568.814453125 299.270370808 562.512460615 318.9921875 551 c 0
 384.045898438 513.025390625 407.120057438 318.485672746 361.46484375 138.280273438 c 0
 357.074498966 120.951171875 394.79679288 124.9375 413.559570312 120.639648438 c 1
 377.541992188 -0.4404296875 l 1x80
 355.025799588 -0.0456128677651 350.820212549 0.199459328367 316.78125 0.2060546875 c 0
 210.939453125 0.2265625 85.7998046875 0 85.7998046875 0 c 1
 32.443359375 -0.0400390625 l 1
 17.21875 9.240234375 l 1
 46.0205078125 117.719726562 l 1
 69.5092555187 127 47.0526511608 124.763671875 322.762695312 124.634765625 c 5
 354.3678664 284 353.087409654 409.745431786 283.1796875 431.759765625 c 0
 222.234375 453.7265625 144.094726562 436.252929688 114.391601562 460.440429688 c 1
 159.916992188 583.040039062 l 1
 178.306640625 577.240234375 l 1
 215.265625 570.719726562 l 1x40
EndSplineSet
Validated: 33
EndChar
StartChar: afii57669
Encoding: 1493 1493 100
Width: 264
UnlinkRmOvrlpSave: 1
Flags: W
HStem: 405.24 21G<172.306 185.133>
VStem: 140.36 21.1592<-8.30522 1.9646> 167.04 36.2002<219.702 423.349>
LayerCount: 2
Fore
SplineSet
215.364257812 597.6796875 m 1
 222.227539062 595.360351562 229.212890625 594.200195312 236.075195312 591.879882812 c 1
 240.190213484 584.474102185 243.091796875 577.067382812 244.265625 570.719726562 c 1
 246.25390625 562.951171875 249.004882812 546.13671875 249.763671875 533.599609375 c 1
 251.37109375 514 250.941340782 480 248.666015625 449.3203125 c 1
 219.672851562 402.240234375 l 1
 216.131835938 402.3203125 213.478515625 402.400390625 209.93359375 402.440429688 c 1
 186.465886326 414.734365648 160.657044842 440.268682603 152.482421875 468.639648438 c 1
 165.961543038 508.76171875 184.443596645 548.883789062 215.364257812 597.6796875 c 1
241.1953125 504.599609375 m 1
 253.715820312 480.240234375 248.46875 452.400390625 245.180664062 399.040039062 c 1
 242.8125 321.3203125 237.330024753 247.079981093 230.501953125 182.120117188 c 0
 225.958007812 138.890625 220.506835938 98.0625 215.813476562 64.4404296875 c 1
 194.709848927 37.017578125 171.243592486 8.5390625 153.8671875 -15.7197265625 c 1
 133.873046875 -4.6396484375 l 1
 155.876021293 156.599609375 201.362532585 308.559570312 206.296875 421.080078125 c 1
 216.126024025 469.799804688 218.913020357 498.799804688 241.1953125 504.599609375 c 1
EndSplineSet
Validated: 37
EndChar
StartChar: afii57671
Encoding: 1495 1495 102
Width: 493
UnlinkRmOvrlpSave: 1
Flags: W
HStem: 448.52 122.001<111.234 386.446>
VStem: 53.3604 46.707<190.728 447.698> 368.96 16.1602<-9.8723 -3.06232> 391 48.96<228.661 395.399>
LayerCount: 2
Fore
SplineSet
151.82421875 448.51953125 m 1
 147.259765625 430.956054688 143.718309728 415.315475968 142.51953125 403.909179688 c 0
 130.224609375 286.923828125 130.46875 156.482421875 127.098632812 57.6396484375 c 1
 68.53515625 -18.8798828125 l 1
 53.666015625 -8.1201171875 l 1
 103.15234375 482.280273438 l 1
 114.92578125 592.280273438 l 1
 209.686523438 591.444335938 96.1136040892 570.520507812 261.544921875 570.520507812 c 3
 335.112937424 570.520507812 394.294946864 539 419 511 c 1
 447 479 454.367987393 451.146519527 452.780273438 399.040039062 c 0
 450.412109375 321.3203125 444.928422809 247.080108406 438.1015625 182.120117188 c 0
 433.712890625 140.360351562 428.407226562 100.919921875 423.833007812 68.4404296875 c 1
 403.573903091 39.306640625 381.037857532 9.0517578125 364.36328125 -16.7197265625 c 5
 347.47265625 -4.6396484375 l 1
 379.015625 163.038085938 422.577181208 310 373 389 c 1
 340.567746931 434 275.703240792 448.51953125 182.1015625 448.51953125 c 2
 151.82421875 448.51953125 l 1
EndSplineSet
Validated: 33
EndChar
StartChar: afii57674
Encoding: 1498 1498 105
Width: 485
UnlinkRmOvrlpSave: 1
Flags: W
HStem: 443.52 127.001<83.0219 372.952>
VStem: 356.36 67.5195<-184.665 -2.11908> 356.36 16.8398<-233.16 -226.355> 377.24 38.5195<232.44 433.451>
LayerCount: 2
Fore
SplineSet
248.146484375 570.520507812 m 7xb0
 330.592773438 570.520507812 383 552 417 520 c 5
 447 492 454.904296875 400.200195312 451.736328125 348 c 5xb0
 447.881835938 252.080078125 439.242258853 146.16014875 428.025390625 39.4404296875 c 4xc0
 420.709960938 -30.16015625 412.84375 -93.9599609375 406.075195312 -147.3203125 c 5
 385.744140625 -180.724609375 364.361328125 -214.12890625 347.651367188 -243.080078125 c 5
 331.854492188 -233.16015625 l 5
 372.219726562 18.4521484375 446 313 375.794921875 395.120117188 c 5
 349.941436363 428 257.95129322 443.51953125 216.49609375 443.51953125 c 7
 186.777100893 443.51953125 141.779232372 443.993271776 129.28125 446.440429688 c 5
 156.59765625 570.040039062 l 5
 173.147460938 570.240234375 l 5
 194.36319684 570.555838632 185.988528554 570.520507812 248.146484375 570.520507812 c 7xb0
EndSplineSet
Validated: 33
EndChar
StartChar: afii57675
Encoding: 1499 1499 106
Width: 469
UnlinkRmOvrlpSave: 1
Flags: W
HStem: -3 123.721<66.2568 105.23 105.274 310.447> 447.32 122.92<156.507 321.444>
VStem: 405 44<165.001 383.381>
LayerCount: 2
Back
SplineSet
248.146484375 570.520507812 m 7xb0
 330.592773438 570.520507812 383 552 417 520 c 5
 447 492 454.904296875 400.200195312 451.736328125 348 c 5xb0
 447.881835938 252.080078125 439.242258853 146.16014875 428.025390625 39.4404296875 c 4xc0
 420.709960938 -30.16015625 412.84375 -93.9599609375 406.075195312 -147.3203125 c 5
 385.744140625 -180.724609375 364.361328125 -214.12890625 347.651367188 -243.080078125 c 5
 331.854492188 -233.16015625 l 5
 372.219726562 18.4521484375 446 313 375.794921875 395.120117188 c 5
 349.941436363 428 257.95129322 443.51953125 216.49609375 443.51953125 c 7
 186.777100893 443.51953125 141.779232372 443.993271776 129.28125 446.440429688 c 5
 156.59765625 570.040039062 l 5
 173.147460938 570.240234375 l 5
 194.36319684 570.555838632 185.988528554 570.520507812 248.146484375 570.520507812 c 7xb0
EndSplineSet
Fore
SplineSet
418 519 m 4
 431.193769066 505.998027042 445.889492994 464.305115751 450.182617188 424.559570312 c 4
 452.375412638 404.258771343 452.728708769 334.945486213 449 290 c 4
 440.548959433 188.822624544 424.144097378 -3 202 -3 c 7
 164.538629691 -3 105.23046875 -2.7998046875 105.23046875 -2.7998046875 c 5
 50.4697265625 -3.16015625 l 5
 35.9638671875 4.9599609375 l 5
 66.2568359375 116.599609375 l 5
 102.996171386 120.602881657 133.007518318 120.720703125 268.083984375 120.720703125 c 7
 396.002030273 120.720703125 399 173 405 281 c 4
 405.703188679 293.657396215 402.950993407 325.823124538 401.11328125 337.599609375 c 4
 396.341258219 368.179837439 375.859499355 396.950582063 363 407 c 4
 336.817451967 427.461089549 268.104918605 441.437805664 210.5078125 442.6796875 c 4
 174.710486205 443.45153269 138.082416233 445.303988155 129.948242188 447.3203125 c 5
 156.506835938 570.240234375 l 5
 197.315429688 569.879882812 l 5
 229.112304688 570.360351562 l 5
 352.361473558 568.505438598 387.757091603 548.803271165 418 519 c 4
EndSplineSet
EndChar
StartChar: afii57678
Encoding: 1502 1502 109
Width: 580
UnlinkRmOvrlpSave: 1
Flags: W
HStem: 0 118.72<102.49 368.703> 457.193 119.326<355.42 420.177>
VStem: 169.372 90.8799<428.994 539.784>
LayerCount: 2
Back
SplineSet
447.904296875 556.6796875 m 4x70
 465.346679688 534.622070312 492.523171315 452.419012918 487.5390625 343 c 4
 483.920898438 263.568359375 415.731445312 0 412 0 c 4
 141.633789062 0.3203125 l 5
 96.884765625 -0.0400390625 l 5
 81.2548828125 8.080078125 l 5
 102.490234375 116.719726562 l 5
 159.047851562 118.545898438 200.15234375 118.719726562 406.291992188 118.719726562 c 7x70
 420.405273438 118.719726562 442.789802061 264.545989746 445.049804688 358.799804688 c 4
 445.540039062 379.245117188 439.637722768 407.001264858 425.536132812 429.080078125 c 4
 414.729492188 446 391.106445312 457.193359375 365.9375 457.193359375 c 7
 349.549804688 457.193359375 332.919137291 455.938424604 325.2734375 453 c 4
 298.735351562 442.80078125 262.325580282 410.051991088 247.873046875 389.490234375 c 4
 243.375 383.090820312 235.26953125 380.20703125 228.051757812 319.608398438 c 5
 138.735351562 243.245117188 l 5xb0
 128.938476562 255.9140625 l 5
 135.555664062 296.669921875 136.923933793 312.222638432 137.915039062 318.100585938 c 4
 139.422851562 327.04296875 138.521038033 334.965943321 140.162109375 341.536132812 c 4
 151.833984375 388.265625 164.599245438 472.395562334 165.870117188 492.981445312 c 4
 166.313476562 500.163085938 169.499781592 509.74902011 169.372070312 518.137695312 c 4
 169.263671875 525.2578125 215.1953125 560.33203125 245.642578125 578.576171875 c 5
 260.251953125 569.9765625 l 5
 257.228515625 522.947265625 249.228515625 477.140625 238.5390625 426.629882812 c 5
 292.629882812 482.716796875 355.284179688 564.79296875 380.814453125 573.040039062 c 5
 385.2734375 574.610351562 400.71875 576.51953125 407.678710938 576.51953125 c 7
 418.58984375 576.51953125 439.632033984 567.140781611 447.904296875 556.6796875 c 4x70
EndSplineSet
Fore
SplineSet
447.904296875 556.6796875 m 0
 465.346679688 534.622070312 493.288505465 452.003721059 487.5390625 343 c 0
 483.334931395 263.293855064 415 0 324 0 c 0
 141.633789062 0.3203125 l 1
 96.884765625 -0.0400390625 l 1
 81.2548828125 8.080078125 l 1
 102.490234375 116.719726562 l 1
 142.665226431 118.545898438 171.863285494 118.719726562 318.291992188 118.719726562 c 3
 425.064813153 118.719726562 442.787980212 264.470009213 445.049804688 358.799804688 c 0
 445.540039062 379.245117188 439.637722768 407.001264858 425.536132812 429.080078125 c 0
 414.729492188 446 391.106445312 457.193359375 365.9375 457.193359375 c 3
 349.549804688 457.193359375 332.919137291 455.938424604 325.2734375 453 c 0
 298.735351562 442.80078125 262.325580282 410.051991088 247.873046875 389.490234375 c 0
 243.375 383.090820312 235.26953125 380.20703125 228.051757812 319.608398438 c 1
 138.735351562 243.245117188 l 1
 128.938476562 255.9140625 l 1
 135.555664062 296.669921875 136.503934119 312.309097409 137.915039062 318.100585938 c 0
 140.136833785 327.219325627 140.995318014 334.513375766 142.162109375 341.536132812 c 0
 149.925950187 388.265625 163.650857666 472.398543699 165.870117188 492.981445312 c 0
 166.641449193 500.135295782 169.499781592 509.74902011 169.372070312 518.137695312 c 0
 169.263671875 525.2578125 215.1953125 560.33203125 245.642578125 578.576171875 c 1
 260.251953125 569.9765625 l 1
 257.228515625 522.947265625 249.228515625 477.140625 238.5390625 426.629882812 c 1
 292.629882812 482.716796875 355.284179688 564.79296875 380.814453125 573.040039062 c 1
 385.2734375 574.610351562 400.71875 576.51953125 407.678710938 576.51953125 c 3
 418.58984375 576.51953125 439.632033984 567.140781611 447.904296875 556.6796875 c 0
EndSplineSet
EndChar
StartChar: afii57683
Encoding: 1507 1507 114
Width: 482
UnlinkRmOvrlpSave: 1
Flags: W
HStem: 228.56 89.4004<184.351 225.818> 443.52 127.001<210.32 338.706> 457.92 20G<182.253 211.249>
VStem: 338.854 15.7969<-237.556 -230.614>
LayerCount: 2
Fore
SplineSet
255.146484375 570.520507812 m 3xd0
 337.592773438 570.520507812 390 552 424 520 c 1
 454 492 461.904296875 400.200195312 458.736328125 348 c 1
 454.881835938 252.080078125 446.242258852 146.16014875 435.025390625 39.4404296875 c 0
 427.709960938 -30.16015625 419.84375 -93.9599609375 413.075195312 -147.3203125 c 1
 392.744140625 -180.724609375 371.361328125 -214.12890625 354.651367188 -243.080078125 c 1
 338.854492188 -233.16015625 l 1
 379.219726562 18.4521484373 453.000000001 313 382.794921875 395.120117188 c 1
 356.941436363 428 264.95129322 443.51953125 223.49609375 443.51953125 c 3
 205.022053267 443.51953125 177.050296327 443.993271776 169.28125 446.440429688 c 1
 196.59765625 570.040039062 l 1
 213.147460938 570.240234375 l 1
 225.028151493 570.555838633 220.338385233 570.520507812 255.146484375 570.520507812 c 3xd0
211.249023438 464 m 1
 177.390625 417.779296875 164.299804688 370.484375 150.079101562 312.440429688 c 1
 149.908203125 362.200195312 l 1
 173.422851562 341.782226562 205.428710938 327.03515625 247.899414062 317.959960938 c 1
 223.942382812 228.559570312 l 1
 122.451171875 245.959960938 l 1
 115.602539062 291.186523438 109.809570312 336.413085938 116.671875 381.639648438 c 1
 141.696289062 424.559570312 168.994140625 450.080078125 195.51171875 477.919921875 c 1xb0
 211.249023438 464 l 1
167.395507812 256.080078125 m 1
 93.8310546875 229.400390625 l 1
 85.12890625 247.080078125 l 1
 135.915039062 310.879882812 l 1
 167.395507812 256.080078125 l 1
EndSplineSet
EndChar
StartChar: afii57684
Encoding: 1508 1508 115
Width: 481
UnlinkRmOvrlpSave: 1
Flags: W
HStem: -3 123.721<53.2568 328.895> 228.56 89.4004<187.351 228.818> 442.68 127.681<213.97 350.066> 457.92 20G<185.253 214.249>
VStem: 420 44<165.001 383.381>
LayerCount: 2
Back
SplineSet
433 519 m 4
 446.193769066 505.998027042 460.889492994 464.305115751 465.182617188 424.559570312 c 4
 467.375412637 404.258771343 467.728708767 334.945486213 464 290 c 4
 455.548959433 188.822624544 439.144097378 -3 217 -3 c 7
 179.538629691 -3 120.23046875 -2.7998046875 120.23046875 -2.7998046875 c 5
 65.4697265625 -3.16015625 l 5
 50.9638671875 4.9599609375 l 5
 81.2568359375 116.599609375 l 5
 117.996171386 120.602881657 148.007518318 120.720703125 283.083984375 120.720703125 c 7
 411.002030273 120.720703125 414 173 420 281 c 4
 420.703188679 293.657396215 417.950993407 325.823124538 416.11328125 337.599609375 c 4
 411.341258219 368.179837439 390.859499355 396.950582063 378 407 c 4
 351.817451967 427.461089549 283.104918605 441.437805664 225.5078125 442.6796875 c 4
 189.710486205 443.45153269 153.082416233 445.303988155 144.948242188 447.3203125 c 5
 171.506835938 570.240234375 l 5
 212.315429688 569.879882812 l 5
 244.112304688 570.360351562 l 5
 367.361473558 568.505438598 402.757091603 548.803271165 433 519 c 4
EndSplineSet
Fore
SplineSet
433 519 m 0xe8
 446.193769066 505.998027042 460.889492996 464.305115752 465.182617188 424.559570312 c 0
 467.375412637 404.258771343 467.753984958 334.943382126 464 290 c 0
 455.548959433 188.822624544 440.00896843 -3 217 -3 c 3
 168.69928434 -3 92.23046875 -2.7998046875 92.23046875 -2.7998046875 c 1
 37.4697265625 -3.16015625 l 1
 22.9638671875 4.9599609375 l 1
 53.2568359375 116.599609375 l 1
 95.0931139952 120.602881657 129.268012365 120.720703125 283.083984375 120.720703125 c 3
 410.208581464 120.720703125 415 172 420 281 c 0
 420.580898982 293.663597816 417.950993407 325.823124538 416.11328125 337.599609375 c 0
 411.341258219 368.179837439 390.859499355 396.950582063 378 407 c 0
 351.817451967 427.461089549 283.090171639 440.879460262 225.5078125 442.6796875 c 0
 200.819447609 443.45153269 175.558143197 445.303988155 169.948242188 447.3203125 c 1
 196.506835938 570.240234375 l 1
 212.315429688 569.879882812 l 1
 244.112304688 570.360351562 l 1
 367.361473558 568.505438598 402.757091602 548.803271165 433 519 c 0xe8
214.249023438 464 m 1
 180.390625 417.779296875 167.299804688 370.484375 153.079101562 312.440429688 c 1
 152.908203125 362.200195312 l 1
 176.422851562 341.782226562 208.428710938 327.03515625 250.899414062 317.959960938 c 1
 226.942382812 228.559570312 l 1
 125.451171875 245.959960938 l 1
 118.602539062 291.186523438 112.809570312 336.413085938 119.671875 381.639648438 c 1
 144.696289062 424.559570312 171.994140625 450.080078125 198.51171875 477.919921875 c 1xd8
 214.249023438 464 l 1
170.395507812 256.080078125 m 1
 96.8310546875 229.400390625 l 1
 88.12890625 247.080078125 l 1
 138.915039062 310.879882812 l 1
 170.395507812 256.080078125 l 1
EndSplineSet
EndChar
StartChar: afii57685
Encoding: 1509 1509 116
Width: 471
UnlinkRmOvrlpSave: 1
Flags: W
HStem: 420.84 21G<129.336 159.253>
VStem: 99.7598 17<-237.386 -229.832> 122.96 44.6396<-150 358.08> 303.84 18.3203<579.915 596.24>
LayerCount: 2
Fore
SplineSet
155.791015625 139.200195312 m 1
 245.344726562 237.07421875 321.934570312 351.44140625 354.193359375 479.080078125 c 1
 366.506835938 596.240234375 l 1
 385.071289062 598.559570312 l 1
 388.59765625 547.149414062 478.248046875 550.577148438 505.466796875 533.440429688 c 1
 483.364257812 438.080078125 l 1
 455.220703125 424.16015625 l 1
 393.737304688 446.200195312 l 1
 326.1015625 307.353515625 260.821289062 207.676757812 162.634765625 117.16015625 c 1
 155.791015625 139.200195312 l 1
212.044921875 460.16015625 m 1
 216.857421875 452.546875 222.373046875 444.932617188 226.483398438 437.3203125 c 1
 213.986328125 413.008789062 203.435546875 389.204101562 195.725585938 365.400390625 c 1
 190.80078125 162.05859375 171.333984375 -23.1630859375 151.833984375 -150 c 1
 130.731445312 -182.52734375 108.392578125 -216.305664062 91.0009765625 -245.080078125 c 1
 75.3759765625 -232 l 1
 109.670898438 -16.072265625 143.18359375 192.41015625 160.595703125 358.080078125 c 1
 177.182617188 394.829101562 195.88671875 427.494140625 212.044921875 460.16015625 c 1
101.498046875 590.440429688 m 1
 108.0625 588.453125 114.626953125 586.466796875 121.19140625 584.48046875 c 1
 125.100585938 577.51953125 131.328125 570.559570312 135.358398438 564.759765625 c 1
 182.9375 553.993164062 231.436523438 542.329101562 258.768554688 512.719726562 c 1
 226.483398438 437.3203125 l 1
 217.977539062 437.3203125 209.470703125 437.3203125 199.232421875 420.83984375 c 1
 148.822265625 429.5703125 96.2353515625 435.681640625 75.68359375 466.240234375 c 1
 72.80078125 475.666992188 72.3134765625 486.524414062 73.55859375 498.37890625 c 0
 76.4169921875 525.5703125 88.39453125 558.005859375 101.498046875 590.440429688 c 1
EndSplineSet
Validated: 37
EndChar
StartChar: afii57688
Encoding: 1512 1512 119
Width: 494
UnlinkRmOvrlpSave: 1
Flags: W
HStem: -11.7197 21G<383.713 405.703> 440.2 127.04<115.277 370.905>
VStem: 383.713 14.2959<-8.10642 -0.72677>
LayerCount: 2
Fore
SplineSet
166.258789062 567.240234375 m 1
 317.08984375 566.080078125 381.848595219 562.380029207 413.780273438 544.040039062 c 0
 440.036132812 528.959960938 501.4147536 417.599650916 467.991210938 187.919921875 c 0
 462.087890625 147.353515625 458.541015625 109.040039062 452.928710938 77.7197265625 c 1
 434.1875 46.841796875 413.396484375 14.8994140625 398.008789062 -11.7197265625 c 1
 383.712890625 -4.6396484375 l 1
 398.494140625 78.9248046875 414.52415507 156.77336208 421.592773438 224.030273438 c 0
 431.122070312 314.700195312 431.286429751 385.517591124 370.912109375 419.3203125 c 0
 345.954101562 433.293945312 277.44140625 440.200195312 176.826171875 440.200195312 c 3
 139.830883263 440.200195312 84.2180103373 441.0700438 68.751953125 444.440429688 c 1
 115.27734375 567.040039062 l 1
 136.666992188 567.240234375 l 1
 166.258789062 567.240234375 l 1
EndSplineSet
EndChar
StartChar: uni1E9E
Encoding: 7838 7838 770
Width: 862
Flags: W
HStem: -15 43<-15.623 -0.0498314 231.204 254.874 485.127 655.587> -9 21G<347.938 387.063> 691 41<426.54 639.205>
VStem: 347.938 31.1494<-5.89889 13.1769> 361.173 35.2754<107.473 189>
LayerCount: 2
Fore
SplineSet
656.7734375 662.286132812 m 5xa8
 616.641601562 684.631835938 566.751953125 691 531.876953125 691 c 7
 456.75390625 691 394.379882812 665.109375 346.276367188 620 c 4
 295.958984375 572.815429688 261.256835938 504.602539062 243.911132812 423 c 4
 237.109375 391 182.405273438 96 180.91796875 89 c 4
 170.2265625 34 199.801757812 32 266.526367188 26 c 5
 254.874023438 -10 l 5
 175.362304688 -3 42.3623046875 -3 -19.1259765625 -10 c 5
 -15.623046875 30 l 5
 68.2900390625 39 80.927734375 42 90.2802734375 86 c 4
 93.1728515625 99.609375 148.150390625 381.78125 153.935546875 409 c 4
 173.22265625 499.737304688 226.859375 585.629882812 299.87109375 646 c 4
 363.653320312 698.73828125 442.220703125 732 525.591796875 732 c 7
 632.494140625 732 714.143554688 692.708984375 766.66015625 657.049804688 c 5
 746.611328125 623.885742188 l 5
 648.366210938 658.17578125 564.0546875 583.630859375 549.466796875 515 c 4
 528.124023438 414.591796875 604.231445312 407.956054688 727.544921875 346 c 4
 824.052734375 297.59765625 826.991210938 216.370117188 816.709960938 168 c 4
 800.416992188 91.3505859375 725.483398438 -15 542.811523438 -15 c 7xa8
 496.921875 -15 450.655273438 -5 412.763671875 13 c 4
 395.091796875 21.39453125 395.0390625 19 379.086914062 -9 c 5
 347.9375 -5 l 5x70
 363.603515625 64 364.4296875 82 361.172851562 189 c 5
 396.448242188 195 l 5
 401.907226562 136 404.475585938 117.52734375 421.193359375 95 c 4
 448.651367188 58 519.8125 28 574.951171875 28 c 7
 668.451171875 28 721.719726562 97.48046875 733.095703125 151 c 4
 758.177734375 269 591.08984375 296 543.71875 328 c 4
 527.481445312 338.967773438 444.28125 377.693359375 468.15234375 490 c 4
 482.434570312 557.19140625 547.244140625 629.646484375 656.7734375 662.286132812 c 5xa8
EndSplineSet
Position2: "cpsp-1" dx=0 dy=0 dh=50 dv=100
EndChar
StartChar: uni1FBF
Encoding: 8127 8127 831
Width: 198
Flags: W
HStem: 494 22<166.137 212.33> 618.8 74<221.312 248.778>
VStem: 162.86 137.633
AnchorPoint: "Top" 192.023 465 mark 0
LayerCount: 2
Fore
SplineSet
162.860351562 494 m 5
 166.13671875 516 l 5
 201.859375 516 243.755859375 534.618164062 251.60546875 575 c 4
 259.232421875 614.237304688 219.653320312 604.219726562 190.8828125 618.799804688 c 4
 187.28125 620.541992188 186.681640625 626 187.615234375 630.799804688 c 4
 188.547851562 635.599609375 191.2890625 638.61328125 195.237304688 641.200195312 c 4
 203.0859375 646.341796875 225.06640625 672.174804688 228.266601562 685.599609375 c 4
 229.29296875 689.903320312 236.067382812 692.799804688 240.8671875 692.799804688 c 7
 245.666992188 692.799804688 250.181640625 691.154296875 251.4453125 689.599609375 c 4
 257.66796875 681.9453125 314.083007812 664.912109375 300.493164062 595 c 4
 284.822265625 514.379882812 215.5390625 494 162.860351562 494 c 5
EndSplineSet
Validated: 33
EndChar
StartChar: quotereversed
Encoding: 8219 8219 434
Width: 200
VWidth: 1159
Flags: W
HStem: 451 252
VStem: 123.632 141
LayerCount: 2
Fore
SplineSet
219.540039062 451 m 5
 113.000976561 516 122.573242187 627 123.631835938 633 c 4
 124.689453125 639 128.571289062 644 133.923828125 646 c 4
 156.86328125 657 177.684570312 673 192.387695312 694 c 4
 195.26953125 699 201.974609375 703 207.974609375 703 c 7
 213.974609375 703 219.26953125 699 220.387695312 694 c 4
 227.684570312 673 240.86328125 657 259.923828125 646 c 4
 264.571289062 644 265.689453124 639 264.631835938 633 c 4
 263.573242188 627 260.338867188 620 254.986328125 618 c 4
 232.046875 607 207.40234375 592 193.5234375 570 c 4
 174.056640625 539 209.651367188 497 239.948242188 476 c 5
 219.540039062 451 l 5
EndSplineSet
Position2: "Extra space for context kern-1" dx=35 dy=0 dh=70 dv=0
Position2: "cpsp-1" dx=0 dy=0 dh=7 dv=14
EndChar
StartChar: daggerdbl
Encoding: 8225 8225 199
Width: 442
Flags: W
HStem: -6 21G<212.5 229.5> 154 89<27.3301 140.031 301.969 413.942> 491 89<28.326 133.984 310.016 414.906>
VStem: 176 90<3.37628 120.469 620.011 730.972>
LayerCount: 2
Fore
SplineSet
176 369 m 1
 198.536585366 440 202.56097561 460 209 523 c 1
 134 513 l 2
 79 503 83 491 57 491 c 3
 43.9619140625 491 17 518 17 535 c 3
 17 552 45.9580078125 580 58 580 c 3
 83 580 84 569 134 560 c 2
 209 550 l 1
 198 620 l 2
 191 658 177 681 177 702 c 3
 177 718 205 741 222 741 c 3
 239 741 267 718 267 704 c 3
 267 681 253 657 246 620 c 2
 235 550 l 1
 310 560 l 2
 365 570 360 581 386 581 c 3
 398.165039062 581 427 554 427 537 c 3
 427 520 398.038085938 492 385 492 c 3
 360 492 360 504 310 513 c 2
 234 523 l 1
 240.43902439 461 244.463414634 441 267 369 c 1
 244.463414634 298 240.43902439 275 234 212 c 1
 309 222 l 2
 364 232 360 244 386 244 c 3
 399.038085938 244 426 217 426 200 c 3
 426 183 397.041992188 155 385 155 c 3
 360 155 359 166 309 175 c 2
 234 185 l 1
 245 115 l 2
 252 77 266 54 266 33 c 3
 266 17 238 -6 221 -6 c 3
 204 -6 176 17 176 31 c 3
 176 54 190 78 197 115 c 2
 208 185 l 1
 133 175 l 2
 78 165 83 154 57 154 c 3
 44.8349609375 154 16 181 16 198 c 3
 16 215 44.9619140625 243 58 243 c 3
 83 243 83 231 133 222 c 2
 209 212 l 1
 202.56097561 274 198.536585366 297 176 369 c 1
EndSplineSet
Validated: 1
EndChar
StartChar: uni2035
Encoding: 8245 8245 879
Width: 148
Flags: W
HStem: 453.607 294.984
VStem: -13.1367 144.488
LayerCount: 2
Fore
SplineSet
131.3515625 466.853515625 m 1
 101.287109375 453.607421875 l 1
 -13.13671875 723.515625 l 1
 96.75 748.591796875 l 1
 99.5206504189 652.834194237 96.5160340524 563.235935333 131.3515625 466.853515625 c 1
EndSplineSet
Validated: 1
EndChar
StartChar: Euro
Encoding: 8364 8364 1273
Width: 503
UnlinkRmOvrlpSave: 1
Flags: W
HStem: -6 51<236.339 345.555> 269 46<63 300> 384 46<63 348> 624 47<247.565 364.92>
VStem: 74 68<184.493 379.669>
LayerCount: 2
Fore
SplineSet
63 315 m 1
 346 315 l 1
 346 301 l 1
 300 269 l 1
 15 269 l 1
 15 279 l 1
 63 315 l 1
63 430 m 1
 394 430 l 1
 394 416 l 1
 348 384 l 1
 15 384 l 1
 15 394 l 1
 63 430 l 1
74 302 m 3
 74 425.150878906 106.315429688 524.673177083 178 592 c 0
 227.2734375 635.977539062 260.391601562 671 322 671 c 3
 383 671 412 645.8984375 469 630 c 1
 441.892578125 602.372070312 427.107421875 585.627929688 400 558 c 1
 383.174804688 585.6484375 361.092773438 624 298 624 c 3
 263.052734375 624 242.447265625 615.734375 215 593 c 0
 151.012695312 541.840277778 142 432.763888889 142 315 c 3
 142 196.93947451 197.951171875 45 294 45 c 3
 364.674804688 45 414.05078125 117.826171875 446 162 c 1
 452.666992188 156.75 457.333007812 152.25 464 147 c 1
 424.2109375 88 367.368164062 -6 266 -6 c 3
 131.056640625 -6 74 186.381422776 74 302 c 3
EndSplineSet
EndChar
StartChar: uni2123
Encoding: 8483 8483 925
Width: 708
UnlinkRmOvrlpSave: 1
Flags: W
HStem: 651 31.8438<582.936 636.953 733.442 793.885> 651 42<126.467 180.807 277.501 359.001 579.772 635.688 725.043 793.885>
VStem: 184.765 42.7793<-27 14.614> 185.254 85.0049<111 591.14> 185.391 92.2598<137.86 646.685>
LayerCount: 2
Fore
SplineSet
84.4521484375 -78 m 5x00
 219.303710938 198.296875 364.295898438 497.405273438 458.416015625 714 c 5
 390.771484375 687.286132812 319.005859375 809.122070312 281.255859375 765 c 4
 217.309570312 682.696289062 171.383789062 776.22265625 254.1328125 825.578125 c 4
 350.924804688 876.98828125 422.473632812 639 488.755859375 795.578125 c 13
 509.103515625 788.557617188 520.58203125 784.59765625 540.9296875 777.578125 c 5
 468.548828125 645.232421875 287.131835938 263.926757812 118.974609375 -90 c 5
 84.4521484375 -78 l 5x00
EndSplineSet
Refer: 1344 86 N 1 0 0 1 0 0 2
EndChar
StartChar: radical
Encoding: 8730 8730 440
Width: 458
Flags: W
HStem: -12 21G<164.76 222.966> 373 37<11.4324 80> 761 33<437.235 505>
VStem: 171 33<-12 57.2358>
LayerCount: 2
Fore
SplineSet
9 410 m 1
 36.3076171875 407.307617188 102.220703125 406.220703125 159 410 c 1
 161.971679688 356.1875 190.638671875 227.619140625 209 153 c 1
 267.346679688 361.1796875 375.979492188 707.248046875 392 794 c 1
 505 794 l 1
 505 761 l 1
 440 761 l 1
 382.296875 585 241.932617188 176.810546875 204 -12 c 1
 171 -12 l 1
 158.520507812 78.9091796875 109.014648438 250.196289062 80 377 c 1
 12 373 l 1
 9 410 l 1
EndSplineSet
Validated: 33
EndChar
StartChar: logicaland
Encoding: 8743 8743 329
Width: 492
VWidth: 1159
Flags: W
HStem: 680 20G<227.898 264.615>
LayerCount: 2
Fore
SplineSet
6 0 m 1
 234.424804688 700 l 1
 258.103515625 700 l 1
 486 0 l 1
 434 0 l 1
 246.559570312 585.079101562 l 3
 58 0 l 1
 6 0 l 1
EndSplineSet
Validated: 1
EndChar
StartChar: intersection
Encoding: 8745 8745 307
Width: 580
VWidth: 1159
Flags: W
HStem: 647.079 50.2441<197.716 382.573>
VStem: 50 48<0 529.111> 482 48<0 531.159>
LayerCount: 2
Fore
SplineSet
50 0 m 1
 50 388 l 2
 50 548.942913546 102.67506885 697.323242188 290.278320312 697.323242188 c 3
 477.053145259 697.323242188 530 549.959043632 530 390 c 2
 530 0 l 1
 482 0 l 1
 482 392 l 2
 482 525.006224159 439.695960824 647.079101562 290.559570312 647.079101562 c 3
 140.089155281 647.079101562 98 522.569145937 98 388 c 2
 98 0 l 1
 50 0 l 1
EndSplineSet
Validated: 1
EndChar
StartChar: angleleft
Encoding: 9001 9001 148
Width: 383
Flags: W
LayerCount: 2
Fore
SplineSet
310 -299 m 1
 21 211 l 1
 310 722 l 1
 361 692 l 1
 101 211 l 1
 361 -270 l 1
 310 -299 l 1
EndSplineSet
Validated: 1
EndChar
StartChar: uni2645
Encoding: 9797 9797 976
Width: 496
Flags: W
HStem: -153.12 37.457<212.454 290.325> 28.6357 38.374<201.997 226.952 266.74 283.616> 282.479 42.2402<139.641 221.76 272.8 351.642> 478.08 20G<219.12 277.2>
VStem: 86.0205 52.1387<174.998 278.353 328.331 428.828> 137.28 49.4824<-92.3969 16.8852> 221.76 51.04<190.003 282.479 324.72 498.08> 308.05 49.2305<-102.63 8.47525> 352.88 52.5742<175.16 278.843 328.042 427.903>
LayerCount: 2
Fore
SplineSet
241.83203125 28.6357421875 m 0xf7
 208.052734375 28.6357421875 186.87109375 -0.310546875 186.762695312 -30.26171875 c 0
 186.762695312 -63.267578125 207.33203125 -115.663085938 254.840820312 -115.663085938 c 0
 285.575195312 -115.663085938 308.049804688 -83.115234375 308.049804688 -52.5673828125 c 0
 308.049804688 -30.513671875 295.360351562 28.6357421875 241.83203125 28.6357421875 c 0xf7
28.1591796875 561.440429688 m 1
 95.66015625 498.759765625 138.159179688 400.741210938 138.159179688 330.879882812 c 1
 168.666992188 326.7734375 196.532226562 324.719726562 221.759765625 324.719726562 c 1
 219.120117188 498.080078125 l 1
 277.200195312 498.080078125 l 1
 272.799804688 324.719726562 l 1
 299.786132812 324.719726562 326.479492188 326.7734375 352.879882812 330.879882812 c 1
 352.879882812 397.756835938 393.635742188 497.466796875 463.759765625 561.440429688 c 1
 477.840820312 553.520507812 l 1
 429.58203125 470.032226562 405.454101562 386.244140625 405.454101562 302.158203125 c 0
 405.454101562 219.62109375 428.702148438 136.793945312 475.200195312 53.6796875 c 1
 463.759765625 47.5205078125 l 1
 374.8359375 122.102539062 352.879882812 226.962890625 352.879882812 275.440429688 c 1xfa80
 327.067382812 280.1328125 300.373046875 282.479492188 272.799804688 282.479492188 c 1
 266.740234375 66.919921875 l 1
 311.967773438 58.9970703125 357.280273438 18.0400390625 357.280273438 -42.240234375 c 0
 357.280273438 -104.458007812 307.4921875 -153.120117188 246.400390625 -153.120117188 c 0
 182.189453125 -153.120117188 137.280273438 -101.202148438 137.280273438 -42.240234375 c 0xf7
 137.280273438 17.939453125 182.034179688 59.2216796875 226.952148438 67.009765625 c 1
 221.759765625 282.479492188 l 1
 197.70703125 282.479492188 169.840820312 280.1328125 138.159179688 275.440429688 c 1
 138.159179688 226.961914062 116.552734375 122.87109375 28.1591796875 47.5205078125 c 1
 16.720703125 53.6796875 l 1
 62.919921875 137.30859375 86.0205078125 220.645507812 86.0205078125 303.69140625 c 0xfa
 86.0205078125 387.263671875 62.626953125 470.540039062 15.8408203125 553.520507812 c 1
 28.1591796875 561.440429688 l 1
EndSplineSet
Validated: 1
EndChar
StartChar: uni264B
Encoding: 9803 9803 982
Width: 654
Flags: W
HStem: -90.7383 55.2031<198.099 417.622> 101.095 43.3594<91.1673 168.26> 244.212 35.1475<477.863 557.687> 405.723 46.6855<221.398 456.864>
VStem: 19.0127 48.3223<155.071 283.073> 225.476 48.5361<202.697 318.129> 369.948 45.0508<74.2926 180.319> 576.514 41.4502<104.203 228.47>
LayerCount: 2
Fore
SplineSet
520.188476562 62.447265625 m 1
 560.845703125 87.373046875 570.561523438 136.981445312 576.513671875 180.161132812 c 1
 578.184570312 213.638671875 550.315429688 244.211914062 519.006835938 244.211914062 c 0
 510.60546875 244.211914062 501.956054688 242.010742188 493.561523438 237.071289062 c 1
 450.130859375 215.516601562 422.287109375 168.145507812 414.999023438 121.482421875 c 1
 413.6640625 83.701171875 447.44140625 52.4716796875 483.422851562 52.4716796875 c 0
 491.13671875 52.4716796875 498.953125 53.90625 506.545898438 57.0205078125 c 2
 513.559570312 59.47265625 l 1
 520.188476562 62.447265625 l 1
153.916015625 155.211914062 m 0
 191.985351562 179.336914062 225.475585938 220.735351562 225.475585938 266.438476562 c 0
 225.475585938 275.3203125 224.209960938 284.365234375 221.46875 293.4765625 c 0
 214.953125 321.502929688 186.788085938 340.626953125 159.41015625 340.626953125 c 0
 145.319335938 340.626953125 131.434570312 335.560546875 120.823242188 324.03125 c 1
 91.8330078125 301.2890625 79.619140625 264.017578125 68.6328125 230.872070312 c 1
 67.7724609375 225.6640625 67.3349609375 220.157226562 67.3349609375 214.545898438 c 0
 67.3349609375 181.321289062 82.6953125 144.454101562 116.827148438 144.454101562 c 0
 121.505859375 144.454101562 126.540039062 145.147460938 131.934570312 146.638671875 c 0
 139.638671875 148.306640625 147.078125 151.305664062 153.916015625 155.211914062 c 0
190.874023438 -86.38671875 m 0
 139.346679688 -73.6416015625 86.69921875 -58.064453125 44.0390625 -25.181640625 c 1
 48.169921875 2.013671875 80.6123046875 24.6181640625 88.279296875 48.4580078125 c 1
 121.52734375 26.5556640625 154.076171875 1.654296875 193.140625 -11.818359375 c 1
 228.275390625 -28.189453125 266.147460938 -35.53515625 304.208007812 -35.53515625 c 0
 352.505859375 -35.53515625 401.110351562 -23.70703125 444.8203125 -3.478515625 c 0
 457.462890625 1.6904296875 472.866210938 11.140625 472.866210938 18.5498046875 c 0
 472.866210938 22.796875 467.801757812 26.3740234375 454.249023438 28.0888671875 c 1
 404.717773438 40.0009765625 369.948242188 91.142578125 369.948242188 141.522460938 c 0
 369.948242188 147.624023438 370.45703125 153.713867188 371.51171875 159.721679688 c 0
 381.688476562 214.963867188 421.610351562 269.59375 480.456054688 277.6875 c 0
 487.993164062 278.76953125 495.869140625 279.359375 503.848632812 279.359375 c 0
 533.737304688 279.359375 565.077148438 271.075195312 585.451171875 249.317382812 c 0
 609.567382812 226.0078125 617.963867188 197.3515625 617.963867188 167.365234375 c 0
 617.963867188 148.252929688 614.551757812 128.600585938 609.629882812 109.448242188 c 0
 597.7734375 52.8583984375 547.047851562 16.853515625 507.671875 -21.0673828125 c 1
 435.841796875 -80.314453125 339.602539062 -90.73828125 248.846679688 -90.73828125 c 0
 238.404296875 -90.73828125 228.034179688 -90.599609375 217.782226562 -90.3828125 c 0
 208.725585938 -89.75 199.743164062 -88.296875 190.874023438 -86.38671875 c 0
81.0810546875 115.23046875 m 0
 39.0947265625 137.375976562 19.0126953125 181.657226562 19.0126953125 226.634765625 c 0
 19.0126953125 258.331054688 28.9853515625 290.375 48.2958984375 315.263671875 c 0
 118.583007812 400.64453125 227.904296875 449.9296875 338.07421875 451.265625 c 1
 351.461914062 452.01171875 364.93359375 452.408203125 378.436523438 452.408203125 c 0
 462.126953125 452.408203125 547.004882812 437.208007812 620.6015625 396.397460938 c 1
 628.672851562 390.366210938 631.801757812 384.631835938 631.801757812 378.99609375 c 0
 631.801757812 360.165039062 596.859375 342.456054688 594.7109375 318.537109375 c 1
 592.440429688 318.130859375 590.192382812 317.939453125 587.961914062 317.939453125 c 0
 553.364257812 317.939453125 523.384765625 364.069335938 486.416015625 371.890625 c 1
 440.225585938 394.376953125 389.185546875 405.72265625 338.142578125 405.72265625 c 0
 294.623046875 405.72265625 251.099609375 397.474609375 210.580078125 380.856445312 c 1
 197.151367188 377.275390625 191.986328125 373.670898438 191.986328125 369.883789062 c 0
 191.986328125 357.774414062 244.821289062 343.795898438 249.112304688 322.708007812 c 1
 265.924804688 300.2421875 274.01171875 271.936523438 274.01171875 243.404296875 c 0
 274.01171875 197.131835938 252.749023438 150.26171875 212.959960938 126.719726562 c 0
 186.12890625 109.813476562 155.043945312 101.094726562 123.623046875 101.094726562 c 0
 116.3984375 101.094726562 109.155273438 101.555664062 101.942382812 102.483398438 c 1
 94.9853515625 106.731445312 88.0341796875 110.981445312 81.0810546875 115.23046875 c 0
EndSplineSet
Validated: 33
EndChar
StartChar: uni266D
Encoding: 9837 9837 993
Width: 309
UnlinkRmOvrlpSave: 1
Flags: HW
HStem: -11 21G<54 54> 269 38<117.518 178.781>
VStem: 193 74<133.726 259.847>
LayerCount: 2
Fore
SplineSet
165 307 m 3
 223.198242188 307 267 270.666992188 267 198 c 3
 267 77.4228515625 54 -11 54 -11 c 1
 54 26 l 1
 106.595018867 49.6201171875 193 106.356445312 193 201 c 3
 193 228.200195312 177.770078125 269 151 269 c 3
 119.181640625 269 76 217 76 217 c 1
 65 243 l 1
 65 243 123.333007812 307 165 307 c 3
EndSplineSet
Refer: 487 58113 N 0 -0.749 0.9375 0 69 770 2
EndChar
StartChar: uni26B2
Encoding: 9906 9906 1012
Width: 500
UnlinkRmOvrlpSave: 1
Flags: HMW
LayerCount: 2
Fore
SplineSet
285 84 m 1
 286.1875 -92.6616541353 287.375 -136.330827068 323 -180 c 1
 323 -200 l 1
 175 -200 l 1
 175 -180 l 1
 214.6 -133 214.6 -109 219 84 c 1
 285 84 l 1
EndSplineSet
Refer: 1010 9898 N 1 0 0 1 0 86 2
EndChar
StartChar: a.pcap
Encoding: 57347 57347 1
Width: 453
Flags: W
HStem: -4 26<-14.2933 26.3022 90.4628 131.15 367.92 392.791> 132 32<219.71 263.396> 395 20G<269.59 304.747>
VStem: 273.747 31<374.999 415>
AnchorPoint: "Ogonek" 304.275 27 basechar 0
AnchorPoint: "Top" 300.375 465 basechar 0
AnchorPoint: "Bottom" 187.348 -15 basechar 0
LayerCount: 2
Back
SplineSet
171.858398438 168.09375 m 5
 201.12109375 163.279296875 245.022460938 163.975585938 272.956054688 163.975585938 c 5
 261.3515625 219.15625 256.065429688 228.901367188 242.643554688 282.916992188 c 5
 209.52734375 227.40234375 201.352539062 215.76171875 171.858398438 168.09375 c 5
257.821289062 -6.7275390625 m 5
 257.821289062 -6.7275390625 256.802734375 10.3798828125 256.265625 17.8095703125 c 5
 274.708007812 22.734375 295.265625 36.763671875 293.646484375 44.259765625 c 4
 290.209960938 82.2109375 283.306640625 97.361328125 278.366210938 131.54296875 c 5
 258.439453125 138.333984375 185.32421875 142.833007812 153.44140625 138.177734375 c 5
 132.411132812 103.774414062 117.37890625 84.0556640625 100.250976562 50.7568359375 c 4
 93.4609375 36.9462890625 110.912109375 17.580078125 149.471679688 22.40625 c 5
 142.415039062 -6.7275390625 l 5
 124.229492188 -2.5400390625 88.96484375 -0.3525390625 56.1396484375 -0.3525390625 c 4
 32.974609375 -0.3525390625 11.025390625 -1.44140625 -2.8515625 -3.6865234375 c 5
 -2.69921875 -2.0732421875 -2.091796875 12.4873046875 -1.138671875 21.599609375 c 5
 29.5126953125 27.0771484375 52.626953125 42.8046875 55.921875 47.451171875 c 4
 134.62890625 166.268554688 204.397460938 274.791015625 262.387695312 371.904296875 c 4
 275.40234375 393.705078125 271.041015625 389.572265625 279.061523438 414.827148438 c 5
 309.859375 414.500976562 l 5
 309.651367188 394.877929688 306.458007812 395.7578125 310.010742188 373.374023438 c 4
 327.844726562 244.7421875 340.557617188 160.876953125 378.291992188 37.1630859375 c 4
 382.229492188 26.3779296875 399.989257812 20.4306640625 410.233398438 20.689453125 c 5
 409.823242188 18.99609375 406.305664062 4.6884765625 404.211914062 -3.1103515625 c 5
 387.512695312 -0.5166015625 363.888671875 0.9736328125 339.60546875 0.9736328125 c 4
 309.317382812 0.9736328125 278.00390625 -1.3447265625 257.821289062 -6.7275390625 c 5
EndSplineSet
Fore
SplineSet
162.245117188 168 m 5
 191.182617188 163 235.395507812 164 263.395507812 164 c 5
 253.0859375 219 247.2109375 229 234.689453125 283 c 5
 200.786132812 227 192.448242188 216 162.245117188 168 c 5
245.047851562 -7 m 5
 245.047851562 -7 244.874023438 11 244.362304688 18 c 5
 262.424804688 23 283.400390625 37 281.888671875 44 c 4
 278.965820312 82 273.366210938 98 268.59375 132 c 5
 249.081054688 139 174.931640625 143 142.869140625 138 c 5
 121.641601562 104 106.390625 84 88.3759765625 51 c 4
 81.400390625 37 98.1494140625 17 137.211914062 22 c 5
 130.047851562 -7 l 5
 112.249023438 -2.9169921875 77.001953125 -0.875 44.1572265625 -0.875 c 7
 20.697265625 -0.875 -1.5380859375 -1.9169921875 -15.314453125 -4 c 5
 -14.8896484375 -2 -14.701171875 13 -13.7880859375 22 c 5
 17.275390625 27 40.462890625 42 43.5263671875 47 c 4
 124.8203125 166 196.989257812 275 256.607421875 372 c 4
 270.283203125 394 265.432617188 390 273.747070312 415 c 5
 304.747070312 415 l 5
 304.49609375 395 300.49609375 395 303.819335938 373 c 4
 319.399414062 244 330.7578125 161 366.400390625 37 c 4
 370.0625 26 388 21 398 21 c 5
 397.57421875 19 394.598632812 5 391.8984375 -3 c 5
 375.431640625 -0.380859375 352.244140625 1.0947265625 328.3359375 1.0947265625 c 7
 297.471679688 1.0947265625 265.405273438 -1.365234375 245.047851562 -7 c 5
EndSplineSet
EndChar
StartChar: b.pcap
Encoding: 57348 57348 165
Width: 425
Flags: W
HStem: -3 27<16.3145 60.0722 148.165 240.659> 206 19<178.463 245.44> 380 27<101.148 131.534 217.148 273.332>
AnchorPoint: "Bottom" 165.449 -15 basechar 0
AnchorPoint: "Top" 262.477 465 basechar 0
LayerCount: 2
Back
SplineSet
29.576171875 21.9228515625 m 5
 41.7548828125 22.5107421875 74.09375 25.171875 82.30859375 54.7431640625 c 4
 84.1982421875 55.7578125 96.220703125 106.555664062 108.232421875 168.353515625 c 5
 124.626953125 252.696289062 134.373046875 325.063476562 134.19140625 325.61328125 c 4
 138.388671875 350.166992188 139.7734375 364.521484375 129.55078125 369.595703125 c 4
 124.840820312 370.66796875 101.465820312 374.458007812 96.8359375 375.114257812 c 5
 106.169921875 399.905273438 l 5
 113.70703125 399.501953125 144.213867188 393.984375 176.446289062 393.984375 c 5
 206.731445312 393.984375 248.946289062 399.744140625 277.584960938 399.744140625 c 5
 356.64453125 399.744140625 378.868164062 335.024414062 371.5859375 297.561523438 c 4
 363.848632812 257.756835938 328.240234375 237.154296875 285.59765625 214.921875 c 5
 343.393554688 202.518554688 385.208984375 160.5703125 374.372070312 104.8203125 c 5
 361.818359375 40.2392578125 293.57421875 -2.7880859375 202.796875 -2.7880859375 c 5
 172.591796875 -2.7880859375 135.11328125 0.587890625 102.443359375 0.587890625 c 5
 67.0078125 0.587890625 33.0146484375 -1.6357421875 26.8544921875 -1.796875 c 5
 29.576171875 21.9228515625 l 5
232.796875 219.426757812 m 4
 259.216796875 223.739257812 284.33203125 249.198242188 290.869140625 282.829101562 c 5
 295.8828125 308.618164062 293.256835938 372.90234375 252.50390625 372.90234375 c 5
 250.146484375 372.90234375 238.369140625 371.993164062 236.33984375 372.467773438 c 4
 222.69140625 369.840820312 220.771484375 354.051757812 217.299804688 344.161132812 c 4
 199.97265625 281.552734375 187.536132812 220.524414062 186.456054688 218.274414062 c 5
 227.73046875 218.274414062 231.905273438 218.904296875 232.796875 219.426757812 c 4
217.577148438 197.516601562 m 5
 215.510742188 199.330078125 169.584960938 199.25 181.6875 199.25 c 5
 172.450195312 150.625976562 163.025390625 102.974609375 158.657226562 72.70703125 c 4
 154.23828125 45.1474609375 156.112304688 36.4541015625 168.943359375 31.8388671875 c 4
 171.708984375 29.5166015625 197.02734375 24.703125 205.481445312 24.703125 c 5
 254.178710938 24.703125 286.25 54.515625 294.948242188 99.263671875 c 5
 304.719726562 149.534179688 287.709960938 197.44921875 217.577148438 197.516601562 c 5
EndSplineSet
Fore
SplineSet
16.314453125 22 m 5
 28.5263671875 23 61.9521484375 25 70.328125 55 c 4
 72.541015625 56 85.1689453125 106 98.34765625 168 c 4
 116.993164062 255.721679688 128.197265625 331.956054688 128.418945312 333 c 4
 132.733398438 358 134.708984375 372 124.771484375 377 c 4
 119.984375 378 96.6220703125 381 91.833984375 382 c 5
 101.1484375 407 l 5
 109.1484375 407 139.873046875 401 171.873046875 401 c 7
 201.873046875 401 244.1484375 407 273.1484375 407 c 7
 352.1484375 407 373.33203125 342 365.467773438 305 c 4
 356.96484375 265 301.313476562 229 277.825195312 222 c 5
 335.205078125 209.672851562 376.034179688 166.52734375 363.806640625 109 c 5
 349.478515625 41.5927734375 280 -3 189 -3 c 7
 159 -3 121.850585938 1 88.8505859375 1 c 7
 53.8505859375 1 19.212890625 -2 13.212890625 -2 c 5
 16.314453125 22 l 5
224.67578125 226 m 4
 251.525390625 230 277.052734375 256 284.279296875 290 c 4
 289.805664062 316 288.409179688 380 247.409179688 380 c 7
 245.409179688 380 233.196289062 379 231.196289062 379 c 4
 217.55859375 376 215.37109375 361 211.245117188 351 c 4
 192.854492188 288 179.887695312 227 178.462890625 225 c 5
 219.462890625 225 223.462890625 225 224.67578125 226 c 4
209.211914062 205 m 7
 206.383789062 205 182.424804688 206 173.424804688 206 c 5
 162.430664062 154.27734375 151.885742188 104.666992188 147.154296875 73 c 4
 142.203125 45 143.501953125 37 156.439453125 32 c 4
 159.014648438 30 184.739257812 24 192.739257812 24 c 7
 241.739257812 24 274.456054688 55.599609375 284.53125 103 c 4
 295.481445312 154.515625 279.211914062 205 209.211914062 205 c 7
EndSplineSet
EndChar
StartChar: e.pcap
Encoding: 57351 57351 216
Width: 462
Flags: W
HStem: -6 23<22.0703 54.3332> -0.384766 26.9512<158.777 286.255> 192 24<177.259 284.357> 375.159 26.2217<222.156 350.902> 385 19<103.219 127.329>
VStem: 298.191 24.2754<137 178.476>
AnchorPoint: "Ogonek" 340.085 27 basechar 0
AnchorPoint: "Bottom" 194.158 -15 basechar 0
AnchorPoint: "Top" 296.185 465 basechar 0
LayerCount: 2
Back
SplineSet
106.33203125 397.1796875 m 5
 145.95703125 395.112304688 197.852539062 394.297851562 247.892578125 394.297851562 c 4
 329.494140625 394.297851562 406.16015625 396.46484375 416.629882812 398.907226562 c 5
 421.13671875 394.325195312 423.067382812 390.099609375 423.067382812 385.059570312 c 4
 423.067382812 370.779296875 407.568359375 349.954101562 391.258789062 295.922851562 c 5
 371.03125 294.034179688 l 5
 368.171875 305.50390625 383.006835938 335.473632812 363.202148438 352.161132812 c 4
 350.57421875 362.411132812 320.895507812 368.215820312 289.674804688 368.215820312 c 4
 272.703125 368.215820312 255.276367188 366.500976562 239.883789062 362.8515625 c 4
 230.274414062 361.3984375 221.279296875 352.256835938 219.366210938 343.823242188 c 4
 205.642578125 298.135742188 193.151367188 255.329101562 184.350585938 213.016601562 c 5
 214.979492188 213.349609375 271.665039062 214.09375 284.318359375 217.400390625 c 4
 314.833007812 222.447265625 323.396484375 235.583984375 339.5625 264.384765625 c 5
 359.607421875 259.788085938 l 5
 350.111328125 239.826171875 343.658203125 214.095703125 339.744140625 189 c 4
 336.665039062 169.259765625 335.157226562 149.912109375 334.974609375 134.07421875 c 5
 310.938476562 128.002929688 l 5
 310.140625 185.2421875 308.104492188 176.602539062 276.534179688 182.951171875 c 4
 256.034179688 189.784179688 222.876953125 189.526367188 179.594726562 189.376953125 c 5
 168.427734375 134.47265625 160.586914062 88.5009765625 164.923828125 51.2109375 c 4
 165.456054688 43.46484375 168.583984375 37.857421875 177.4453125 35.7216796875 c 4
 201.561523438 30.7021484375 221.166992188 26.5224609375 240.923828125 26.5224609375 c 4
 263.751953125 26.5224609375 286.78125 32.1015625 317.19921875 48.4091796875 c 4
 361.522460938 73.61328125 366.477539062 85.06640625 394.254882812 119.701171875 c 5
 412.295898438 115.024414062 l 5
 395.198242188 75.306640625 378.837890625 32.818359375 364.490234375 -4.19140625 c 5
 298.94921875 -3.2958984375 225.56640625 -0.72265625 158.831054688 -0.72265625 c 4
 112.325195312 -0.72265625 69.0478515625 -1.97265625 33.900390625 -5.91015625 c 5
 31.8818359375 17.072265625 l 5
 62.0458984375 23.814453125 72.1767578125 27.0146484375 80.865234375 52.6142578125 c 5
 89.7333984375 75.982421875 107.663085938 159.680664062 121.389648438 232 c 4
 130.534179688 280.182617188 137.813476562 323.314453125 139.301757812 340.190429688 c 4
 142.349609375 368.211914062 136.456054688 369.499023438 99.4130859375 378.4765625 c 5
 106.33203125 397.1796875 l 5
EndSplineSet
Fore
SplineSet
103.21875 404 m 1xac
 143.5390625 402.131835938 195.956054688 401.380859375 246.73828125 401.380859375 c 3
 331.900390625 401.380859375 399.461914062 403.494140625 410.64453125 406 c 5
 416.5390625 399.821289062 417.989257812 394.350585938 416.400390625 386.875976562 c 4
 413.361328125 372.575195312 399.1953125 350.943359375 383.750976562 303 c 5
 363.325195312 301 l 5
 360.6640625 312 376.040039062 342 356.654296875 359 c 4
 343.256835938 369.40625 317.682617188 375.159179688 283.579101562 375.159179688 c 3
 265.245117188 375.159179688 252.46875 373.49609375 235.9921875 370 c 0
 226.779296875 369 217.654296875 359 215.953125 351 c 0
 200.876953125 303.595703125 187.458007812 259.282226562 177.258789062 216 c 1
 213.258789062 216 258.470703125 217 273.108398438 220 c 0
 304.170898438 225 311.934570312 238 329.098632812 267 c 1
 349.248046875 263 l 1
 341.18359375 246.552734375 335.034179688 226.348632812 330.670898438 205.8203125 c 0
 325.483398438 181.415039062 322.8203125 156.552734375 322.466796875 137 c 1
 298.19140625 131 l 1
 298.306640625 178 291.344726562 180.752929688 264.881835938 186 c 0
 251.771484375 188.599609375 219.157226562 192 172.157226562 192 c 1
 160.211914062 135.8046875 150.221679688 88.8046875 154.186523438 51 c 0
 154.486328125 43 158.422851562 38 166.998046875 36 c 0
 189.807617188 30.84375 208.189453125 26.56640625 226.8828125 26.56640625 c 3
 248.071289062 26.56640625 274.66015625 32.0615234375 303.548828125 48 c 0
 347.862304688 73 353.413085938 85 381.852539062 120 c 1
 399.790039062 115 l 1
 382.288085938 75 364.360351562 33 349.49609375 -4 c 1
 286.505859375 -2.83984375 212.955078125 -0.384765625 149.193359375 -0.384765625 c 3x74
 101.986328125 -0.384765625 57.89453125 -1.7412109375 22.0703125 -6 c 1
 20.9599609375 17 l 1
 51.447265625 24 61.0849609375 27 70.611328125 53 c 1
 78.712890625 73.8935546875 94.572265625 141.57421875 108.594726562 207.544921875 c 0
 121.385742188 267.721679688 132.6484375 326.475585938 135.103515625 347 c 0
 139.0546875 375 133.267578125 376 96.1806640625 385 c 1
 103.21875 404 l 1xac
EndSplineSet
EndChar
StartChar: h.pcap
Encoding: 57354 57354 293
Width: 579
Flags: W
HStem: -2 23<9.16124 38.1627 147.801 173.682 465.349 484.565> 189 28<173.552 415.6> 384 25<94.3143 125.407 217.074 260.836 412.849 439.058>
AnchorPoint: "Bottom" 248.238 -15 basechar 0
AnchorPoint: "Top" 354.266 465 basechar 0
LayerCount: 2
Back
SplineSet
100.861328125 403.361328125 m 5
 136.393554688 400.098632812 167.852539062 397.086914062 201.903320312 397.086914062 c 4
 222.825195312 397.086914062 244.724609375 398.223632812 269.149414062 401.137695312 c 5
 265.8359375 376.922851562 l 5
 251.940429688 373.938476562 223.404296875 372.796875 217.991210938 360.094726562 c 5
 209.094726562 340.057617188 194.857421875 270.638671875 181.935546875 213.82421875 c 5
 430.798828125 214.549804688 l 5
 437.026367188 248.4609375 444.02734375 288.05078125 451.77734375 336.55859375 c 4
 456.981445312 371.477539062 433.778320312 370.640625 412.66796875 379.387695312 c 5
 420.225585938 401.794921875 l 5
 442.2734375 397.375 464.724609375 394.986328125 487.984375 394.986328125 c 4
 515.771484375 394.986328125 544.709960938 398.395507812 575.489257812 405.826171875 c 5
 574.96484375 381.611328125 l 5
 548.025390625 374.231445312 539.688476562 372.1796875 531.498046875 346.34375 c 4
 514.263671875 289.916015625 490.471679688 194.372070312 477.614257812 126 c 4
 470.475585938 88.0390625 466.708007812 58.453125 469.3046875 48.5888671875 c 4
 470.3515625 19.1142578125 486.967773438 18.0927734375 502.810546875 15.0908203125 c 5
 502.810546875 15.0908203125 496.555664062 -1.025390625 495.704101562 -7.9599609375 c 5
 475.901367188 -3.4169921875 450.245117188 -0.7900390625 423.168945312 -0.7900390625 c 4
 395.87109375 -0.7900390625 367.131835938 -3.4599609375 341.494140625 -9.52734375 c 5
 341.5 -7.833984375 340.73046875 5.5751953125 340.900390625 13.6162109375 c 5
 367.849609375 21.818359375 382.240234375 24.3720703125 391.685546875 53.2890625 c 4
 406.4453125 103.581054688 413.35546875 132.25390625 425.170898438 185.59765625 c 5
 175.44921875 186.323242188 l 5
 165.00390625 139.279296875 155.293945312 90.3388671875 150.577148438 51.671875 c 4
 145.455078125 19.806640625 174.815429688 20.8720703125 191.923828125 15.3447265625 c 5
 191.923828125 15.3447265625 186.002929688 -2.015625 184.159179688 -8.951171875 c 5
 155.407226562 -3.8271484375 124.143554688 -0.93359375 93.939453125 -0.93359375 c 4
 67.919921875 -0.93359375 42.6875 -3.080078125 20.525390625 -7.798828125 c 5
 20.525390625 -7.798828125 20.564453125 10.541015625 21.3076171875 19.45703125 c 5
 41.306640625 24.7314453125 64.109375 23.79296875 73.3369140625 53.2841796875 c 4
 91.0283203125 112.725585938 111.33203125 202.5 123.819335938 268 c 4
 131.920898438 310.4921875 136.732421875 342.76953125 135.408203125 349.920898438 c 4
 135.315429688 373.846679688 115.331054688 375.33203125 94.1376953125 378.489257812 c 5
 100.861328125 403.361328125 l 5
EndSplineSet
Fore
SplineSet
96.3623046875 409 m 5
 131.672851562 405.899414062 162.752929688 402.797851562 196.702148438 402.797851562 c 7
 217.494140625 402.797851562 239.362304688 403.9609375 263.9375 407 c 5
 260.8359375 383 l 5
 247.198242188 380 217.985351562 379 212.22265625 366 c 5
 202.883789062 345.588867188 187.916015625 275.170898438 173.551757812 217 c 5
 421.763671875 218 l 5
 429.168945312 252.8359375 437.662109375 292.794921875 446.333007812 343 c 4
 451.772460938 378 428.34765625 376 407.260742188 385 c 5
 415.149414062 408 l 5
 437.078125 403.419921875 459.662109375 400.9375 483.17578125 400.9375 c 7
 510.998046875 400.9375 540.12109375 404.412109375 571 412 c 5
 569.8984375 388 l 5
 542.41015625 381 533.772460938 378 525.24609375 352 c 4
 507.720703125 298.2734375 483.9453125 209.879882812 469.688476562 142.805664062 c 4
 460.59375 100.017578125 455.372070312 65.9052734375 458.1171875 55 c 4
 458.953125 26 475.528320312 24 490.890625 21 c 5
 490.890625 21 484.489257812 5 483.000976562 -2 c 5
 463.436523438 2.392578125 438.702148438 4.8798828125 412.512695312 4.8798828125 c 7
 385.041015625 4.8798828125 355.966796875 2.1435546875 329.576171875 -4 c 5
 330.000976562 -2 327.977539062 12 328.677734375 20 c 5
 355.377929688 28 370.803710938 30 380.967773438 59 c 4
 396.35546875 107.872070312 403.587890625 137.1953125 415.599609375 189 c 5
 166.599609375 189 l 5
 156.333007812 143.051757812 146.359375 96.126953125 139.754882812 58 c 4
 133.953125 26 163.166015625 27 179.890625 21 c 5
 179.890625 21 173.276367188 4 171.7890625 -3 c 5
 144.033203125 2.2490234375 113.545898438 5.0185546875 83.8818359375 5.0185546875 c 7
 57.0361328125 5.0185546875 30.8642578125 2.7509765625 8.0009765625 -2 c 5
 8.0009765625 -2 8.8271484375 16 9.740234375 25 c 5
 29.8037109375 30 52.8037109375 30 61.9677734375 59 c 4
 80.537109375 118.028320312 102.60546875 207.16796875 116.52734375 272.6640625 c 4
 125.71875 315.90625 131.359375 348.841796875 130.096679688 356 c 4
 130.198242188 380 110.41015625 381 89.0478515625 384 c 5
 96.3623046875 409 l 5
EndSplineSet
EndChar
StartChar: i.pcap
Encoding: 57355 57355 301
Width: 312
Flags: W
HStem: -0.869141 19.8691<14.5264 58.6706 187.235 217.485> 379 21.1201<247.455 296.047> 381 28<101.436 144.471>
VStem: 12 288.999
AnchorPoint: "Ogonek" 127.228 27 basechar 0
AnchorPoint: "Bottom" 114.3 -15 basechar 0
AnchorPoint: "Top" 219.327 465 basechar 0
LayerCount: 2
Back
SplineSet
107.0390625 400.642578125 m 5
 138.795898438 394.43359375 170.264648438 391.780273438 202.751953125 391.780273438 c 4
 235.240234375 391.780273438 268.747070312 394.43359375 304.583984375 398.833984375 c 5
 300.567382812 371.001953125 l 5
 271.002929688 369.739257812 253.692382812 375.403320312 239.040039062 340.754882812 c 4
 224.001953125 296.892578125 207.25 242.258789062 193.239257812 165 c 4
 187.864257812 135.364257812 182.893554688 102.399414062 178.577148438 65.4365234375 c 4
 175.52734375 36.2216796875 202.731445312 20.689453125 235.357421875 19.5380859375 c 5
 229.688476562 -5.8291015625 l 5
 200.307617188 -2.51171875 162.037109375 -0.6162109375 124.494140625 -0.6162109375 c 4
 87.58203125 -0.6162109375 51.373046875 -2.44921875 25.005859375 -6.56640625 c 5
 26.8125 19.6181640625 l 5
 61.333984375 20.2724609375 93.619140625 31.728515625 105.293945312 68.94140625 c 4
 118.078125 112.262695312 131.344726562 171.291015625 141.21875 226 c 4
 149.19921875 270.211914062 154.963867188 311.603515625 156.469726562 339.602539062 c 4
 154.733398438 370.182617188 125.998046875 369.028320312 99.1787109375 372.890625 c 5
 107.0390625 400.642578125 l 5
EndSplineSet
Fore
SplineSet
103.423828125 409 m 5xb0
 135.90625 402.856445312 168.063476562 400.120117188 201.365234375 400.120117188 c 7
 233.11328125 400.120117188 265.900390625 402.607421875 300.999023438 407 c 5
 296.046875 379 l 5xd0
 266.833984375 378 250.109375 384 234.669921875 349 c 4
 219.67578125 306.872070312 203.0625 255.01171875 187.986328125 184.084960938 c 4
 180.599609375 149.333007812 173.58203125 110.00390625 167.3046875 65 c 4
 164.139648438 36 190.952148438 21 223.739257812 20 c 5
 217.212890625 -6 l 5
 188.932617188 -2.6171875 152.596679688 -0.869140625 116.53515625 -0.869140625 c 7
 77.984375 -0.869140625 39.74609375 -2.8662109375 12 -7 c 5
 14.5263671875 19 l 5
 48.7392578125 20 82.2900390625 32 94.154296875 69 c 4
 105.5859375 105.618164062 117.51171875 153.3671875 127.55859375 200.631835938 c 4
 139.543945312 257.018554688 148.853515625 312.715820312 151.458007812 348 c 4
 150.046875 379 122.622070312 377 95.4716796875 381 c 5
 103.423828125 409 l 5xb0
EndSplineSet
EndChar
StartChar: l.pcap
Encoding: 57358 57358 319
Width: 423
Flags: W
HStem: 1 35<145.786 304.325> 380 26<93.6673 123.178 218.841 268.391>
AnchorPoint: "TopRight" 326.088 348 basechar 0
AnchorPoint: "Top" 203.457 465 basechar 0
AnchorPoint: "Bottom" 174.431 -15 basechar 0
LayerCount: 2
Back
SplineSet
274.87109375 397.10546875 m 5x50
 272.197265625 370.66796875 l 5
 223.16015625 362.799804688 219.998046875 372.73046875 204.504882812 315.446289062 c 4
 196.958007812 298.37890625 156.109375 95.154296875 158.655273438 104.88671875 c 5
 150.483398438 59.7490234375 151.299804688 36.3525390625 187.287109375 35.232421875 c 4x30
 182.03515625 36.029296875 260.137695312 37.3095703125 257.400390625 36.291015625 c 4
 310.297851562 34.5341796875 359.172851562 79.62109375 375.235351562 114.295898438 c 5
 397.323242188 109.69921875 l 5
 388.443359375 67.6435546875 379.965820312 64.716796875 345.8125 -18.630859375 c 5x90
 326.9921875 -8.9404296875 325.26171875 -4.1142578125 299.81640625 -2.599609375 c 4
 293.484375 -2.16796875 243.5625 0.587890625 185.697265625 0.587890625 c 4x30
 60.486328125 0.587890625 33.3720703125 -4.5966796875 23.890625 -4.5966796875 c 5
 26.2275390625 23.4892578125 l 5
 58.4404296875 30.0029296875 67.7265625 33.8857421875 76.8251953125 67.2724609375 c 4
 76.7099609375 62.759765625 86.822265625 111.461914062 99.15625 173.041992188 c 4
 115.727539062 254.564453125 127.653320312 332.552734375 127.493164062 333.9609375 c 4
 131.646484375 367.255859375 124.84375 367.029296875 90.05078125 369.193359375 c 5
 98.3095703125 398.995117188 l 5
 145.657226562 386.49609375 229.543945312 390.3671875 274.87109375 397.10546875 c 5x50
EndSplineSet
Fore
SplineSet
271.916992188 406 m 5
 268.390625 380 l 5
 218.689453125 372 218.602539062 381 199.487304688 324 c 4
 193.4375 305.9609375 149.483398438 107.571289062 148.9375 105 c 5
 140.372070312 60 139.483398438 37 175.270507812 36 c 4
 180.337890625 35.8583984375 242.096679688 35.9404296875 245.270507812 36 c 4
 298.483398438 37 348.411132812 79 364.850585938 114 c 5
 387 110 l 5
 377.072265625 68 368.22265625 64 332.580078125 -19 c 5
 313.706054688 -9 312.555664062 -5 286.981445312 -3 c 4
 280.981445312 -3 231.831054688 1 173.831054688 1 c 4
 48.8310546875 1 20.5556640625 -5 11.5556640625 -5 c 5
 14.5078125 23 l 5
 46.9951171875 30 55.845703125 34 65.8603515625 67 c 4
 67.4013671875 72.078125 77.212890625 111 90.390625 173 c 4
 109.794921875 259.583984375 123.365234375 341.946289062 123.525390625 343 c 4
 128.540039062 376 120.540039062 376 85.96484375 378 c 5
 95.341796875 408 l 5
 118.446289062 402.15625 150.1328125 399.870117188 181.815429688 399.870117188 c 4
 215.198242188 399.870117188 248.579101562 402.408203125 271.916992188 406 c 5
EndSplineSet
EndChar
StartChar: m.pcap
Encoding: 57359 57359 337
Width: 627
Flags: W
HStem: -7 27<-0.621094 49.1422 122.699 157.322> 0 28<368.017 424.363 515.202 545.369> 380 28<89.1128 131.103 576.898 625.474>
VStem: 246.978 64.6328<4 134> 246.978 30<4 35.0128>
AnchorPoint: "Top" 389.967 465 basechar 0
AnchorPoint: "Bottom" 259.939 -15 basechar 0
LayerCount: 2
Back
SplineSet
557.485351562 -0.3115234375 m 5xb0
 514.038085938 8.0751953125 439.2421875 8.732421875 379.563476562 -1.9580078125 c 5
 381.08203125 23.1552734375 l 5
 438.961914062 28.5751953125 445.87109375 34.7353515625 457.588867188 108.508789062 c 4
 471.1953125 178.485351562 478.30078125 220.580078125 485.282226562 289.978515625 c 5
 430.227539062 228.974609375 391.81640625 180.521484375 342.891601562 104.692382812 c 4
 323.09375 74.1767578125 301.022460938 32.2431640625 289.595703125 3.7412109375 c 5x68
 260.190429688 3.7412109375 l 5
 266.533203125 39.8232421875 258.475585938 79.8583984375 249.66015625 109.95703125 c 5
 250.719726562 108.666992188 189.6953125 290.333984375 187.166015625 283.034179688 c 5
 161.266601562 208.004882812 145.75390625 166.836914062 128.788085938 84.9814453125 c 4
 117.3671875 28.3623046875 138.75 28.2578125 176.717773438 20.1943359375 c 5
 168.263671875 -6.4052734375 l 5
 127.34765625 0.25390625 62.4013671875 2.9716796875 8.46484375 -6.56640625 c 5
 11.984375 19.953125 l 5
 58.21484375 26.0595703125 72.9814453125 28.986328125 87.306640625 79.1083984375 c 5
 87.03515625 77.59375 146.453125 283.141601562 146.190429688 280.592773438 c 5
 153.203125 312.119140625 155.451171875 334.98828125 145.547851562 352.587890625 c 4
 137.549804688 367.950195312 122.860351562 375.791992188 86.732421875 377.833007812 c 5
 97.265625 406.241210938 l 5
 130.47265625 401.88671875 185.236328125 397.440429688 222.32421875 398.591796875 c 5
 236.330078125 398.81640625 236.28125 387.165039062 237.931640625 376.977539062 c 4
 261.356445312 281.575195312 285.779296875 216.598632812 322.426757812 134.169921875 c 5
 322.450195312 128.133789062 518.596679688 393.975585938 518.42578125 393.096679688 c 4
 522.552734375 398.68359375 528.6171875 401.552734375 532.913085938 400.896484375 c 4
 560.869140625 397.440429688 604.140625 398.833984375 633.248046875 401.713867188 c 5
 630.784179688 375.529296875 l 5
 587.455078125 376.100585938 572.192382812 367.853515625 559.818359375 311.310546875 c 4
 545.912109375 233.201171875 529.08203125 160.879882812 524.287109375 104.48828125 c 4
 516.889648438 35.53515625 527.385742188 28.2587890625 563.663085938 27.6826171875 c 5
 557.485351562 -0.3115234375 l 5xb0
EndSplineSet
Fore
SplineSet
544.127929688 0 m 5x70
 523.049804688 3.89453125 494.747070312 6.1298828125 464.287109375 6.1298828125 c 4
 432.17578125 6.1298828125 397.66796875 3.6455078125 366.702148438 -2 c 5
 368.016601562 23 l 5
 426.079101562 28 433.567382812 35 446.295898438 109 c 4
 461.33984375 179.7734375 470.365234375 222.237304688 478.194335938 292 c 5
 422.087890625 230.340820312 381.774414062 181.821289062 331.446289062 105 c 4
 310.856445312 74 289.141601562 33 276.977539062 4 c 5x68
 246.977539062 4 l 5
 253.629882812 40 247.131835938 80 238.508789062 110 c 5
 239.293945312 108.98828125 182.2109375 292.081054688 179.706054688 285 c 5
 152.603515625 209.2421875 135.80078125 167.828125 117.1953125 85 c 4
 105.079101562 28 126.079101562 28 164.37890625 20 c 5
 154.852539062 -6 l 5
 134.00390625 -2.3974609375 106.783203125 -0.119140625 77.8935546875 -0.119140625 c 4
 50.64453125 -0.119140625 21.9111328125 -2.146484375 -4.3603515625 -7 c 5
 -0.62109375 20 l 5xb0
 45.654296875 26 60.2919921875 29 75.919921875 79 c 5
 75.490234375 76.98046875 139.924804688 286.029296875 139.28125 283 c 5
 147.083007812 315 148.758789062 337 139.584960938 355 c 4
 131.7734375 370 117.473632812 378 80.8994140625 380 c 5
 91.8505859375 408 l 5
 125 404 180.150390625 400 217.362304688 401 c 5
 231.362304688 401 230.8125 389 232.686523438 379 c 4
 254.327148438 283.217773438 276.18359375 216.674804688 311.610351562 134 c 5
 311.325195312 127.954101562 513.301757812 396.0078125 513.086914062 395 c 4
 517.362304688 401 524 404 527.788085938 403 c 4
 556.150390625 400 598.362304688 401 628 404 c 5
 625.473632812 378 l 5
 582.686523438 379 565.7734375 370 552.658203125 313 c 4
 536.91796875 234.24609375 519.251953125 160.541015625 513.233398438 104 c 4
 504.567382812 35 515.291992188 29 551.079101562 28 c 5
 544.127929688 0 l 5x70
EndSplineSet
EndChar
StartChar: o.pcap
Encoding: 57361 57361 359
Width: 568
Flags: W
HStem: -5 37<209.826 339.581> 378 35<243.753 356.718>
AnchorPoint: "Horn" 483.79 341.8 basechar 0
AnchorPoint: "Ogonek" 253.378 27 basechar 0
AnchorPoint: "Middle" 283.425 206 basechar 0
AnchorPoint: "Bottom" 242.45 -15 basechar 0
AnchorPoint: "Top" 342.478 465 basechar 0
LayerCount: 2
Back
SplineSet
302.296875 377.725585938 m 5
 230.193359375 377.725585938 168.020507812 325.001953125 152.043945312 242.8046875 c 5
 131.232421875 135.743164062 189.043945312 31.6083984375 283.90234375 31.6083984375 c 5
 362.055664062 31.6083984375 417.334960938 91.7939453125 433.239257812 173.61328125 c 5
 456.1328125 291.392578125 388.69921875 377.725585938 302.296875 377.725585938 c 5
343.46875 412.9921875 m 5
 467.8671875 412.9921875 544.064453125 314.149414062 521.900390625 200.125 c 5
 499.939453125 87.1484375 391.590820312 -4.6767578125 257.368164062 -4.6767578125 c 5
 113.908203125 -4.6767578125 48.4658203125 109.651367188 66.083984375 200.287109375 c 5
 88.15625 313.838867188 216.842773438 412.9921875 343.46875 412.9921875 c 5
EndSplineSet
Fore
SplineSet
295.984375 378 m 7
 223.984375 378 160.719726562 325 143.290039062 243 c 4
 120.545898438 136 176.440429688 32 271.440429688 32 c 7
 349.440429688 32 405.193359375 92 422.623046875 174 c 4
 447.705078125 292 381.984375 378 295.984375 378 c 7
337.424804688 413 m 7
 461.424804688 413 536.380859375 314 512.149414062 200 c 4
 488.130859375 87 377.575195312 -5 243.575195312 -5 c 7
 100.575195312 -5 36.806640625 109 56.1494140625 200 c 4
 80.380859375 314 210.424804688 413 337.424804688 413 c 7
EndSplineSet
EndChar
StartChar: p.pcap
Encoding: 57362 57362 399
Width: 430
Flags: W
HStem: -7 30<152.09 193.622> 137 24<168.439 252.394> 379 21<93.6025 122.506 212.854 292.673>
AnchorPoint: "Top" 278.993 465 basechar 0
AnchorPoint: "Bottom" 114.967 -15 basechar 0
LayerCount: 2
Back
SplineSet
205.87890625 159.635742188 m 5xd0
 255.123046875 159.635742188 317.860351562 181.87890625 332.912109375 253.962890625 c 5
 344.298828125 318 320.298828125 348 304.579101562 357.8046875 c 4
 282.938476562 371.301757812 256.58984375 374.59765625 225.467773438 374.59765625 c 5
 222.548828125 374.59765625 218.862304688 360.974609375 216.444335938 351.36328125 c 4
 209.568359375 308.678710938 192.104492188 239.422851562 179.486328125 166.1328125 c 5
 188.240234375 162.506835938 193.700195312 159.635742188 205.87890625 159.635742188 c 5xd0
98.802734375 394.146484375 m 5xe0
 114.409179688 392.83203125 143.184570312 391.6796875 166.455078125 391.6796875 c 5xd0
 207.108398438 391.6796875 240.4609375 398.015625 280.953125 398.015625 c 5
 375.510742188 398.015625 421.993164062 320.940429688 410.584960938 259.134765625 c 5
 392.8984375 173.084960938 297.637695312 137.21484375 199.61328125 137.21484375 c 5
 186.584960938 137.21484375 186.6015625 137.362304688 176.038085938 139.504882812 c 5
 170.077148438 103.331054688 162.2109375 69.5625 163.286132812 54.72265625 c 4
 162.299804688 24.4990234375 173.372070312 28.83203125 214.00390625 23.328125 c 5
 205.647460938 -6.56640625 l 5
 147.890625 4.1240234375 100.579101562 5.8525390625 32.70703125 -10.5986328125 c 5
 28.255859375 13.7890625 l 5
 75.162109375 33.748046875 82.5458984375 32.7314453125 89.4267578125 60.9404296875 c 4
 108.684570312 135.688476562 127.697265625 246.529296875 138.639648438 337.310546875 c 4
 140.568359375 358.094726562 130.329101562 366.311523438 91.615234375 366.888671875 c 5
 98.802734375 394.146484375 l 5xe0
EndSplineSet
Fore
SplineSet
195.375976562 161 m 5
 244.375976562 161 307.5859375 185.509765625 323.631835938 261 c 5
 334.90625 314.041015625 318.0546875 355.3828125 298.950195312 366 c 4
 277.728515625 377.794921875 249.713867188 379 218.713867188 379 c 5
 215.713867188 379 212.056640625 367.376953125 210.462890625 359 c 4
 201.927734375 314.140625 182.626953125 242.157226562 168.439453125 166 c 5
 176.83203125 163.142578125 183.375976562 161 195.375976562 161 c 5
93.6025390625 402 m 5
 109.389648438 401 138.177734375 400 161.177734375 400 c 5
 202.177734375 400 235.453125 406 275.453125 406 c 5
 370.453125 406 414.99609375 328.576171875 401.6953125 266 c 5
 382.352539062 175 286.275390625 137 188.275390625 137 c 5
 175.275390625 137 174.487304688 138 163.913085938 140 c 5
 157.260742188 104 150.547851562 70.3125 149.845703125 55 c 4
 148.46875 25 159.319335938 29 200.043945312 23 c 5
 191.666992188 -7 l 5
 164.44921875 -1.8076171875 139.431640625 1.15625 113.408203125 1.15625 c 4
 84.298828125 1.15625 53.9306640625 -2.552734375 17.81640625 -11 c 5
 13.91796875 13 l 5
 61.1689453125 33 68.3662109375 33.041015625 76.12109375 61 c 4
 84.201171875 90.1328125 92.3740234375 124.3984375 100.11328125 160.807617188 c 4
 112.874023438 220.845703125 125.66015625 286.811523438 132.487304688 345 c 4
 134.950195312 366 124.651367188 374 85.86328125 375 c 5
 93.6025390625 402 l 5
EndSplineSet
EndChar
StartChar: q.pcap
Encoding: 57363 57363 422
Width: 530
Flags: W
HStem: -151 45<448.436 627.282> 387 25<237.622 339.405>
AnchorPoint: "Middle" 269.046 213.853 basechar 0
AnchorPoint: "Top" 327.732 465 basechar 0
AnchorPoint: "Bottom" 218.705 -15 basechar 0
LayerCount: 2
Back
SplineSet
300.114257812 387.413085938 m 7
 229.537109375 387.413085938 172.516601562 339.342773438 153.8203125 243.161132812 c 4
 133.461914062 138.42578125 167.223632812 28.6728515625 255.93359375 28.6728515625 c 7
 328.014648438 28.6728515625 383.329101562 87.3115234375 402.913085938 188.061523438 c 4
 426.186523438 307.791992188 377.346679688 387.413085938 300.114257812 387.413085938 c 7
315.663085938 13.568359375 m 5
 408.1796875 -50.9404296875 458.796875 -105.822265625 569.734375 -105.822265625 c 7
 625.43359375 -105.822265625 696.752929688 -93.560546875 719.60546875 -81.9951171875 c 5
 723.0859375 -102.916015625 l 5
 695.140625 -116.64453125 580.938476562 -150.848632812 507.131835938 -150.848632812 c 7
 388.13671875 -150.848632812 329.174804688 -78.7578125 216.0234375 -5.943359375 c 5
 114.453125 0.1953125 46.0810546875 96.400390625 68.193359375 210.159179688 c 4
 95.18359375 349.01171875 212.67578125 412.416015625 321.885742188 412.416015625 c 7
 427.455078125 412.416015625 512.86328125 332.9765625 489.229492188 211.391601562 c 4
 470.704101562 116.08984375 394.680664062 46.2802734375 315.663085938 13.568359375 c 5
EndSplineSet
Fore
SplineSet
293.15234375 387 m 7
 222.15234375 387 163.950195312 339 143.544921875 243 c 4
 121.225585938 138 153.057617188 29 242.057617188 29 c 7
 314.057617188 29 370.385742188 87 391.853515625 188 c 4
 417.360351562 308 370.15234375 387 293.15234375 387 c 7
301.869140625 14 m 5
 393.052734375 -51 442.362304688 -106 553.362304688 -106 c 7
 609.362304688 -106 679.913085938 -94 703.463867188 -82 c 5
 707 -103 l 5
 679.024414062 -117 563.796875 -151 489.796875 -151 c 7
 370.796875 -151 313.1015625 -79 201.618164062 -6 c 5
 99.8935546875 0 33.298828125 96 57.5302734375 210 c 4
 87.0751953125 349 206.466796875 412 315.466796875 412 c 7
 421.466796875 412 504.674804688 333 478.7421875 211 c 4
 458.549804688 116 381.883789062 47 301.869140625 14 c 5
EndSplineSet
EndChar
StartChar: u.pcap
Encoding: 57367 57367 520
Width: 529
Flags: W
HStem: -6 38<165.158 326.086> 379 25<76.672 112.825 207.138 256.111 394.232 440.634 499.603 547.474>
AnchorPoint: "Horn" 475.255 361.478 basechar 0
AnchorPoint: "Ogonek" 239.866 27 basechar 0
AnchorPoint: "Top" 335.966 465 basechar 0
AnchorPoint: "Bottom" 218.938 -15 basechar 0
LayerCount: 2
Back
SplineSet
83.3623046875 396.44921875 m 5
 123.404296875 392.255859375 208.33203125 392.17578125 262.418945312 396.368164062 c 5
 260.53125 372.728515625 l 5
 221.7109375 369.2734375 203.643554688 366.64453125 191.25390625 317.177734375 c 4
 192.034179688 319.346679688 156.658203125 157.697265625 154.96484375 147.122070312 c 5
 148.8671875 113.947265625 149.69140625 85.484375 163.024414062 65.0419921875 c 4
 177.56640625 43.5400390625 206.7265625 31.9951171875 258.790039062 31.9951171875 c 5
 276.688476562 31.9951171875 325.342773438 30.4541015625 363.48828125 59.77734375 c 4
 389.422851562 80.029296875 400.233398438 104.96875 410.6484375 147.708984375 c 4
 422.5390625 199.099609375 437.477539062 283.375 446.840820312 336.538085938 c 4
 451.862304688 371.174804688 434.600585938 369.930664062 394.520507812 370.505859375 c 5
 400.715820312 396.44921875 l 5
 433.063476562 392.17578125 530.54296875 389.62890625 555.166015625 395.5390625 c 5
 552.126953125 369.768554688 l 5
 519.616210938 370.2421875 503.974609375 372.032226562 494.797851562 340.041015625 c 4
 491.396484375 337.4921875 474.578125 273.92578125 448.634765625 146.71875 c 4
 439.673828125 102.009765625 419.107421875 67.4677734375 390.834960938 42.619140625 c 4
 351.399414062 9.70703125 294.580078125 -6.32421875 225.908203125 -6.32421875 c 5
 160.981445312 -6.32421875 118.520507812 9.1357421875 96.2783203125 36.357421875 c 4
 76.892578125 60.6298828125 72.3310546875 94.3466796875 81.0439453125 136.016601562 c 4
 84.6025390625 147.048828125 119.178710938 318.174804688 119.416992188 324.62890625 c 4
 123.625 364.291015625 121.470703125 363.907226562 75.1982421875 370.505859375 c 5
 83.3623046875 396.44921875 l 5
EndSplineSet
Fore
SplineSet
79 404 m 5
 99.0751953125 402 130.362304688 401 163.362304688 401 c 4
 196.362304688 401 231.075195312 402 258 404 c 5
 256.111328125 381 l 5
 217.473632812 378 198.623046875 374 185.208007812 325 c 4
 184.635742188 322.91015625 146.821289062 158.517578125 144.373046875 147 c 5
 137.358398438 114 138.008789062 84.865234375 150.943359375 65 c 4
 165.266601562 43 193.928710938 32 245.928710938 32 c 5
 263.928710938 32 313.750976562 30.9501953125 351.880859375 60 c 4
 378.131835938 80 389.823242188 104.984375 400.584960938 148 c 4
 413.884765625 201.159179688 432.885742188 289.837890625 441.458984375 345 c 4
 446.8984375 380 429.473632812 378 389.685546875 379 c 5
 396 404 l 5
 413.63671875 401.805664062 451.263671875 400.212890625 485.6484375 400.212890625 c 4
 513.942382812 400.212890625 540.041992188 401.291015625 551 404 c 5
 547.473632812 378 l 5
 514.473632812 378 500.8984375 380 490.096679688 348 c 4
 488.645507812 343.702148438 466.487304688 279.268554688 438.373046875 147 c 4
 428.807617188 102 407.393554688 67.0205078125 378.266601562 43 c 4
 338.252929688 10 281.8515625 -6 212.8515625 -6 c 5
 147.8515625 -6 105.4375 8.4951171875 83.779296875 36 c 4
 64.880859375 60 57.48828125 94.1474609375 70.03515625 136 c 4
 73.4716796875 147.465820312 113.19921875 326.698242188 113.908203125 333 c 4
 118.41015625 373 117.198242188 372 70.685546875 379 c 5
 79 404 l 5
EndSplineSet
EndChar
StartChar: w.pcap
Encoding: 57369 57369 1215
Width: 626
Flags: W
HStem: -13 24G<176.727 200.683 385.139 405.576> 384 24<43.2266 73.8881 267.287 291.488 395.862 449.111 523.643 568.593 655.454 680.898> 384 16.6191<399.038 449.111 525.12 563.285>
AnchorPoint: "Top" 395.328 465 basechar 0
AnchorPoint: "Bottom" 290.301 -15 basechar 0
LayerCount: 2
Back
SplineSet
687.572265625 401.569335938 m 5
 686.979492188 378.252929688 l 5
 634.114257812 363.745117188 627.762695312 329.176757812 578.375976562 249.366210938 c 5
 477.231445312 79.041015625 452.533203125 45.7744140625 437.801757812 24.353515625 c 4
 429.348632812 10.392578125 423.829101562 4.193359375 420.059570312 -9.2041015625 c 5
 398.594726562 -9.94140625 l 5
 400.237304688 1.9580078125 403.177734375 10.984375 397.11328125 33.8916015625 c 4
 378.811523438 98.787109375 369.265625 162.389648438 351.4921875 227.842773438 c 5
 297.729492188 137.078125 264.646484375 78.626953125 226.083007812 13.8125 c 4
 219.346679688 1.8955078125 216.513671875 -3.708984375 214.3359375 -12.66015625 c 5
 190.766601562 -12.66015625 l 5
 192.143554688 -2.724609375 195.489257812 6.9697265625 186.775390625 40.900390625 c 4
 151.073242188 194.094726562 109.934570312 319.263671875 99.6728515625 331.584960938 c 4
 96.560546875 336.502929688 93.5126953125 342.317382812 84.73828125 356.682617188 c 4
 75.5439453125 371.754882812 56.388671875 373.689453125 39.966796875 375.130859375 c 5
 49.2705078125 401.891601562 l 5
 90.142578125 388.989257812 171.196289062 389.7265625 223.547851562 400.659179688 c 5
 224.193359375 377.366210938 l 5
 194.31640625 377.076171875 183.02734375 367.958007812 179.0625 347.565429688 c 5
 177.704101562 340.573242188 178.985351562 331.478515625 181.07421875 325.740234375 c 5
 181.915039062 332.81640625 247.51953125 86.9609375 249.884765625 102.37890625 c 5
 266.15234375 124.409179688 309.168945312 207.478515625 339.154296875 264.876953125 c 5
 322.384765625 336.853515625 309.788085938 349.131835938 307.6796875 354.7734375 c 5
 297.401367188 374.091796875 276.431640625 375.322265625 266.173828125 380.073242188 c 5
 274.051757812 399.921875 l 5
 327.259765625 393.263671875 397.025390625 392.111328125 456.833007812 401.649414062 c 5
 454.978515625 378.18359375 l 5
 454.026367188 378.078125 434.78125 377.110351562 428.1953125 377.97265625 c 4
 406.716796875 377.900390625 396.2109375 364.170898438 398.532226562 352.056640625 c 5
 397.564453125 347.93359375 456.463867188 90.6015625 454.028320312 104.555664062 c 5
 505.908203125 176.489257812 529.241210938 222.287109375 563.108398438 296.130859375 c 4
 589.126953125 352.301757812 596.107421875 379.265625 525.72265625 377.28515625 c 5
 530.124023438 398.689453125 l 5
 564.987304688 394.25390625 626.233398438 393.34375 687.572265625 401.569335938 c 5
EndSplineSet
Fore
SplineSet
682 407 m 5xc0
 680.8984375 383 l 5
 627.709960938 368 620.483398438 334 569.478515625 254 c 5
 464.541015625 80.22265625 440.153320312 45.466796875 424.590820312 24 c 4
 415.615234375 10 409.33984375 4 405.576171875 -9 c 5
 384.36328125 -10 l 5
 385.9140625 2 389.827148438 11 383.715820312 34 c 4
 366.888671875 100.674804688 358.842773438 166.325195312 343.014648438 233 c 5
 287.220703125 139.874023438 252.604492188 80.5185546875 212.46484375 14 c 4
 205.9140625 2 201.638671875 -4 199.7265625 -13 c 5
 176.7265625 -13 l 5
 177.8515625 -3 180.977539062 7 173.204101562 41 c 4
 141.731445312 198.732421875 104.341796875 328.62890625 93.970703125 341 c 4
 91.0341796875 346 88.3095703125 352 79.28515625 366 c 4
 70.4736328125 381 51.8984375 383 35.111328125 384 c 5
 44.849609375 411 l 5
 65.80859375 404.228515625 97.8251953125 400.984375 131.090820312 400.984375 c 4
 161.69140625 400.984375 193.348632812 403.729492188 218.424804688 409 c 5
 218.536132812 386 l 5
 188.536132812 386 177.623046875 377 173.372070312 357 c 5
 171.883789062 350 172.970703125 341 174.6953125 335 c 5
 175.243164062 342.28125 235.853515625 86.3974609375 238.169921875 102 c 5
 254.990234375 124.674804688 299.392578125 211.251953125 330.879882812 270 c 5
 315.353515625 342.799804688 302.932617188 354.93359375 301.22265625 361 c 5
 291.260742188 380 270.473632812 381 260.536132812 386 c 5
 268.787109375 406 l 5
 294.752929688 402.603515625 324.315429688 400.619140625 354.739257812 400.619140625 c 4xa0
 387.015625 400.619140625 420.26171875 402.852539062 451.212890625 408 c 5
 449.111328125 384 l 5
 448.111328125 384 428.8984375 383 422.111328125 384 c 4
 401.111328125 384 390.135742188 370 392.584960938 358 c 5
 391.713867188 353.903320312 443.759765625 90.66015625 441.807617188 105 c 5
 495.512695312 178.884765625 519.328125 225.0625 555.46875 301 c 4
 582.372070312 357 590.111328125 384 519.685546875 382 c 5
 524.362304688 404 l 5
 540.44140625 402.169921875 561.883789062 400.96875 586.32421875 400.96875 c 4
 615.314453125 400.96875 648.522460938 402.659179688 682 407 c 5xc0
EndSplineSet
EndChar
StartChar: x.pcap
Encoding: 57370 57370 1217
Width: 475
Flags: W
HStem: -5 22<-10.6846 20.5844 122.408 146.272> -1 25<397.957 426.537> 384 23<65.3623 87.9821 206.41 238.323 311.368 335.709 438.731 476.111>
AnchorPoint: "Top" 297.541 465 basechar 0
AnchorPoint: "Bottom" 195.514 -15 basechar 0
LayerCount: 2
Back
SplineSet
72.3349609375 399.728515625 m 5xa0
 139.205078125 396.272460938 186.453125 395.12109375 248.9765625 403.921875 c 5
 245.3125 381.2734375 l 5
 240.859375 379.879882812 230.387695312 380.2734375 221.307617188 377.91015625 c 4
 210.400390625 374.78125 211.462890625 361.90234375 214.899414062 352.315429688 c 5
 213.689453125 351.951171875 270.203125 237.88671875 268.663085938 239.36328125 c 5
 299.999023438 274.071289062 322.977539062 305.303710938 336.434570312 321.331054688 c 4
 346.115234375 332.783203125 357.467773438 356.919921875 341.71484375 367.286132812 c 5
 338.412109375 371.029296875 315.896484375 377.981445312 312.512695312 377.817382812 c 5
 319.734375 398.081054688 l 5
 367.063476562 392.655273438 434.979492188 393.887695312 484.91796875 399.809570312 c 5
 481.923828125 376.827148438 l 5
 473.672851562 374.716796875 443.69140625 372.055664062 412.43359375 347.7734375 c 4
 396.202148438 336.51953125 390.67578125 333.405273438 280.928710938 224.336914062 c 5
 303.657226562 190.495117188 378.715820312 69.8251953125 389.076171875 59.466796875 c 5
 412.033203125 29.1220703125 422.607421875 30.5703125 445.794921875 23.904296875 c 5
 436.39453125 -0.806640625 l 5x60
 397.797851562 7.580078125 294.970703125 5.1953125 251.213867188 -4.423828125 c 5
 253.518554688 17.568359375 l 5
 259.274414062 22.1552734375 272.635742188 25.2607421875 279.068359375 29.4609375 c 4
 297.381835938 40.6552734375 290.239257812 60.208984375 283.280273438 75.1669921875 c 4
 270.631835938 106.938476562 258.54296875 132.639648438 234.137695312 173.013671875 c 5
 190.348632812 127.935546875 166.9453125 97.8212890625 143.356445312 67.7861328125 c 4
 133.71484375 55.7861328125 122.264648438 36.8369140625 140.159179688 25.4453125 c 4
 148.454101562 20.8291015625 158.422851562 18.380859375 163.680664062 17.4755859375 c 5
 159.421875 -3.60546875 l 5
 107.06640625 0.091796875 50.1875 1.8203125 -0.0400390625 -4.7578125 c 5
 2.923828125 16.8310546875 l 5
 14.169921875 18.08984375 47.0654296875 29.572265625 77.78125 55.0322265625 c 4
 87.5537109375 65.103515625 90.7197265625 60.619140625 219.7421875 190.147460938 c 5
 134.853515625 329.364257812 133.345703125 335.135742188 124.274414062 341.392578125 c 4
 96.9765625 371.967773438 83.8486328125 379.803710938 68.3154296875 382.010742188 c 5
 72.3349609375 399.728515625 l 5xa0
EndSplineSet
Fore
SplineSet
65.3623046875 403 m 5xa0
 96.1318359375 401.629882812 122.564453125 400.467773438 148.197265625 400.467773438 c 4
 178.681640625 400.467773438 208.036132812 402.111328125 242.212890625 407 c 5
 238.323242188 384 l 5
 234.111328125 383 224.111328125 383 214.685546875 381 c 4
 204.047851562 378 204.28515625 365 207.159179688 355 c 5
 208.309570312 351 257.565429688 244 259.140625 242 c 5
 291.852539062 278.280273438 315.682617188 310.415039062 329.208007812 327 c 4
 338.545898438 338 350.860351562 363 334.985351562 373 c 5
 331.41015625 375 309.323242188 384 306.323242188 384 c 5
 313.575195312 404 l 5
 333.862304688 401.838867188 358.125 400.798828125 383.196289062 400.798828125 c 4
 416.12890625 400.798828125 450.455078125 402.59375 479 406 c 5
 476.111328125 383 l 5
 467.685546875 381 438.047851562 378 405.947265625 354 c 4
 389.551757812 342.733398438 383.681640625 338.63671875 270.952148438 227 c 5
 292.59375 192.381835938 365.407226562 69.181640625 375.243164062 59 c 5
 397.866210938 29 409.291015625 31 431.803710938 24 c 5
 424.489257812 -1 l 5x60
 407.467773438 2.5556640625 377.8203125 4.3330078125 346.259765625 4.3330078125 c 4
 306.80859375 4.3330078125 264.366210938 1.5556640625 239.8515625 -4 c 5
 239.528320312 18 l 5
 245.590820312 23 258.015625 25 264.866210938 29 c 4
 283.204101562 40 277.455078125 60 270.643554688 75 c 4
 258.653320312 107.979492188 246.349609375 134.775390625 223.112304688 176 c 5
 178.2734375 129.713867188 154.71484375 98.857421875 130.155273438 68 c 4
 120.60546875 56 108.353515625 36 126.015625 25 c 4
 133.953125 20 144.528320312 18 149.315429688 17 c 5
 144.8515625 -4 l 5
 117.608398438 -1.91015625 89.1572265625 -0.3662109375 60.9970703125 -0.3662109375 c 4
 35.2529296875 -0.3662109375 9.751953125 -1.6572265625 -14.361328125 -5 c 5
 -10.6845703125 17 l 5
 0.5283203125 18 33.078125 30 64.392578125 55 c 4
 75.552734375 64.0732421875 77.478515625 60.111328125 209.725585938 193 c 5
 127.270507812 332 123.768554688 336.142578125 116.821289062 344 c 4
 89.41015625 375 77.111328125 383 61.5361328125 385 c 5
 65.3623046875 403 l 5xa0
EndSplineSet
EndChar
StartChar: y.pcap
Encoding: 57371 57371 1221
Width: 458
Flags: W
HStem: -11 27<112.465 157.528 275.255 307.274> 381 26<63.2664 94.4076 201.274 233.575 333.557 366.855 447.324 492.362>
AnchorPoint: "Top" 301.643 465 basechar 0
AnchorPoint: "Bottom" 205.615 -15 basechar 0
LayerCount: 2
Back
SplineSet
239.829101562 373.333984375 m 5
 246.634765625 373.41796875 228.71875 370.631835938 220.918945312 370.916992188 c 4
 208.515625 368.69140625 205.103515625 361.62890625 210.544921875 349.094726562 c 5
 244.642578125 269.571289062 278.021484375 230.38671875 281.09765625 226.837890625 c 5
 324.46875 279.71875 358.709960938 320.173828125 360.842773438 326.047851562 c 5
 371.392578125 340.5703125 380.076171875 356.356445312 369.0859375 365.513671875 c 4
 363.990234375 370.76953125 346.8046875 373.5234375 334.766601562 374.232421875 c 5
 341.073242188 399.921875 l 5
 363.034179688 396.143554688 464.607421875 389.807617188 504.190429688 399.587890625 c 5
 498.733398438 371.513671875 l 5
 456.904296875 368.9609375 441.4453125 355.815429688 410.143554688 330.430664062 c 5
 370.322265625 300.138671875 329.762695312 247.581054688 296.006835938 203.708984375 c 5
 290.311523438 177.372070312 282.15625 145.875976562 276.182617188 59.5009765625 c 4
 274.729492188 28.10546875 284.141601562 26.94140625 328.323242188 20.689453125 c 5
 319.709960938 -7.142578125 l 5
 262.399414062 1.1630859375 190.767578125 4.78125 127.927734375 -10.6787109375 c 5
 125.784179688 16.3349609375 l 5
 172.467773438 25.7314453125 193.549804688 32.7314453125 202.538085938 70.779296875 c 5
 202.204101562 67.7490234375 222.471679688 180.627929688 221.1875 177.750976562 c 5
 221.017578125 182.723632812 182.982421875 263.728515625 124.614257812 339.014648438 c 5
 103.872070312 362.404296875 98.0986328125 365.581054688 63.9208984375 374.715820312 c 5
 71.3828125 400.416992188 l 5
 104.495117188 396.880859375 206.965820312 392.606445312 241.69921875 399.426757812 c 5
 239.829101562 373.333984375 l 5
EndSplineSet
Fore
SplineSet
233.575195312 380 m 5
 230.575195312 380 222.3203125 379.315429688 214.149414062 378 c 4
 201.724609375 376 198.237304688 369 203.473632812 356 c 5
 235.493164062 271.41015625 266.953125 231.229492188 270.053710938 227 c 5
 315.116210938 283.747070312 349.219726562 326.576171875 353.584960938 333 c 5
 364.7734375 348 374.173828125 364 363.086914062 373 c 4
 358.149414062 378 340.575195312 380 328.787109375 381 c 5
 335.314453125 407 l 5
 348.502929688 404.618164062 389.548828125 401.52734375 429.073242188 401.52734375 c 7
 455.927734375 401.52734375 482.080078125 402.954101562 498.314453125 407 c 5
 492.362304688 379 l 5
 450.724609375 376 433.749023438 362 402.434570312 337 c 5
 361.704101562 305.333007812 320.037109375 250.444335938 285.165039062 204 c 5
 278.638671875 178 269.836914062 146 262.556640625 60 c 4
 260.967773438 29 270.541992188 27 314.267578125 21 c 5
 305.315429688 -7 l 5
 277.29296875 -3.087890625 245.666992188 -0.37109375 213.2734375 -0.37109375 c 7
 179.430664062 -0.37109375 144.750976562 -3.3359375 112.46484375 -11 c 5
 111.204101562 16 l 5
 158.1171875 25 178.817382812 33 188.89453125 71 c 5
 188.256835938 68 211.276367188 181 209.638671875 178 c 5
 209.748046875 183.217773438 173.712890625 267.739257812 117.34765625 346 c 5
 97.2373046875 369 92.0869140625 373 58 382 c 5
 65.314453125 407 l 5
 85.3037109375 404.587890625 130.748046875 402.17578125 171.241210938 402.17578125 c 4
 197.8984375 402.17578125 222.41015625 403.220703125 236.1015625 406 c 5
 233.575195312 380 l 5
EndSplineSet
EndChar
StartChar: eogonek.pcap
Encoding: 57415 57415 233
Width: 468
UnlinkRmOvrlpSave: 1
Flags: MW
HStem: -266 60.1279<272.947 335.414> -6 23<49 73.9636> 189 24<157 297.415> 378 19<43 73.1367>
VStem: 85 72<38.1614 189 213 361.351> 190.562 69.21<-194.855 -87.4226> 319 23<134 169.751 236.136 260> 377 19<105.592 116.842>
AnchorPoint: "Top" 243 465 basechar 0
LayerCount: 2
Fore
SplineSet
63 404 m 1
 103.716796875 402.131835938 156.293945312 401.380859375 207.076171875 401.380859375 c 0
 292.23828125 401.380859375 372.350585938 403.494140625 383 406 c 1
 390.208007812 399.821289062 392.821289062 394.350585938 392.821289062 386.875976562 c 0
 392.821289062 372.575195312 383.25390625 350.943359375 378 303 c 1
 358 301 l 1
 353 312 362.796762138 343.134499322 339 359 c 0
 323.391601562 369.40625 289.594726562 375.159179688 255.490234375 375.159179688 c 0
 237.15625 375.159179688 219.018572426 371.779841381 203 370 c 0
 194 369 187.839150452 358.955867427 187 351 c 0
 182 303.595703125 178 259.282226562 177 216 c 1
 213 216 280.876988301 217.646164717 295 220 c 0
 325 225 330 238 341 267 c 1
 362 263 l 1
 357.431640625 246.552734375 355.576171875 226.348632812 355.576171875 205.8203125 c 0
 355.576171875 181.415039062 358.198242188 156.552734375 362 137 c 1
 339 131 l 1
 327 188 326.387737143 177.280224615 294 186 c 0
 268 193 229 192 177 192 c 1
 177 135.8046875 179.380184675 89.4792612987 189 51 c 0
 191 43 195.987717642 37.9439050144 205 36 c 0
 228.905273438 30.84375 248.196289062 26.56640625 266.889648438 26.56640625 c 0
 288.078125 26.56640625 308.682875361 31.7710739491 334 48 c 0
 373 73 376 85 397 120 c 1
 416 115 l 1
 405.659907891 49.6008314195 379.047693558 11.9997489385 359.272460938 -2.767578125 c 1
 290.890875387 -58.6961464566 279.771484375 -91.0758090067 279.771484375 -148 c 0
 279.771484375 -184.331711894 301.134509604 -205.872070312 328.166015625 -205.872070312 c 0
 343.840568725 -205.872070312 362.660571522 -195.18359375 381.97265625 -171.599609375 c 1
 381.97265625 -171.599609375 393.081054688 -181.926757812 395.771484375 -190 c 1
 372.083847314 -242.788085938 332.174993147 -266 295.771484375 -266 c 0
 250.572780919 -266 210.561523438 -232.643480507 210.561523438 -176.834960938 c 0
 210.561523438 -137.227421412 238.549177954 -67.3284068416 314.21484375 -1.8740234375 c 1
 274.004362255 -1.06248579986 233.619958881 -0.384765625 194.928710938 -0.384765625 c 0
 147.72265625 -0.384765625 103.91796875 -1.7412109375 69 -6 c 1
 63 17 l 1
 92 24 100.459652982 27.0888971875 105 53 c 0
 108.661132812 73.8935546875 110.133789062 141.57421875 110.133789062 207.544921875 c 0
 110.133789062 267.721679688 108.468610331 326.43945537 107 347 c 0
 105 375 99 376 60 385 c 1
 63 404 l 1
EndSplineSet
EndChar
StartChar: oe.pcap
Encoding: 57443 57443 362
Width: 733
UnlinkRmOvrlpSave: 1
Flags: W
HStem: -7 37<242.095 356.727 454.765 598.992> 192 24<442 582.143> 370 31.3809<455.917 607.562> 378 35<202.127 324.575>
VStem: 56 78<146.255 286.001> 371.159 70.8408<43.6521 192 216 330.353> 604 23<135.174 171.992> 623 20<303 349.646> 662 19<105.351 116.842>
AnchorPoint: "Top" 386 465 basechar 0
AnchorPoint: "Bottom" 390 -15 basechar 0
LayerCount: 2
Fore
SplineSet
258 378 m 3xdc80
 186 378 134 325 134 243 c 3
 134 134.985781991 212 30 307 30 c 3
 325.849592941 30 351.479929673 33.9369058324 357 43 c 0
 364.629678891 55.5267422623 371.159179688 157.439453125 371.159179688 213.365234375 c 3
 371.159179688 253.048828125 366.01119783 318 358 331 c 0
 339.512620393 361 293.889541805 378 258 378 c 3xdc80
287 -7 m 3
 144 -7 56 108.112195122 56 200 c 3
 56 314 165 413 292 413 c 3xde80
 347.254458663 413 351.869716181 401.380859375 472.076171875 401.380859375 c 3
 557.23828125 401.380859375 637.350585938 403.494140625 648 406 c 1
 655.208007812 399.821289062 657.821289062 394.350585938 657.821289062 386.875976562 c 3
 657.821289062 372.575195312 648.25390625 350.943359375 643 303 c 1
 623 301 l 1xed80
 618 312 627.797220264 343.13518649 604 359 c 0
 580 375 513.815776386 375.090641821 468 370 c 0
 459 369 452.839150452 358.955867427 452 351 c 0
 447 303.595703125 443 259.282226562 442 216 c 1
 478 216 545.876988301 217.646164717 560 220 c 0
 590 225 595 238 606 267 c 1
 627 263 l 1
 622.431640625 246.552734375 620.576171875 226.348632812 620.576171875 205.8203125 c 3
 620.576171875 181.415039062 623.198242188 156.552734375 627 137 c 1
 604 131 l 1xee80
 592 188 591.387737143 177.280224615 559 186 c 0
 533 193 494 192 442 192 c 1
 442 135.8046875 444.380184675 89.4792612987 454 51 c 0
 456 43 460.987717642 37.9439050144 470 36 c 0
 493.905273438 30.84375 513.196289062 26.56640625 531.889648438 26.56640625 c 3
 553.078125 26.56640625 573.682875361 31.7710739491 599 48 c 0
 638 73 641 85 662 120 c 1
 681 115 l 1
 672 75 660 18.7240618102 656 -4 c 1
 592.763935366 -2.83671698613 523.690532385 -0.384765625 459.928710938 -0.384765625 c 3
 389.852857648 -0.384765625 346.066996956 -7 287 -7 c 3
EndSplineSet
EndChar
StartChar: uogonek.pcap
Encoding: 57459 57459 1208
Width: 529
UnlinkRmOvrlpSave: 1
Flags: W
HStem: -266 60.1279<202.458 289.239> -6 38<165.158 326.086> 379 25<76.672 112.825 207.138 256.111 394.232 440.634 499.603 547.474>
LayerCount: 2
Fore
SplineSet
342.759765625 15.54296875 m 5
 265.469726562 -46.119140625 249.560546875 -75.447265625 237.540039062 -132 c 4
 227.681640625 -178.375976562 243.201171875 -205.872070312 270.232421875 -205.872070312 c 7
 285.907226562 -205.872070312 306.998046875 -195.18359375 331.323242188 -171.599609375 c 5
 331.323242188 -171.599609375 340.237304688 -181.926757812 341.2109375 -190 c 5
 306.303710938 -242.788085938 261.459960938 -266 225.056640625 -266 c 7
 179.858398438 -266 148.208984375 -226.658203125 162.200195312 -160.834960938 c 4
 170.895507812 -119.928710938 218.401367188 -40.7978515625 319.71484375 23 c 5
 342.759765625 15.54296875 l 5
EndSplineSet
Refer: 520 57367 N 1 0 0 1 0 0 3
EndChar
StartChar: question.pcap
Encoding: 57474 57474 424
Width: 318
Flags: W
HStem: -20.9939 124.397<94.3968 118.447> 327.674 80.3262<120.492 252.149>
VStem: 49.3277 113.717 87.1162 28.1377<417.044 435.25> 114.746 18.1943<140 156.136>
LayerCount: 2
Fore
SplineSet
79.2890625 327 m 5xc8
 83.81640625 340 86.9541015625 351 88.8984375 361 c 4
 97.2568359375 404 85.560546875 421 87.1162109375 429 c 4
 88.087890625 434 94.6708984375 437 115.25390625 440 c 5xd0
 130.034179688 408 137.034179688 408 167.034179688 408 c 7
 242.034179688 408 308.67578125 365 295.846679688 299 c 4
 274.46484375 189 195.298828125 183 184.520507812 179 c 4
 156.16015625 172 140.022460938 161 132.940429688 140 c 13
 132.940429688 140 119.74609375 139 114.74609375 139 c 5
 115.822265625 161 116.875976562 181.240234375 120.232421875 198.50390625 c 4
 125.265625 224.400390625 135.477539062 243.599609375 158.7109375 252 c 4
 178.876953125 258 258.349609375 245 267.09765625 290 c 4
 271.752929688 313.952148438 213.036132812 327.673828125 117.494140625 327.673828125 c 4
 105.336914062 327.673828125 92.583984375 327.451171875 79.2890625 327 c 5xc8
EndSplineSet
Refer: 405 46 N 0.836151 0 0 0.88855 51 -5 2
EndChar
StartChar: uni01EB.pcap
Encoding: 57492 57492 585
Width: 568
UnlinkRmOvrlpSave: 1
Flags: W
HStem: -266 60.1279<279.947 342.414> -5 37<209.826 339.581> 378 35<243.753 356.718>
VStem: 197.562 69.21<-194.855 -88.4335>
AnchorPoint: "Top" 285 465 basechar 0
LayerCount: 2
Fore
SplineSet
340.630859375 12.54296875 m 1
 276.447679199 -47.8650918966 266.771484375 -76.5970352048 266.771484375 -132 c 3
 266.771484375 -178.376408535 288.134509604 -205.872070312 315.166015625 -205.872070312 c 3
 330.840568725 -205.872070312 349.660571522 -195.18359375 368.97265625 -171.599609375 c 1
 368.97265625 -171.599609375 380.081054688 -181.926757812 382.771484375 -190 c 1
 359.083847314 -242.788085938 319.174993147 -266 282.771484375 -266 c 3
 237.572780919 -266 197.561523438 -226.657902331 197.561523438 -160.834960938 c 3
 197.561523438 -117.534253545 232.894177668 -33.7713170097 333.931640625 33.76171875 c 1
 340.630859375 12.54296875 l 1
EndSplineSet
Refer: 359 57361 N 1 0 0 1 0 0 3
EndChar
StartChar: phi.pcap
Encoding: 57536 57536 410
Width: 518
Flags: W
HStem: -0.869141 19.8691<123.661 163.792 280.669 308.168> 62 28.7852<194.084 317.881> 312.555 27.4453<203.532 328.356> 379 21.1201<335.414 379.589> 381 28<202.669 241.792>
VStem: 121.364 262.726
LayerCount: 2
Fore
SplineSet
265.53515625 312.5546875 m 3xe4
 203.171875 312.5546875 151.536132812 278.623046875 141.331054688 226.124023438 c 0
 126.458007812 149.609375 169.708007812 90.78515625 254.0546875 90.78515625 c 3
 321.56640625 90.78515625 366.107421875 128.44140625 376.110351562 179.904296875 c 0
 393.357421875 268.633789062 342.517578125 312.5546875 265.53515625 312.5546875 c 3xe4
293.141601562 340 m 3
 403.543945312 340 476.12890625 273.684570312 461.28515625 197.321289062 c 0
 446.786132812 122.729492188 353.959960938 62 234.653320312 62 c 3
 107.333007812 62 42.841796875 133.309570312 55.28515625 197.321289062 c 0
 70.90625 277.684570312 180.065429688 340 293.141601562 340 c 3
EndSplineSet
Refer: 301 57355 N 0.909091 0 0 1 110.455 0 2
EndChar
StartChar: uni0259.smcp
Encoding: 57993 57993 620
Width: 489
Flags: W
HStem: -19.95 53.675<185.184 295.654> 443.625 54.95<137.276 282.809>
VStem: 369.075 78.7<220.228 353.532>
LayerCount: 2
Fore
SplineSet
245.7 33.725 m 3
 322.522941176 33.725 359.734411765 114.554051907 366.625 189.175 c 1
 326.919431906 181.68077142 168.154333351 148.344456975 128.05 141.25 c 1
 134.161702128 119.048148148 162.554333351 147.644456975 122.45 140.55 c 1
 135.561702128 90.4342809605 190.630851064 33.725 245.7 33.725 c 3
230.95 -19.95 m 3
 159.9 -19.95 85.6105008585 35.3545245022 60.675 95.2 c 0
 54.55 109.9 36.175 119.7 22.7 120.925 c 1
 22.7 150.325 l 1
 82.2 160.825 311.675 206.15 369.075 220.15 c 1
 369.075 228.257894737 370.3 237.717105263 370.3 245.825 c 3
 370.3 386.7575 282.736046512 443.625 197.875 443.625 c 3
 139.186842105 443.625 90.4881578948 416.235 55.525 387.6 c 1
 32.5 415.875 l 1
 83.95 456.008823529 157.45 498.575 241.975 498.575 c 3
 373.05 498.575 447.775 397.817368421 447.775 267.925 c 3
 447.775 53.55 272.6 -19.95 230.95 -19.95 c 3
EndSplineSet
Validated: 5
EndChar
StartChar: Acute
Encoding: 58018 58018 1244
Width: 222
Flags: W
HStem: 744.9 147.152
VStem: 178.197 243.553
AnchorPoint: "Top" 199.872 699 mark 0
LayerCount: 2
Fore
SplineSet
178.197265625 780.448242188 m 17
 238.41796875 818.389648438 339.055664062 869.749023438 402.340820312 892.052734375 c 1
 404.563476562 889.095703125 418.145507812 854.846679688 421.75 825.016601562 c 1
 360.484375 816.883789062 275.1953125 788.180664062 184.65625 744.900390625 c 9
 178.197265625 780.448242188 l 17
EndSplineSet
EndChar
StartChar: Circumflex
Encoding: 58020 58020 1258
Width: 281
VWidth: 1159
Flags: HMW
AnchorPoint: "Top" 288.577 699 mark 0
LayerCount: 2
Fore
SplineSet
441.336914062 761.361328125 m 1
 411.05859375 747.85546875 l 1
 308.900390625 792.262695312 l 1
 187.865234375 747.85546875 l 1
 163.327148438 761.361328125 l 1
 304.517578125 859.400390625 l 1
 341.825195312 859.400390625 l 1
 441.336914062 761.361328125 l 1
EndSplineSet
EndChar
StartChar: Tilde
Encoding: 58022 58022 1327
Width: 329
VWidth: 1159
Flags: W
HStem: 754.053 60<339.96 433.34> 791.391 59.4463<250.395 339.96>
VStem: 176.313 325.038
AnchorPoint: "Top" 313.577 699 mark 0
LayerCount: 2
Fore
SplineSet
176.313476562 755.353515625 m 1x60
 219.771484375 809.608398438 275.846679688 850.836914062 283.607421875 850.836914062 c 3x60
 327.500976562 850.836914062 369.012695312 814.052734375 411.735351562 814.052734375 c 3
 422.341796875 814.052734375 450.59765625 838.275390625 469.90625 867.82421875 c 1
 501.3515625 854.5390625 l 1
 467.658203125 803.78125 414.3203125 754.052734375 401.326171875 754.052734375 c 3xa0
 359.407226562 754.052734375 306.357421875 791.390625 266.704101562 791.390625 c 3
 253.638671875 791.390625 226.118164062 760.771484375 207.8046875 741.64453125 c 1
 176.313476562 755.353515625 l 1x60
EndSplineSet
EndChar
StartChar: Uni030B
Encoding: 58027 58027 1331
Width: 300
Flags: W
HStem: 736.3 159.7
VStem: 135.732 322.617
AnchorPoint: "Top" 222.872 699 mark 0
LayerCount: 2
Fore
SplineSet
135.732421875 752.299804688 m 1
 167.98828125 801.505859375 199.473632812 849.52734375 244.165039062 896 c 1
 244.165039062 896 274.409179688 879.559570312 292.891601562 866.299804688 c 1
 240.908203125 827.651367188 219.869140625 806.5703125 159.622070312 736.299804688 c 1
 135.732421875 752.299804688 l 1
298.017578125 756.4921875 m 1
 334.908203125 810.02734375 371.150390625 854 413.616210938 891.51953125 c 1
 413.616210938 891.51953125 441.887695312 874.6484375 458.349609375 862.18359375 c 1
 415.103515625 831.91796875 380.833984375 804 322.29296875 737.471679688 c 1
 298.017578125 756.4921875 l 1
EndSplineSet
Validated: 1
EndChar
StartChar: Hookabovecomb
Encoding: 58037 58037 1279
Width: 0
VWidth: 1159
Flags: W
HStem: 872 31<-200.993 -166.709>
VStem: -209.325 30.333<743.231 777.34>
AnchorPoint: "Top" -221 699 mark 0
LayerCount: 2
Fore
SplineSet
-267.526367188 841 m 1
 -253.762695312 878.607421875 -219.474609375 903 -169.974609375 903 c 3
 -122.569335938 903 -97.3271484375 878.038085938 -104.720703125 840 c 0
 -114.1015625 791.73828125 -179.04296875 792.038085938 -181.772460938 778 c 0
 -184.536132812 763.778320312 -182.076171875 758.48046875 -178.9921875 746 c 9
 -209.325195312 734 l 1
 -215.306640625 742.838867188 -224.891601562 761.953125 -221.578125 779 c 0
 -214.471679688 815.559570312 -170.219726562 801.418945312 -164.469726562 831 c 0
 -159.615234375 855.9765625 -170.77734375 872 -185.5 872 c 3
 -195.27734375 872 -204.284179688 855.965820312 -206.526367188 841 c 1
 -219.46484375 835 -254.5859375 836 -267.526367188 841 c 1
EndSplineSet
Validated: 33
EndChar
StartChar: hairrule
Encoding: 58112 58112 294
Width: 1000
Flags: W
HStem: -12 24<0 1000>
LayerCount: 2
Fore
SplineSet
0 -12 m 5
 0 12 l 5
 1000 12 l 5
 1000 -12 l 5
 0 -12 l 5
EndSplineSet
Validated: 1
EndChar
StartChar: thinrule
Encoding: 58113 58113 487
Width: 1000
Flags: HW
HStem: -16 32<0 1000>
LayerCount: 2
Fore
SplineSet
0 -12 m 5
 0 12 l 5
 1000 12 l 5
 1000 -12 l 5
 0 -12 l 5
EndSplineSet
EndChar
StartChar: mediumrule
Encoding: 58114 58114 340
Width: 1000
Flags: HW
HStem: -23 46<0 1000>
LayerCount: 2
Fore
SplineSet
0 -12 m 5
 0 12 l 5
 1000 12 l 5
 1000 -12 l 5
 0 -12 l 5
EndSplineSet
EndChar
StartChar: thickrule
Encoding: 58115 58115 486
Width: 1000
Flags: HW
HStem: -33 66<0 1000>
LayerCount: 2
Fore
SplineSet
0 -12 m 5
 0 12 l 5
 1000 12 l 5
 1000 -12 l 5
 0 -12 l 5
EndSplineSet
EndChar
StartChar: uniFB00.alt
Encoding: 58121 58121 1157
Width: 527
VWidth: 1159
UnlinkRmOvrlpSave: 1
Flags: W
HStem: -326 36<-152.972 -101.304> -261 31<21 109.102> 697 57<523.435 623.771>
LayerCount: 2
Fore
SplineSet
601 754 m 3
 613.853658537 754 643.292682927 744.25 652 736 c 1
 647 709 638 702 586 676 c 1
 573.351351351 683.411764706 560 697 547 697 c 3
 491.261437908 697 478.191596399 616.294223275 443 498 c 1
 414.666666667 397.686567164 349.000000001 -23.0000000003 311 -113 c 0
 282.669763672 -180.097928144 209.681019176 -227.323365066 142 -249 c 1
 127.745098039 -254 76.4709940783 -261 54 -261 c 3
 35.2615384615 -261 6.70769230769 -260.4 -4 -259 c 1
 21 -230 l 1
 146.605675178 -224.444164347 213.258497535 -167.076841562 247 -90 c 0
 275.937007734 -23.8982262953 343.038064421 322.241074666 370 493 c 1
 391.502178267 624.992162652 419.107325699 661.563531199 475 701 c 0
 513.266666667 728 547.8 754 601 754 c 3
46 342 m 1
 152.842829063 343.228746852 418.35041702 366.643732368 554 383 c 1
 550 341 l 1
 432.235668007 336.690016322 156.094524693 317.937547397 41 300 c 1
 46 342 l 1
418 714 m 3
 439.422764228 714 488.487804878 699.375 503 687 c 1
 499.603515625 679 465.603515625 631 455.603515625 616 c 1
 425.894267314 630.470588235 394.534505208 657 364 657 c 3
 282.535947712 657 258.127998268 583.419566752 212 464 c 0
 171.666666667 359.582089552 122.638401543 -39.638237549 80 -172 c 0
 58.8096756584 -237.78081202 12.8536931818 -278.947265625 -32 -323 c 1
 -42.7843137255 -322 -41.7058823529 -321 -87 -321 c 3
 -108 -321 -140 -325 -152 -326 c 1
 -157 -290 l 1
 -84.4360311865 -275.814453125 -35.5938529037 -240.540205604 -6 -187 c 0
 45.9852666645 -92.95 108.418740733 269.599441389 139 459 c 0
 159.855172414 588.163461538 213.532210316 615.252918989 283 661 c 0
 324 688 361 714 418 714 c 3
EndSplineSet
EndChar
StartChar: zero.smaller
Encoding: 58358 58358 1235
Width: 344
Flags: W
HStem: -0.19043 26.0342<119.512 200.308> 247.84 27.3115<141.099 222.713>
VStem: 26.2598 287.538
LayerCount: 2
Fore
SplineSet
178.250976562 247.83984375 m 7
 133.302734375 247.83984375 104.299804688 202.76171875 94.5 156.658203125 c 4
 78.37109375 80.779296875 99.6171875 25.84375 164.3515625 25.84375 c 7
 212.90234375 25.84375 234.559570312 79.5078125 243.331054688 120.775390625 c 4
 258.471679688 192.006835938 245.576171875 247.83984375 178.250976562 247.83984375 c 7
205.504882812 275.151367188 m 7
 280.978515625 275.151367188 330.455078125 213.850585938 313.797851562 135.481445312 c 4
 295.8359375 50.98046875 214.979492188 -0.1904296875 140.163085938 -0.1904296875 c 7
 62.9345703125 -0.1904296875 9.4794921875 56.1728515625 26.259765625 135.115234375 c 4
 43.65625 216.9609375 130.723632812 275.151367188 205.504882812 275.151367188 c 7
EndSplineSet
Validated: 33
EndChar
